<svg width="53" height="24" viewBox="0 0 53 24" fill="none" xmlns="http://www.w3.org/2000/svg">
<path fill-rule="evenodd" clip-rule="evenodd" d="M41.3795 0.57988C41.3771 0.433251 41.3747 0.285631 41.3721 0.137059L42.372 0.119873C42.3745 0.267164 42.3769 0.412764 42.3792 0.55671C42.4016 1.92738 42.4215 3.14802 42.5514 4.25025C42.6943 5.46206 42.9665 6.48867 43.4946 7.36375C44.5326 9.08391 46.6666 10.3844 51.346 11.1285H52.8721V12.1285H51.6136C46.9342 12.8726 44.8002 14.173 43.7622 15.8932C43.2341 16.7683 42.9619 17.7949 42.819 19.0067C42.6891 20.1089 42.6692 21.3296 42.6468 22.7002C42.6445 22.8442 42.6421 22.9898 42.6396 23.1371L41.6397 23.1199C41.6423 22.9713 41.6447 22.8237 41.647 22.6771C41.669 21.3186 41.6897 20.0453 41.8259 18.8896C41.9776 17.603 42.2761 16.4202 42.906 15.3765C43.7462 13.9842 45.1278 12.9134 47.3444 12.1285H0.872061V11.1285H47.0768C44.8602 10.3435 43.4786 9.27273 42.6384 7.88042C42.0086 6.83671 41.71 5.65392 41.5583 4.36732C41.4221 3.21165 41.4015 1.93832 41.3795 0.57988Z" fill="white"/>
</svg>
