<svg width="1920" height="1080" viewBox="0 0 1920 1080" fill="none" xmlns="http://www.w3.org/2000/svg">
<g clip-path="url(#clip0_154_268)">
<g filter="url(#filter0_f_154_268)">
<ellipse cx="767.309" cy="320.5" rx="112" ry="110" fill="#0000FF"/>
</g>
<g filter="url(#filter1_f_154_268)">
<ellipse cx="1376.25" cy="648.555" rx="161.436" ry="157.891" fill="#0000FF"/>
</g>
<path d="M400.625 811.473L390.309 807.112L390.776 806.007L401.092 810.367L400.625 811.473Z" fill="#C4C5C5"/>
<path d="M401.878 808.245L395.502 803.963L396.127 803.033L397.057 803.657C396.954 803.409 396.89 803.121 396.864 802.796C396.831 802.08 397.002 801.443 397.377 800.885C397.894 800.115 398.561 799.657 399.378 799.512C400.195 799.367 401.016 799.571 401.839 800.124L405.625 802.666L405 803.596L401.215 801.053C400.657 800.679 400.103 800.538 399.552 800.631C398.993 800.717 398.54 801.018 398.195 801.531C397.809 802.107 397.687 802.719 397.83 803.367C397.97 804.001 398.354 804.529 398.982 804.951L402.502 807.315L401.878 808.245Z" fill="#C4C5C5"/>
<path d="M406.063 799.229L402.879 795.964L401.848 796.97L401.122 796.225L401.752 795.611C402.057 795.313 402.024 794.973 401.651 794.591L400.422 793.331L401.167 792.605L402.954 794.438L404.157 793.265L404.883 794.009L403.68 795.182L406.864 798.447C407.423 799.019 407.95 799.064 408.447 798.579C408.638 798.393 408.787 798.195 408.895 797.985C408.896 797.97 408.915 797.929 408.954 797.862C408.992 797.779 409.016 797.719 409.024 797.681L409.75 798.426C409.742 798.464 409.722 798.52 409.691 798.595C409.653 798.662 409.626 798.711 409.61 798.741C409.502 798.951 409.345 799.156 409.139 799.357C408.658 799.827 408.149 800.054 407.614 800.04C407.086 800.018 406.569 799.748 406.063 799.229Z" fill="#C4C5C5"/>
<path d="M414.213 792.783L415.21 792.993C415.192 793.336 415.11 793.708 414.964 794.108C414.63 794.963 414.11 795.621 413.404 796.081C412.52 796.658 411.548 796.828 410.488 796.59C409.437 796.346 408.609 795.759 408.002 794.83C407.396 793.901 407.193 792.906 407.393 791.846C407.592 790.786 408.117 789.979 408.965 789.425C409.85 788.848 410.78 788.674 411.757 788.902C412.743 789.125 413.539 789.701 414.146 790.63C414.175 790.675 414.237 790.8 414.333 791.005L414.393 791.156L409.159 794.553C409.574 795.11 410.14 795.46 410.857 795.604C411.578 795.732 412.237 795.601 412.836 795.21C413.381 794.855 413.778 794.341 414.027 793.669C414.137 793.33 414.199 793.034 414.213 792.783ZM408.634 793.749L412.989 790.907C412.539 790.373 411.99 790.05 411.343 789.937C410.7 789.809 410.096 789.929 409.534 790.296C408.971 790.664 408.608 791.181 408.444 791.848C408.281 792.515 408.344 793.149 408.634 793.749Z" fill="#C4C5C5"/>
<path d="M417.287 793.693L414.373 786.587L415.41 786.162L415.804 787.124C415.903 786.83 416.02 786.569 416.157 786.34C416.536 785.746 417.056 785.314 417.718 785.043L418.014 784.921L418.439 785.958L417.994 786.14C417.383 786.391 416.946 786.817 416.686 787.42C416.426 788.022 416.435 788.664 416.715 789.345L418.323 793.268L417.287 793.693Z" fill="#C4C5C5"/>
<path d="M421.719 791.819L420.311 784.269L421.412 784.064L421.617 785.165C421.723 784.917 421.883 784.67 422.098 784.424C422.586 783.899 423.16 783.575 423.821 783.452C424.733 783.282 425.527 783.437 426.203 783.919C426.878 784.401 427.307 785.129 427.489 786.104L428.325 790.587L427.224 790.792L426.388 786.31C426.265 785.649 425.977 785.155 425.526 784.827C425.072 784.488 424.541 784.375 423.933 784.489C423.251 784.616 422.729 784.957 422.366 785.513C422.012 786.057 421.904 786.701 422.043 787.445L422.82 791.614L421.719 791.819Z" fill="#C4C5C5"/>
<path d="M434.789 790.745L434.854 789.707C434.68 789.92 434.465 790.11 434.209 790.276C433.62 790.634 432.985 790.793 432.304 790.75C431.527 790.702 430.891 790.438 430.397 789.958C429.915 789.469 429.692 788.931 429.728 788.346C429.809 787.047 430.602 786.321 432.108 786.169L435.092 785.874C435.127 785.31 434.975 784.841 434.635 784.467C434.306 784.083 433.859 783.874 433.295 783.838C432.742 783.804 432.203 783.957 431.68 784.299C431.433 784.487 431.229 784.661 431.07 784.822L430.396 784.059C430.615 783.805 430.88 783.581 431.191 783.387C431.87 782.948 432.593 782.753 433.36 782.8C434.233 782.855 434.939 783.182 435.479 783.782C436.019 784.382 436.262 785.103 436.21 785.944L435.907 790.814L434.789 790.745ZM435.003 787.311L435.033 786.832L432.368 787.147C431.399 787.258 430.892 787.681 430.846 788.415C430.825 788.756 430.945 789.052 431.208 789.303C431.481 789.545 431.868 789.681 432.369 789.712C433.103 789.758 433.714 789.561 434.201 789.121C434.688 788.681 434.955 788.078 435.003 787.311Z" fill="#C4C5C5"/>
<path d="M439.11 789.38L440.253 784.965L438.859 784.604L439.12 783.597L439.972 783.818C440.385 783.925 440.658 783.72 440.792 783.204L441.233 781.5L442.24 781.761L441.598 784.239L443.225 784.66L442.964 785.667L441.338 785.246L440.195 789.66C439.994 790.435 440.23 790.909 440.901 791.083C441.159 791.149 441.406 791.175 441.641 791.159C441.654 791.151 441.7 791.146 441.777 791.144C441.868 791.135 441.931 791.124 441.968 791.111L441.707 792.118C441.671 792.13 441.612 792.143 441.532 792.155C441.455 792.157 441.399 792.159 441.365 792.161C441.13 792.178 440.872 792.15 440.594 792.077C439.943 791.909 439.485 791.592 439.22 791.127C438.965 790.664 438.929 790.082 439.11 789.38Z" fill="#C4C5C5"/>
<path d="M446.802 783.771C446.725 783.591 446.725 783.406 446.801 783.218C446.877 783.031 447.005 782.898 447.186 782.822C447.366 782.745 447.55 782.745 447.738 782.821C447.926 782.897 448.058 783.025 448.135 783.206C448.211 783.386 448.212 783.571 448.136 783.759C448.06 783.946 447.931 784.079 447.751 784.155C447.57 784.232 447.386 784.232 447.198 784.156C447.01 784.08 446.878 783.952 446.802 783.771ZM443.108 792.771L445.989 785.652L447.027 786.072L444.147 793.191L443.108 792.771Z" fill="#C4C5C5"/>
<path d="M451.596 796.195C450.545 796.439 449.56 796.269 448.641 795.687C447.722 795.105 447.144 794.284 446.906 793.224C446.683 792.161 446.872 791.156 447.471 790.21C448.07 789.264 448.896 788.669 449.946 788.426C451.012 788.179 452.004 788.347 452.923 788.929C453.842 789.512 454.413 790.334 454.636 791.398C454.874 792.457 454.693 793.46 454.093 794.406C453.494 795.352 452.661 795.949 451.596 796.195ZM447.984 793.017C448.145 793.8 448.549 794.397 449.198 794.808C449.847 795.22 450.552 795.332 451.314 795.146C452.091 794.956 452.702 794.51 453.147 793.807C453.593 793.104 453.732 792.365 453.566 791.591C453.415 790.813 453.015 790.219 452.367 789.808C451.718 789.397 451.005 789.286 450.228 789.476C449.466 789.662 448.862 790.107 448.417 790.809C447.977 791.503 447.833 792.239 447.984 793.017Z" fill="#C4C5C5"/>
<path d="M452.974 798.42L458.589 793.181L459.353 794L458.534 794.764C458.8 794.72 459.094 794.723 459.417 794.772C460.122 794.902 460.704 795.213 461.162 795.704C461.795 796.383 462.09 797.136 462.046 797.965C462.002 798.794 461.617 799.546 460.892 800.223L457.558 803.334L456.794 802.515L460.128 799.404C460.619 798.946 460.882 798.438 460.917 797.88C460.959 797.316 460.769 796.807 460.347 796.355C459.874 795.848 459.306 795.591 458.642 795.583C457.993 795.575 457.392 795.83 456.838 796.346L453.738 799.239L452.974 798.42Z" fill="#C4C5C5"/>
<path d="M460.893 808.877L461.803 808.374C461.529 808.342 461.254 808.263 460.976 808.136C460.357 807.832 459.882 807.382 459.552 806.785C459.175 806.103 459.056 805.426 459.195 804.751C459.348 804.081 459.682 803.604 460.195 803.32C461.334 802.69 462.372 802.969 463.31 804.157L465.163 806.515C465.657 806.241 465.971 805.86 466.103 805.372C466.25 804.889 466.187 804.4 465.913 803.905C465.645 803.42 465.226 803.048 464.656 802.79C464.365 802.683 464.109 802.605 463.887 802.557L464.169 801.579C464.5 801.627 464.832 801.73 465.163 801.888C465.898 802.225 466.451 802.73 466.823 803.402C467.247 804.167 467.35 804.938 467.135 805.716C466.919 806.494 466.442 807.087 465.705 807.495L461.435 809.857L460.893 808.877ZM463.903 807.212L464.323 806.979L462.625 804.902C462.01 804.144 461.381 803.944 460.737 804.3C460.439 804.465 460.254 804.726 460.183 805.083C460.126 805.443 460.219 805.843 460.462 806.281C460.818 806.925 461.313 807.334 461.946 807.508C462.578 807.682 463.231 807.584 463.903 807.212Z" fill="#C4C5C5"/>
<path d="M462.235 812.029L472.788 808.275L473.163 809.33L462.611 813.084L462.235 812.029Z" fill="#C4C5C5"/>
<path d="M468.625 817.891L475.424 817.75L475.449 818.949L468.65 819.091C467.659 819.111 466.844 819.448 466.207 820.102C465.57 820.755 465.261 821.562 465.281 822.522C465.301 823.481 465.643 824.274 466.307 824.901C466.971 825.527 467.798 825.83 468.79 825.809L475.589 825.668L475.614 826.868L468.815 827.009C467.535 827.036 466.444 826.616 465.54 825.749C464.647 824.893 464.188 823.825 464.161 822.545C464.135 821.265 464.549 820.174 465.405 819.27C466.272 818.377 467.346 817.918 468.625 817.891Z" fill="#C4C5C5"/>
<path d="M464.099 828.999L471.488 831.095L471.182 832.173L470.104 831.867C470.279 832.072 470.429 832.325 470.554 832.627C470.807 833.297 470.842 833.956 470.659 834.602C470.406 835.495 469.913 836.137 469.181 836.528C468.449 836.919 467.606 836.98 466.652 836.709L462.265 835.464L462.571 834.387L466.958 835.631C467.604 835.815 468.175 835.777 468.67 835.518C469.175 835.262 469.511 834.837 469.68 834.242C469.87 833.575 469.796 832.955 469.459 832.383C469.13 831.824 468.601 831.441 467.873 831.234L463.794 830.077L464.099 828.999Z" fill="#C4C5C5"/>
<path d="M469.939 841.918C470.125 841.855 470.309 841.869 470.49 841.958C470.672 842.048 470.795 842.185 470.858 842.371C470.921 842.557 470.908 842.74 470.818 842.922C470.729 843.104 470.591 843.226 470.405 843.29C470.22 843.353 470.036 843.339 469.854 843.25C469.672 843.16 469.55 843.023 469.487 842.837C469.424 842.651 469.437 842.468 469.526 842.286C469.616 842.104 469.754 841.982 469.939 841.918ZM461.234 837.577L468.123 840.971L467.628 841.975L460.739 838.582L461.234 837.577Z" fill="#C4C5C5"/>
<path d="M458.75 841.989L466.831 843.834L466.143 844.818L459.674 843.319L463.3 848.882L462.612 849.865L458.108 842.907L458.75 841.989Z" fill="#C4C5C5"/>
<path d="M453.202 851.249L452.185 851.202C452.148 850.861 452.169 850.48 452.249 850.061C452.441 849.164 452.848 848.431 453.471 847.863C454.251 847.152 455.183 846.828 456.267 846.893C457.344 846.965 458.256 847.411 459.004 848.23C459.751 849.05 460.112 849.999 460.085 851.077C460.058 852.155 459.67 853.036 458.922 853.719C458.142 854.431 457.251 854.753 456.25 854.684C455.241 854.623 454.363 854.182 453.615 853.363C453.579 853.323 453.498 853.21 453.37 853.023L453.286 852.883L457.907 848.689C457.408 848.206 456.793 847.951 456.062 847.925C455.33 847.914 454.7 848.15 454.172 848.632C453.691 849.07 453.382 849.641 453.244 850.344C453.19 850.697 453.176 850.998 453.202 851.249ZM458.554 849.399L454.712 852.903C455.243 853.358 455.836 853.589 456.493 853.597C457.148 853.619 457.725 853.404 458.221 852.951C458.717 852.498 458.993 851.929 459.047 851.245C459.101 850.56 458.936 849.945 458.554 849.399Z" fill="#C4C5C5"/>
<path d="M450.103 850.803L454.111 857.354L453.156 857.938L452.613 857.051C452.563 857.357 452.488 857.634 452.39 857.882C452.11 858.528 451.665 859.038 451.056 859.411L450.783 859.578L450.198 858.622L450.608 858.372C451.172 858.027 451.534 857.536 451.695 856.9C451.856 856.264 451.745 855.632 451.361 855.004L449.148 851.387L450.103 850.803Z" fill="#C4C5C5"/>
<path d="M446.829 854.233L446.385 855.273C446.167 855.131 445.939 855.021 445.701 854.944C445.176 854.753 444.646 854.765 444.112 854.979C443.607 855.182 443.265 855.446 443.085 855.771C442.909 856.106 442.891 856.446 443.03 856.793C443.149 857.09 443.378 857.274 443.717 857.345C444.059 857.425 444.441 857.445 444.861 857.403C445.281 857.36 445.704 857.328 446.132 857.306C446.564 857.293 446.971 857.377 447.354 857.557C447.736 857.737 448.019 858.054 448.202 858.509C448.416 859.044 448.38 859.599 448.094 860.173C447.811 860.758 447.324 861.19 446.631 861.468C446.047 861.702 445.412 861.767 444.727 861.663C444.433 861.62 444.172 861.541 443.942 861.427L444.386 860.386C444.565 860.487 444.743 860.559 444.921 860.602C445.417 860.691 445.857 860.658 446.243 860.503C446.639 860.344 446.919 860.111 447.083 859.803C447.247 859.496 447.274 859.204 447.162 858.927C447.047 858.64 446.82 858.461 446.481 858.39C446.146 858.329 445.769 858.32 445.349 858.362C444.933 858.414 444.509 858.446 444.078 858.458C443.65 858.481 443.241 858.392 442.85 858.193C442.464 858.003 442.177 857.675 441.99 857.21C441.744 856.597 441.775 855.986 442.083 855.38C442.385 854.787 442.932 854.332 443.724 854.014C444.467 853.716 445.208 853.66 445.949 853.845C446.278 853.92 446.572 854.049 446.829 854.233Z" fill="#C4C5C5"/>
<path d="M442.344 864.897C442.512 864.999 442.62 865.148 442.669 865.344C442.718 865.541 442.691 865.723 442.59 865.891C442.489 866.059 442.34 866.168 442.143 866.217C441.947 866.265 441.764 866.239 441.596 866.138C441.428 866.037 441.32 865.888 441.271 865.691C441.222 865.494 441.249 865.312 441.35 865.144C441.451 864.976 441.6 864.868 441.797 864.819C441.993 864.77 442.176 864.796 442.344 864.897ZM440.048 855.444L441.897 862.898L440.81 863.168L438.961 855.714L440.048 855.444Z" fill="#C4C5C5"/>
<path d="M436.466 858.333L436.985 862.863L438.416 862.699L438.534 863.732L437.66 863.832C437.236 863.881 437.054 864.17 437.115 864.7L437.316 866.449L436.282 866.567L435.991 864.024L434.322 864.215L434.203 863.182L435.872 862.99L435.353 858.46C435.262 857.665 434.872 857.307 434.183 857.386C433.918 857.417 433.679 857.482 433.465 857.581C433.456 857.593 433.415 857.614 433.343 857.644C433.262 857.685 433.207 857.718 433.178 857.743L433.059 856.71C433.088 856.685 433.138 856.652 433.209 856.612C433.281 856.582 433.332 856.561 433.362 856.546C433.576 856.447 433.827 856.38 434.113 856.348C434.78 856.271 435.321 856.402 435.736 856.741C436.14 857.082 436.383 857.612 436.466 858.333Z" fill="#C4C5C5"/>
<path d="M432.787 853.575L432.719 854.613C432.626 854.564 432.542 854.532 432.469 854.516C432.291 854.451 432.112 854.412 431.931 854.4C431.271 854.357 430.766 854.724 430.415 855.503L429.942 856.594L432.549 864.463L431.352 864.384L429.288 857.994L426.403 864.057L425.205 863.978L429.297 855.429C429.67 854.641 430.054 854.089 430.449 853.773C430.833 853.457 431.297 853.316 431.84 853.352C432.085 853.368 432.312 853.41 432.521 853.477C432.595 853.493 432.684 853.525 432.787 853.575Z" fill="#C4C5C5"/>
<circle cx="461.809" cy="816" r="46.5" fill="#787373" fill-opacity="0.3"/>
<circle cx="577.809" cy="816" r="46.5" fill="#0000FF"/>
</g>
<defs>
<filter id="filter0_f_154_268" x="355.309" y="-89.5" width="824" height="820" filterUnits="userSpaceOnUse" color-interpolation-filters="sRGB">
<feFlood flood-opacity="0" result="BackgroundImageFix"/>
<feBlend mode="normal" in="SourceGraphic" in2="BackgroundImageFix" result="shape"/>
<feGaussianBlur stdDeviation="150" result="effect1_foregroundBlur_154_268"/>
</filter>
<filter id="filter1_f_154_268" x="914.818" y="190.664" width="922.873" height="915.782" filterUnits="userSpaceOnUse" color-interpolation-filters="sRGB">
<feFlood flood-opacity="0" result="BackgroundImageFix"/>
<feBlend mode="normal" in="SourceGraphic" in2="BackgroundImageFix" result="shape"/>
<feGaussianBlur stdDeviation="150" result="effect1_foregroundBlur_154_268"/>
</filter>
<clipPath id="clip0_154_268">
<rect width="1920" height="1080" fill="white"/>
</clipPath>
</defs>
</svg>
