<svg width="300" height="86" viewBox="0 0 300 86" fill="none" xmlns="http://www.w3.org/2000/svg">
<mask id="path-1-inside-1_172_343" fill="white">
<path fill-rule="evenodd" clip-rule="evenodd" d="M0 46H300H0Z"/>
</mask>
<path d="M0 47H300V45H0V47Z" fill="#787373" fill-opacity="0.3" mask="url(#path-1-inside-1_172_343)"/>
<path d="M110.316 29.9727L100 25.6122L100.467 24.5069L110.783 28.8674L110.316 29.9727Z" fill="#303030"/>
<path d="M111.569 26.7446L105.194 22.4627L105.818 21.5329L106.748 22.1574C106.645 21.9085 106.581 21.6213 106.556 21.2958C106.522 20.5798 106.693 19.9428 107.068 19.385C107.585 18.6146 108.253 18.1568 109.07 18.0117C109.887 17.8666 110.707 18.0706 111.53 18.6236L115.316 21.1661L114.691 22.0958L110.906 19.5534C110.348 19.1787 109.794 19.0378 109.243 19.1306C108.684 19.2174 108.232 19.5176 107.887 20.0312C107.5 20.6068 107.378 21.2188 107.521 21.8671C107.661 22.5007 108.045 23.0286 108.674 23.4509L112.194 25.8149L111.569 26.7446Z" fill="#303030"/>
<path d="M115.754 17.7286L112.57 14.4642L111.539 15.4697L110.813 14.7252L111.443 14.1107C111.748 13.8128 111.715 13.4729 111.342 13.0912L110.114 11.8312L110.858 11.1051L112.646 12.9377L113.848 11.7646L114.574 12.5091L113.372 13.6822L116.556 16.9465C117.114 17.5192 117.642 17.5635 118.138 17.0794C118.329 16.8932 118.479 16.6952 118.587 16.4853C118.587 16.4703 118.606 16.429 118.645 16.3616C118.684 16.2791 118.707 16.2191 118.715 16.1814L119.441 16.9259C119.433 16.9636 119.414 17.0199 119.382 17.0949C119.344 17.1623 119.317 17.211 119.301 17.241C119.193 17.4509 119.036 17.6563 118.83 17.8574C118.349 18.3267 117.841 18.5541 117.305 18.5399C116.777 18.5183 116.26 18.2478 115.754 17.7286Z" fill="#303030"/>
<path d="M123.905 11.2831L124.901 11.4926C124.883 11.8356 124.801 12.2075 124.655 12.6085C124.321 13.4632 123.801 14.1208 123.096 14.5813C122.211 15.1584 121.239 15.3279 120.179 15.0896C119.129 14.8456 118.3 14.2591 117.694 13.33C117.087 12.401 116.884 11.4064 117.084 10.3463C117.284 9.28612 117.808 8.47915 118.657 7.92536C119.541 7.34825 120.472 7.17396 121.449 7.40249C122.435 7.62519 123.231 8.20105 123.837 9.13006C123.866 9.17473 123.929 9.2996 124.024 9.50468L124.085 9.65616L118.85 13.0529C119.265 13.6103 119.831 13.9605 120.549 14.1036C121.269 14.232 121.929 14.1009 122.527 13.7103C123.072 13.3548 123.469 12.8409 123.718 12.1688C123.828 11.8296 123.89 11.5344 123.905 11.2831ZM118.326 12.249L122.68 9.40717C122.23 8.87316 121.681 8.54973 121.035 8.43687C120.391 8.30925 119.788 8.42907 119.225 8.79632C118.662 9.16357 118.299 9.6807 118.136 10.3477C117.972 11.0148 118.036 11.6485 118.326 12.249Z" fill="#303030"/>
<path d="M126.978 12.1927L124.065 5.08675L125.101 4.66189L125.495 5.62416C125.594 5.33016 125.712 5.06867 125.848 4.8397C126.227 4.24617 126.748 3.81385 127.409 3.54275L127.705 3.42137L128.13 4.45766L127.686 4.63974C127.074 4.8906 126.638 5.31725 126.378 5.91967C126.117 6.52209 126.127 7.16379 126.406 7.84478L128.014 11.7679L126.978 12.1927Z" fill="#303030"/>
<path d="M131.41 10.3188L130.002 2.769L131.103 2.56368L131.309 3.6647C131.414 3.41712 131.575 3.17025 131.789 2.92409C132.277 2.39906 132.851 2.07495 133.512 1.95176C134.424 1.78164 135.218 1.93739 135.894 2.41901C136.57 2.90063 136.999 3.62903 137.18 4.60422L138.016 9.08695L136.915 9.29226L136.079 4.80954C135.956 4.14893 135.669 3.65459 135.217 3.32652C134.763 2.98796 134.232 2.87539 133.624 2.9888C132.942 3.1159 132.42 3.45743 132.057 4.01337C131.703 4.55688 131.595 5.20088 131.734 5.94538L132.511 10.1135L131.41 10.3188Z" fill="#303030"/>
<path d="M144.48 9.24457L144.545 8.20658C144.371 8.42021 144.157 8.60989 143.9 8.77563C143.312 9.13442 142.677 9.2926 141.995 9.25019C141.218 9.20182 140.583 8.93783 140.089 8.45823C139.606 7.96864 139.383 7.43108 139.42 6.84554C139.5 5.54672 140.294 4.82127 141.799 4.66918L144.784 4.374C144.819 3.80975 144.666 3.34071 144.326 2.96686C143.997 2.58302 143.551 2.37355 142.987 2.33843C142.433 2.30397 141.894 2.45747 141.371 2.79894C141.124 2.98664 140.921 3.16102 140.761 3.32208L140.087 2.55874C140.306 2.30518 140.571 2.08121 140.883 1.88685C141.562 1.44819 142.285 1.25272 143.051 1.30044C143.924 1.35477 144.63 1.68195 145.17 2.28198C145.71 2.882 145.954 3.60254 145.901 4.44357L145.598 9.31415L144.48 9.24457ZM144.694 5.81121L144.724 5.33214L142.059 5.64721C141.09 5.75791 140.583 6.18054 140.537 6.91512C140.516 7.2558 140.637 7.55186 140.899 7.8033C141.173 8.04476 141.559 8.18106 142.06 8.2122C142.794 8.25793 143.405 8.06082 143.892 7.62089C144.379 7.18096 144.646 6.57773 144.694 5.81121Z" fill="#303030"/>
<path d="M148.802 7.87952L149.945 3.46505L148.551 3.10416L148.811 2.09735L149.663 2.3179C150.076 2.42483 150.35 2.22014 150.483 1.70383L150.924 0L151.931 0.260649L151.289 2.73895L152.916 3.15999L152.655 4.1668L151.029 3.74575L149.886 8.16022C149.685 8.93469 149.921 9.4088 150.592 9.58257C150.85 9.6494 151.097 9.67475 151.333 9.6586C151.346 9.65095 151.391 9.64615 151.469 9.64422C151.559 9.63462 151.623 9.62351 151.659 9.61088L151.398 10.6177C151.362 10.6303 151.304 10.6428 151.223 10.655C151.146 10.657 151.09 10.6591 151.056 10.6614C150.821 10.6775 150.564 10.6495 150.285 10.5773C149.634 10.4089 149.177 10.0921 148.911 9.62675C148.656 9.16411 148.62 8.5817 148.802 7.87952Z" fill="#303030"/>
<path d="M156.493 2.27106C156.416 2.09051 156.416 1.90629 156.492 1.71842C156.568 1.53055 156.696 1.39835 156.877 1.32182C157.057 1.24529 157.242 1.24503 157.43 1.32105C157.617 1.39706 157.75 1.52535 157.826 1.7059C157.903 1.88645 157.903 2.07067 157.827 2.25854C157.751 2.44641 157.623 2.57861 157.442 2.65514C157.262 2.73167 157.077 2.73193 156.889 2.65592C156.702 2.5799 156.569 2.45161 156.493 2.27106ZM152.8 11.2708L155.68 4.15154L156.718 4.57163L153.838 11.6909L152.8 11.2708Z" fill="#303030"/>
<path d="M161.287 14.6954C160.236 14.9388 159.252 14.7693 158.332 14.1869C157.413 13.6046 156.835 12.7835 156.597 11.7237C156.375 10.6606 156.563 9.65605 157.162 8.70999C157.762 7.76393 158.587 7.16922 159.638 6.92586C160.703 6.67919 161.695 6.84704 162.614 7.42939C163.534 8.01174 164.104 8.83447 164.327 9.89756C164.565 10.9574 164.384 11.9603 163.785 12.9063C163.185 13.8524 162.353 14.4488 161.287 14.6954ZM157.676 11.5167C157.836 12.3001 158.24 12.8974 158.889 13.3085C159.538 13.7195 160.243 13.8319 161.005 13.6455C161.782 13.4559 162.393 13.0097 162.839 12.3069C163.284 11.6041 163.424 10.8655 163.258 10.0911C163.107 9.31334 162.707 8.71894 162.058 8.30787C161.409 7.8968 160.696 7.78609 159.919 7.97575C159.157 8.16211 158.554 8.60668 158.108 9.30947C157.669 10.0032 157.525 10.739 157.676 11.5167Z" fill="#303030"/>
<path d="M162.665 16.9198L168.281 11.6809L169.045 12.4998L168.226 13.2639C168.491 13.2202 168.786 13.2229 169.108 13.2719C169.813 13.402 170.395 13.7127 170.853 14.2041C171.486 14.8827 171.781 15.6363 171.737 16.4649C171.693 17.2936 171.309 18.0462 170.583 18.7229L167.249 21.8336L166.485 21.0146L169.819 17.904C170.311 17.4456 170.574 16.9377 170.608 16.3804C170.65 15.8159 170.46 15.3074 170.038 14.855C169.565 14.3481 168.997 14.0906 168.333 14.0827C167.684 14.0752 167.083 14.3298 166.529 14.8464L163.429 17.7388L162.665 16.9198Z" fill="#303030"/>
<path d="M170.584 27.3772L171.494 26.8737C171.22 26.8422 170.945 26.7629 170.668 26.6361C170.049 26.3325 169.574 25.882 169.243 25.2847C168.866 24.6034 168.747 23.9256 168.886 23.2514C169.04 22.5813 169.373 22.1043 169.886 21.8202C171.025 21.1902 172.063 21.4692 173.001 22.657L174.854 25.0147C175.349 24.741 175.662 24.3602 175.795 23.8725C175.941 23.3889 175.878 22.8998 175.604 22.4051C175.336 21.9198 174.917 21.5482 174.347 21.2903C174.057 21.183 173.8 21.1054 173.579 21.0574L173.86 20.0788C174.192 20.127 174.523 20.2302 174.854 20.3882C175.589 20.7252 176.143 21.2296 176.514 21.9016C176.938 22.667 177.042 23.4385 176.826 24.2162C176.61 24.9939 176.133 25.5867 175.396 25.9946L171.126 28.3572L170.584 27.3772ZM173.594 25.7118L174.014 25.4794L172.316 23.4018C171.702 22.6444 171.073 22.4439 170.429 22.8002C170.13 22.9655 169.945 23.2262 169.874 23.5825C169.817 23.943 169.911 24.3425 170.153 24.7812C170.51 25.4252 171.004 25.8342 171.637 26.0084C172.27 26.1825 172.922 26.0836 173.594 25.7118Z" fill="#303030"/>
<path d="M171.927 30.5289L182.479 26.7752L182.854 27.8304L172.302 31.5842L171.927 30.5289Z" fill="#303030"/>
<path d="M178.317 36.391L185.115 36.2497L185.14 37.4494L178.342 37.5908C177.35 37.6114 176.535 37.9484 175.898 38.6018C175.261 39.2552 174.952 40.0618 174.972 41.0216C174.992 41.9814 175.334 42.7744 175.998 43.4008C176.662 44.0271 177.49 44.33 178.481 44.3093L185.28 44.168L185.305 45.3677L178.506 45.5091C177.227 45.5357 176.135 45.1156 175.231 44.2489C174.339 43.3926 173.879 42.3246 173.853 41.0449C173.826 39.7651 174.241 38.6736 175.097 37.7703C175.964 36.8774 177.037 36.4177 178.317 36.391Z" fill="#303030"/>
<path d="M173.791 47.4993L181.179 49.5955L180.873 50.673L179.796 50.3673C179.971 50.5721 180.12 50.8253 180.246 51.1269C180.499 51.7974 180.534 52.456 180.35 53.1025C180.097 53.9952 179.604 54.6372 178.873 55.0283C178.141 55.4194 177.298 55.4795 176.343 55.2088L171.956 53.9642L172.262 52.8867L176.649 54.1313C177.295 54.3147 177.866 54.277 178.361 54.0182C178.866 53.7624 179.203 53.3368 179.372 52.7416C179.561 52.0746 179.487 51.455 179.151 50.8827C178.821 50.3237 178.292 49.9408 177.564 49.7341L173.485 48.5768L173.791 47.4993Z" fill="#303030"/>
<path d="M179.631 60.4185C179.816 60.3554 180 60.3686 180.182 60.4581C180.364 60.5477 180.486 60.6853 180.549 60.8709C180.612 61.0566 180.599 61.2403 180.51 61.4221C180.42 61.604 180.282 61.7264 180.097 61.7896C179.911 61.8527 179.727 61.8395 179.546 61.7499C179.364 61.6604 179.241 61.5228 179.178 61.3371C179.115 61.1514 179.128 60.9677 179.218 60.7859C179.307 60.6041 179.445 60.4816 179.631 60.4185ZM170.925 56.0772L177.815 59.4705L177.32 60.4753L170.43 57.082L170.925 56.0772Z" fill="#303030"/>
<path d="M168.441 60.4888L176.522 62.3343L175.835 63.3176L169.365 61.8189L172.992 67.3819L172.304 68.3652L167.799 61.4065L168.441 60.4888Z" fill="#303030"/>
<path d="M162.894 69.7486L161.877 69.702C161.839 69.3606 161.861 68.9802 161.94 68.5611C162.132 67.6638 162.54 66.9312 163.162 66.3633C163.942 65.6515 164.874 65.328 165.959 65.3928C167.035 65.4648 167.947 65.9105 168.695 66.73C169.443 67.5495 169.803 68.4985 169.776 69.577C169.749 70.6555 169.362 71.5362 168.613 72.2192C167.833 72.9309 166.943 73.2526 165.941 73.184C164.933 73.1227 164.054 72.6823 163.307 71.8628C163.271 71.8234 163.189 71.7102 163.062 71.5231L162.977 71.3834L167.598 67.1894C167.099 66.706 166.484 66.4513 165.753 66.4253C165.021 66.4145 164.391 66.6499 163.863 67.1315C163.382 67.5701 163.073 68.1411 162.935 68.8445C162.881 69.1969 162.867 69.4983 162.894 69.7486ZM168.245 67.8986L164.403 71.4034C164.934 71.8581 165.527 72.0891 166.184 72.0966C166.84 72.1191 167.416 71.9039 167.912 71.4509C168.409 70.998 168.684 70.4292 168.738 69.7446C168.792 69.06 168.628 68.4447 168.245 67.8986Z" fill="#303030"/>
<path d="M159.795 69.3026L163.802 75.8539L162.847 76.4383L162.304 75.5512C162.254 75.8571 162.179 76.134 162.081 76.3818C161.801 77.0282 161.356 77.5378 160.747 77.9108L160.474 78.0778L159.889 77.1224L160.299 76.8719C160.863 76.5268 161.225 76.0361 161.386 75.3999C161.547 74.7637 161.436 74.1317 161.052 73.5039L158.839 69.8871L159.795 69.3026Z" fill="#303030"/>
<path d="M156.521 72.7328L156.076 73.7733C155.858 73.631 155.63 73.5213 155.393 73.4444C154.867 73.253 154.338 73.2645 153.803 73.4792C153.298 73.6818 152.956 73.9457 152.776 74.2708C152.6 74.6058 152.582 74.9465 152.721 75.2929C152.84 75.5899 153.069 75.7738 153.408 75.8447C153.751 75.9255 154.132 75.9448 154.552 75.9026C154.972 75.8605 155.396 75.8282 155.823 75.8059C156.255 75.7934 156.662 75.8771 157.045 76.0569C157.427 76.2366 157.71 76.5541 157.893 77.0095C158.108 77.544 158.072 78.0987 157.785 78.6735C157.503 79.2581 157.015 79.6896 156.322 79.9678C155.738 80.2023 155.103 80.2675 154.418 80.1634C154.125 80.1202 153.863 80.0413 153.633 79.9267L154.077 78.8863C154.256 78.987 154.434 79.0591 154.613 79.1024C155.108 79.1909 155.549 79.1577 155.935 79.0027C156.331 78.8437 156.611 78.6106 156.775 78.3034C156.939 77.9961 156.965 77.704 156.854 77.4268C156.738 77.1397 156.511 76.9608 156.173 76.8899C155.838 76.8289 155.46 76.8195 155.04 76.8617C154.625 76.9137 154.201 76.9459 153.769 76.9584C153.341 76.9807 152.932 76.8921 152.542 76.6926C152.155 76.5029 151.868 76.1755 151.682 75.7103C151.435 75.0965 151.466 74.4864 151.774 73.8799C152.077 73.2873 152.624 72.832 153.416 72.514C154.158 72.216 154.9 72.1595 155.641 72.3448C155.97 72.4196 156.263 72.549 156.521 72.7328Z" fill="#303030"/>
<path d="M152.035 83.3975C152.203 83.4987 152.311 83.6477 152.36 83.8444C152.409 84.0411 152.383 84.2234 152.281 84.3914C152.18 84.5593 152.031 84.6677 151.835 84.7165C151.638 84.7653 151.456 84.7391 151.288 84.6379C151.12 84.5367 151.011 84.3878 150.962 84.1911C150.914 83.9944 150.94 83.812 151.041 83.644C151.142 83.4761 151.291 83.3677 151.488 83.3189C151.685 83.2701 151.867 83.2963 152.035 83.3975ZM149.739 73.9441L151.588 81.3982L150.501 81.6678L148.652 74.2138L149.739 73.9441Z" fill="#303030"/>
<path d="M146.157 76.8326L146.676 81.3629L148.107 81.199L148.225 82.2322L147.351 82.3324C146.927 82.381 146.746 82.6702 146.806 83.2001L147.007 84.9486L145.974 85.067L145.682 82.5237L144.013 82.7149L143.895 81.6817L145.564 81.4904L145.045 76.9601C144.953 76.1653 144.564 75.8073 143.875 75.8863C143.61 75.9166 143.37 75.9817 143.156 76.0813C143.147 76.0931 143.106 76.1139 143.035 76.1436C142.953 76.1851 142.898 76.2183 142.869 76.2431L142.75 75.2099C142.78 75.185 142.83 75.1525 142.9 75.1122C142.972 75.0825 143.023 75.0605 143.054 75.0463C143.268 74.9466 143.518 74.8804 143.804 74.8476C144.472 74.7711 145.013 74.9023 145.427 75.2413C145.831 75.5815 146.075 76.1119 146.157 76.8326Z" fill="#303030"/>
<path d="M142.479 72.0749L142.41 73.1127C142.317 73.0638 142.234 73.0315 142.16 73.016C141.982 72.9508 141.803 72.9122 141.622 72.9003C140.962 72.8567 140.457 73.2242 140.106 74.0028L139.633 75.094L142.24 82.9629L141.043 82.8838L138.98 76.4939L136.094 82.5569L134.896 82.4779L138.989 73.929C139.361 73.1412 139.745 72.5893 140.14 72.2733C140.525 71.9566 140.988 71.8162 141.531 71.852C141.776 71.8682 142.003 71.9099 142.212 71.9772C142.286 71.9927 142.375 72.0253 142.479 72.0749Z" fill="#303030"/>
</svg>
