<svg width="857" height="228" viewBox="0 0 857 228" fill="none" xmlns="http://www.w3.org/2000/svg">
<rect y="90" width="405" height="54" rx="27" fill="#FF9700"/>
<path d="M297.148 209V208.016H300.838C302.205 206.813 302.888 204.818 302.888 202.03V172.182C302.888 171.635 302.751 171.116 302.478 170.624C302.259 170.132 301.931 169.749 301.494 169.476H297.148V168.41H311.252L324.454 197.766L336.754 168.41H351.186V169.476H346.84C346.403 169.749 346.047 170.132 345.774 170.624C345.555 171.116 345.446 171.635 345.446 172.182V205.228C345.446 206.431 345.911 207.36 346.84 208.016H351.186V209H330.44V208.016H334.704C335.633 207.415 336.098 206.485 336.098 205.228V172.756L321.01 209H320.026L303.872 172.674V202.03C303.872 204.818 304.555 206.813 305.922 208.016H309.776V209H297.148ZM393.131 193.912C391.71 199.215 389.414 203.233 386.243 205.966C383.072 208.645 379.136 209.984 374.435 209.984C370.608 209.984 367.192 209.137 364.185 207.442C361.178 205.747 358.828 203.342 357.133 200.226C355.438 197.055 354.591 193.42 354.591 189.32C354.591 185.001 355.411 181.202 357.051 177.922C358.691 174.587 360.987 172.018 363.939 170.214C366.946 168.355 370.39 167.426 374.271 167.426C379.847 167.426 384.275 168.929 387.555 171.936C390.89 174.943 392.557 179.015 392.557 184.154H365.087V185.63C365.087 191.971 366.317 196.946 368.777 200.554C371.292 204.162 374.681 205.966 378.945 205.966C382.116 205.966 384.822 204.927 387.063 202.85C389.359 200.773 391.054 197.711 392.147 193.666L393.131 193.912ZM374.271 168.41C371.592 168.41 369.46 169.695 367.875 172.264C366.344 174.779 365.442 178.387 365.169 183.088H381.979C382.034 178.332 381.405 174.697 380.093 172.182C378.781 169.667 376.84 168.41 374.271 168.41ZM437.052 169.476C436.615 169.749 436.26 170.132 435.986 170.624C435.768 171.116 435.658 171.635 435.658 172.182V205.228C435.658 206.431 436.123 207.36 437.052 208.016H441.398V209H420.98V208.016H424.916C425.791 207.36 426.228 206.431 426.228 205.228V188.336H410.812V205.228C410.812 206.431 411.277 207.36 412.206 208.016H416.06V209H395.724V208.016H400.07C401 207.36 401.464 206.431 401.464 205.228V172.182C401.464 171.635 401.328 171.116 401.054 170.624C400.836 170.132 400.508 169.749 400.07 169.476H395.724V168.41H416.06V169.476H412.206C411.769 169.749 411.414 170.132 411.14 170.624C410.922 171.116 410.812 171.635 410.812 172.182V187.27H426.228V172.182C426.228 170.925 425.791 170.023 424.916 169.476H420.98V168.41H441.398V169.476H437.052ZM450.989 209V208.016H456.647C457.03 207.797 457.33 207.442 457.549 206.95C457.822 206.458 457.959 205.911 457.959 205.31V169.476H452.301L444.921 181.776L444.101 181.612C444.265 178.988 444.347 176.473 444.347 174.068L444.265 168.41H481.165C481.056 171.034 481.001 173.002 481.001 174.314C481.001 176.829 481.11 179.261 481.329 181.612L480.509 181.776L473.129 169.476H467.389V205.31C467.389 205.911 467.498 206.458 467.717 206.95C467.99 207.442 468.346 207.797 468.783 208.016H474.359V209H450.989ZM505.062 209.984C500.962 209.984 497.354 209.137 494.238 207.442C491.122 205.693 488.689 203.233 486.94 200.062C485.245 196.891 484.398 193.174 484.398 188.91C484.398 184.591 485.272 180.819 487.022 177.594C488.771 174.369 491.231 171.881 494.402 170.132C497.572 168.328 501.235 167.426 505.39 167.426C509.49 167.426 513.098 168.301 516.214 170.05C519.33 171.799 521.735 174.259 523.43 177.43C525.179 180.601 526.054 184.318 526.054 188.582C526.054 192.846 525.179 196.618 523.43 199.898C521.68 203.123 519.22 205.611 516.05 207.36C512.879 209.109 509.216 209.984 505.062 209.984ZM505.226 208.918C508.67 208.918 511.239 207.278 512.934 203.998C514.683 200.718 515.558 195.716 515.558 188.992C515.558 182.104 514.683 176.965 512.934 173.576C511.239 170.187 508.67 168.492 505.226 168.492C501.782 168.492 499.185 170.159 497.436 173.494C495.741 176.774 494.894 181.776 494.894 188.5C494.894 195.388 495.741 200.527 497.436 203.916C499.185 207.251 501.782 208.918 505.226 208.918ZM557.188 167.426C560.359 167.426 563.174 168.273 565.634 169.968C568.094 171.663 570.007 174.041 571.374 177.102C572.741 180.109 573.424 183.553 573.424 187.434C573.424 191.862 572.549 195.771 570.8 199.16C569.105 202.549 566.645 205.201 563.42 207.114C560.249 209.027 556.532 209.984 552.268 209.984C548.824 209.984 545.845 209.273 543.33 207.852V224.17C543.33 224.771 543.439 225.318 543.658 225.81C543.931 226.302 544.287 226.657 544.724 226.876H550.3V227.86H528.078V226.876H532.424C533.353 226.22 533.818 225.291 533.818 224.088V169.558L527.668 169.476V168.41C531.659 168.41 534.775 168.355 537.016 168.246C539.257 168.137 541.362 167.918 543.33 167.59V174.478C546.665 171.69 549.289 169.831 551.202 168.902C553.115 167.918 555.111 167.426 557.188 167.426ZM552.514 208.918C555.794 208.918 558.336 207.223 560.14 203.834C561.999 200.39 562.928 195.607 562.928 189.484C562.928 183.963 561.971 179.671 560.058 176.61C558.199 173.494 555.439 171.936 551.776 171.936C550.409 171.936 549.125 172.209 547.922 172.756C546.774 173.248 545.243 174.232 543.33 175.708V194.896C543.33 199.379 544.123 202.85 545.708 205.31C547.348 207.715 549.617 208.918 552.514 208.918ZM577.261 209V208.016H581.607C582.537 207.36 583.001 206.431 583.001 205.228V172.182C583.001 171.635 582.865 171.116 582.591 170.624C582.373 170.132 582.045 169.749 581.607 169.476H577.261V168.41H597.515V169.476H593.661C592.787 170.023 592.349 170.925 592.349 172.182V203.506L610.225 168.41H623.837V169.476H619.491C619.054 169.749 618.699 170.132 618.425 170.624C618.207 171.116 618.097 171.635 618.097 172.182V205.228C618.097 206.431 618.562 207.36 619.491 208.016H623.837V209H603.501V208.016H607.355C608.285 207.36 608.749 206.431 608.749 205.228V173.986L590.873 209H577.261ZM667.437 169.476C667 169.749 666.644 170.132 666.371 170.624C666.152 171.116 666.043 171.635 666.043 172.182V205.228C666.043 206.431 666.508 207.36 667.437 208.016H671.783V209H651.365V208.016H655.301C656.176 207.36 656.613 206.431 656.613 205.228V188.336H641.197V205.228C641.197 206.431 641.662 207.36 642.591 208.016H646.445V209H626.109V208.016H630.455C631.384 207.36 631.849 206.431 631.849 205.228V172.182C631.849 171.635 631.712 171.116 631.439 170.624C631.22 170.132 630.892 169.749 630.455 169.476H626.109V168.41H646.445V169.476H642.591C642.154 169.749 641.798 170.132 641.525 170.624C641.306 171.116 641.197 171.635 641.197 172.182V187.27H656.613V172.182C656.613 170.925 656.176 170.023 655.301 169.476H651.365V168.41H671.783V169.476H667.437ZM674.076 209V208.016H678.422C679.351 207.36 679.816 206.431 679.816 205.228V172.182C679.816 171.635 679.679 171.116 679.406 170.624C679.187 170.132 678.859 169.749 678.422 169.476H674.076V168.41H706.712C706.602 172.674 706.794 177.075 707.286 181.612L706.466 181.776L698.676 169.476H689.164V205.31C689.164 205.857 689.273 206.376 689.492 206.868C689.765 207.36 690.12 207.743 690.558 208.016H696.216V209H674.076ZM730.882 209.984C726.782 209.984 723.174 209.137 720.058 207.442C716.942 205.693 714.509 203.233 712.76 200.062C711.065 196.891 710.218 193.174 710.218 188.91C710.218 184.591 711.093 180.819 712.842 177.594C714.591 174.369 717.051 171.881 720.222 170.132C723.393 168.328 727.055 167.426 731.21 167.426C735.31 167.426 738.918 168.301 742.034 170.05C745.15 171.799 747.555 174.259 749.25 177.43C750.999 180.601 751.874 184.318 751.874 188.582C751.874 192.846 750.999 196.618 749.25 199.898C747.501 203.123 745.041 205.611 741.87 207.36C738.699 209.109 735.037 209.984 730.882 209.984ZM731.046 208.918C734.49 208.918 737.059 207.278 738.754 203.998C740.503 200.718 741.378 195.716 741.378 188.992C741.378 182.104 740.503 176.965 738.754 173.576C737.059 170.187 734.49 168.492 731.046 168.492C727.602 168.492 725.005 170.159 723.256 173.494C721.561 176.774 720.714 181.776 720.714 188.5C720.714 195.388 721.561 200.527 723.256 203.916C725.005 207.251 727.602 208.918 731.046 208.918ZM755.355 209V208.016H759.045C760.412 206.813 761.095 204.818 761.095 202.03V172.182C761.095 171.635 760.958 171.116 760.685 170.624C760.466 170.132 760.138 169.749 759.701 169.476H755.355V168.41H769.459L782.661 197.766L794.961 168.41H809.393V169.476H805.047C804.61 169.749 804.254 170.132 803.981 170.624C803.762 171.116 803.653 171.635 803.653 172.182V205.228C803.653 206.431 804.118 207.36 805.047 208.016H809.393V209H788.647V208.016H792.911C793.84 207.415 794.305 206.485 794.305 205.228V172.756L779.217 209H778.233L762.079 172.674V202.03C762.079 204.818 762.762 206.813 764.129 208.016H767.983V209H755.355ZM831.084 182.268C834.856 179.753 837.644 176.965 839.448 173.904C841.307 170.843 842.236 167.399 842.236 163.572C842.236 159.909 841.416 157.012 839.776 154.88C838.191 152.748 836.004 151.682 833.216 151.682C830.045 151.682 827.531 153.076 825.672 155.864C823.813 158.652 822.829 162.506 822.72 167.426L813.044 166.442C813.645 161.303 815.668 157.395 819.112 154.716C822.556 151.983 827.339 150.616 833.462 150.616C839.475 150.616 844.204 151.846 847.648 154.306C851.147 156.711 852.896 160.019 852.896 164.228C852.896 168.164 851.365 171.635 848.304 174.642C845.243 177.594 840.377 180.382 833.708 183.006L832.888 193.174H831.986L831.084 182.268ZM832.478 209.574C830.783 209.574 829.389 209.027 828.296 207.934C827.203 206.786 826.656 205.392 826.656 203.752C826.656 202.112 827.203 200.745 828.296 199.652C829.389 198.504 830.783 197.93 832.478 197.93C834.118 197.93 835.485 198.504 836.578 199.652C837.726 200.745 838.3 202.112 838.3 203.752C838.3 205.392 837.726 206.786 836.578 207.934C835.485 209.027 834.118 209.574 832.478 209.574Z" fill="#101010"/>
<path d="M463.148 137V136.016H467.494C468.423 135.36 468.888 134.431 468.888 133.228V100.182C468.888 99.6353 468.751 99.116 468.478 98.624C468.259 98.132 467.931 97.7493 467.494 97.476H463.148V96.41H483.402V97.476H479.548C478.673 98.0227 478.236 98.9247 478.236 100.182V131.506L496.112 96.41H509.724V97.476H505.378C504.941 97.7493 504.585 98.132 504.312 98.624C504.093 99.116 503.984 99.6353 503.984 100.182V133.228C503.984 134.431 504.449 135.36 505.378 136.016H509.724V137H489.388V136.016H493.242C494.171 135.36 494.636 134.431 494.636 133.228V101.986L476.76 137H463.148ZM514.456 137.738C514.018 137.738 513.417 137.683 512.652 137.574L512.242 128.39C513.226 128.499 513.964 128.554 514.456 128.554C516.752 128.554 518.583 127.816 519.95 126.34C521.371 124.864 522.437 122.459 523.148 119.124C523.913 115.735 524.46 111.143 524.788 105.348C524.897 103.435 524.651 101.767 524.05 100.346C523.503 98.87 522.738 97.9133 521.754 97.476H516.998V96.41H553.324V97.476H548.978C548.103 98.0227 547.666 98.9247 547.666 100.182V133.228C547.666 134.431 548.103 135.36 548.978 136.016H553.324V137H532.496V136.016H536.842C537.771 135.36 538.236 134.431 538.236 133.228V97.476H526.264L526.1 101.986C525.662 110.842 524.979 117.867 524.05 123.06C523.175 128.253 521.945 131.998 520.36 134.294C518.829 136.59 516.861 137.738 514.456 137.738ZM555.638 137V136.016H559.984C560.914 135.36 561.378 134.431 561.378 133.228V100.182C561.378 99.6353 561.242 99.116 560.968 98.624C560.75 98.132 560.422 97.7493 559.984 97.476H555.638V96.41H575.892V97.476H572.038C571.164 98.0227 570.726 98.9247 570.726 100.182V131.506L588.602 96.41H602.214V97.476H597.868C597.431 97.7493 597.076 98.132 596.802 98.624C596.584 99.116 596.474 99.6353 596.474 100.182V133.228C596.474 134.431 596.939 135.36 597.868 136.016H602.214V137H581.878V136.016H585.732C586.662 135.36 587.126 134.431 587.126 133.228V101.986L569.25 137H555.638Z" fill="#101010"/>
<path d="M44.374 102.396C43.226 102.396 42.1327 102.669 41.094 103.216C40.11 103.763 39.044 104.692 37.896 106.004L33.796 110.842L37.978 131.178C38.3607 132.818 38.9893 133.638 39.864 133.638C41.176 133.638 43.0347 131.096 45.44 126.012L46.342 126.422C44.1553 130.905 42.3513 133.939 40.93 135.524C39.5633 137.109 38.0873 137.902 36.502 137.902C33.714 137.902 31.9647 135.743 31.254 131.424L28.384 116.172H26.17L19.2 137H12.148L23.136 103.954C23.5733 102.642 23.792 101.713 23.792 101.166C23.792 100.401 23.4093 100.018 22.644 100.018C21.7693 100.018 20.6213 100.893 19.2 102.642C17.8333 104.391 16.084 107.207 13.952 111.088L13.132 110.76C16.0293 105.403 18.544 101.576 20.676 99.28C22.808 96.9293 24.94 95.754 27.072 95.754C28.2747 95.754 29.204 96.1367 29.86 96.902C30.516 97.6127 30.844 98.6787 30.844 100.1C30.844 101.467 30.516 103.134 29.86 105.102L26.498 115.188H28.63L37.568 104.61C40.028 101.767 41.8047 99.772 42.898 98.624C43.9913 97.476 44.866 96.7107 45.522 96.328C46.2327 95.9453 47.0253 95.754 47.9 95.754C48.556 95.754 49.1573 95.836 49.704 96L48.146 103.216C46.8887 102.669 45.6313 102.396 44.374 102.396ZM59.97 137.902C56.6353 137.902 54.0113 136.781 52.098 134.54C50.2393 132.299 49.31 129.237 49.31 125.356C49.31 121.147 50.294 116.719 52.262 112.072C54.23 107.425 56.9087 103.544 60.298 100.428C63.742 97.312 67.4867 95.754 71.532 95.754C74.8667 95.754 77.4633 96.8747 79.322 99.116C81.2354 101.357 82.192 104.419 82.192 108.3C82.192 112.509 81.208 116.937 79.24 121.584C77.272 126.231 74.566 130.112 71.122 133.228C67.7327 136.344 64.0153 137.902 59.97 137.902ZM59.806 136.918C62.2113 136.918 64.6167 134.813 67.022 130.604C69.482 126.34 71.532 121.42 73.172 115.844C74.812 110.213 75.632 105.731 75.632 102.396C75.632 100.537 75.304 99.1433 74.648 98.214C74.0467 97.23 73.0627 96.738 71.696 96.738C69.2907 96.738 66.858 98.87 64.398 103.134C61.9927 107.343 59.97 112.263 58.33 117.894C56.69 123.47 55.87 127.925 55.87 131.26C55.87 133.119 56.1707 134.54 56.772 135.524C57.428 136.453 58.4393 136.918 59.806 136.918ZM108.353 96.656H120.161L119.915 97.64H117.209L99.0052 130.932C95.3426 137.601 92.3906 142.658 90.1492 146.102C87.9626 149.601 86.0492 152.088 84.4092 153.564C82.7692 155.095 81.1566 155.86 79.5712 155.86C78.6966 155.86 77.9312 155.751 77.2752 155.532C76.6192 155.313 76.0179 154.876 75.4712 154.22L77.6032 147.168C78.8059 148.097 80.3639 148.562 82.2772 148.562C83.6986 148.562 84.8739 148.343 85.8032 147.906C86.7872 147.523 87.8259 146.703 88.9192 145.446C90.0126 144.189 91.3519 142.248 92.9372 139.624L89.3292 97.64H86.3772L86.6232 96.656H104.417L104.171 97.64H99.1692C98.3492 97.8587 97.7206 98.3233 97.2832 99.034C96.8459 99.7447 96.6819 100.619 96.7912 101.658L98.6772 129.456L113.601 101.904C113.929 101.248 114.093 100.565 114.093 99.854C114.093 98.7607 113.765 98.0227 113.109 97.64H108.107L108.353 96.656ZM135.859 137.902C134.602 137.902 133.645 137.547 132.989 136.836C132.333 136.071 132.005 135.005 132.005 133.638C132.005 132.217 132.333 130.577 132.989 128.718L138.729 112.318L138.401 112.154C134.41 119.097 130.283 122.568 126.019 122.568C124.379 122.568 123.04 122.103 122.001 121.174C120.962 120.19 120.443 118.714 120.443 116.746C120.443 115.161 120.771 113.466 121.427 111.662L124.215 103.872C124.652 102.56 124.871 101.658 124.871 101.166C124.871 100.401 124.488 100.018 123.723 100.018C122.958 100.018 122.056 100.674 121.017 101.986C119.978 103.298 118.448 105.649 116.425 109.038L115.605 108.628C118.229 103.981 120.47 100.674 122.329 98.706C124.242 96.738 126.21 95.754 128.233 95.754C129.436 95.754 130.365 96.1093 131.021 96.82C131.677 97.5307 132.005 98.542 132.005 99.854C132.005 101.221 131.622 102.97 130.857 105.102L127.741 114.04C127.358 115.024 127.167 115.926 127.167 116.746C127.167 117.675 127.386 118.359 127.823 118.796C128.26 119.179 128.834 119.37 129.545 119.37C131.458 119.37 133.754 117.375 136.433 113.384C139.112 109.393 141.736 103.817 144.305 96.656H151.439L139.713 129.702C139.276 131.014 139.057 131.916 139.057 132.408C139.057 133.228 139.44 133.638 140.205 133.638C141.08 133.638 142.2 132.791 143.567 131.096C144.934 129.347 146.71 126.504 148.897 122.568L149.799 122.896C146.902 128.308 144.36 132.162 142.173 134.458C140.041 136.754 137.936 137.902 135.859 137.902ZM160.549 137.902C158.909 137.902 157.543 137.437 156.449 136.508C155.411 135.524 154.891 134.021 154.891 131.998C154.891 130.413 155.301 128.472 156.121 126.176L163.993 103.954C164.431 102.861 164.649 101.959 164.649 101.248C164.649 100.811 164.567 100.51 164.403 100.346C164.239 100.127 163.939 100.018 163.501 100.018C162.627 100.018 161.479 100.893 160.057 102.642C158.691 104.391 156.941 107.207 154.809 111.088L153.989 110.76C156.996 105.239 159.511 101.357 161.533 99.116C163.611 96.8747 165.715 95.754 167.847 95.754C170.471 95.754 171.783 97.2027 171.783 100.1C171.783 101.412 171.455 103.025 170.799 104.938L162.353 128.554C161.861 129.921 161.615 131.069 161.615 131.998C161.615 132.873 161.834 133.556 162.271 134.048C162.709 134.485 163.283 134.704 163.993 134.704C165.743 134.704 167.847 133.119 170.307 129.948C172.767 126.777 175.391 122.322 178.179 116.582C180.967 110.842 183.673 104.2 186.297 96.656H193.103L182.115 129.702C181.678 131.014 181.459 131.943 181.459 132.49C181.459 133.255 181.842 133.638 182.607 133.638C183.482 133.638 184.603 132.763 185.969 131.014C187.391 129.265 189.167 126.449 191.299 122.568L192.119 122.896C189.277 128.308 186.762 132.162 184.575 134.458C182.443 136.754 180.311 137.902 178.179 137.902C175.61 137.902 174.325 136.481 174.325 133.638C174.325 132.381 174.681 130.686 175.391 128.554L178.835 118.386L178.425 118.304C175.255 124.973 172.221 129.921 169.323 133.146C166.426 136.317 163.501 137.902 160.549 137.902ZM224.156 133.638C225.086 133.638 226.206 132.791 227.518 131.096C228.885 129.401 230.662 126.559 232.848 122.568L233.75 122.896C230.853 128.308 228.311 132.162 226.124 134.458C223.992 136.754 221.888 137.902 219.81 137.902C218.608 137.902 217.678 137.547 217.022 136.836C216.366 136.071 216.038 134.977 216.038 133.556C216.038 132.189 216.366 130.522 217.022 128.554L220.958 116.664H208.904L202.098 137H195.046L206.034 103.954C206.472 102.642 206.69 101.713 206.69 101.166C206.69 100.401 206.308 100.018 205.542 100.018C204.668 100.018 203.547 100.893 202.18 102.642C200.814 104.337 199.037 107.152 196.85 111.088L196.03 110.76C198.873 105.348 201.36 101.494 203.492 99.198C205.679 96.902 207.811 95.754 209.888 95.754C211.146 95.754 212.102 96.1367 212.758 96.902C213.414 97.6127 213.742 98.6787 213.742 100.1C213.742 101.467 213.414 103.134 212.758 105.102L209.232 115.68H221.286L227.6 96.656H234.734L223.664 129.702C223.282 130.85 223.09 131.752 223.09 132.408C223.09 133.228 223.446 133.638 224.156 133.638ZM243.659 137.902C241.363 137.902 239.477 137.273 238.001 136.016C236.58 134.759 235.869 133.119 235.869 131.096C235.869 128.8 236.662 126.695 238.247 124.782C239.832 122.869 242.156 120.627 245.217 118.058C247.458 116.145 249.208 114.559 250.465 113.302C251.722 112.045 252.788 110.623 253.663 109.038C254.592 107.398 255.057 105.676 255.057 103.872C255.057 102.615 254.702 101.631 253.991 100.92C253.28 100.155 252.296 99.772 251.039 99.772C249.618 99.772 248.169 100.346 246.693 101.494C245.217 102.642 243.522 104.501 241.609 107.07L240.871 106.578C243.44 102.97 245.9 100.264 248.251 98.46C250.602 96.656 252.98 95.754 255.385 95.754C257.517 95.754 259.266 96.3553 260.633 97.558C262.054 98.7607 262.765 100.319 262.765 102.232C262.765 104.364 262.027 106.305 260.551 108.054C259.075 109.803 256.888 111.853 253.991 114.204C251.804 116.008 250.055 117.566 248.743 118.878C247.431 120.135 246.31 121.584 245.381 123.224C244.452 124.864 243.987 126.641 243.987 128.554C243.987 130.03 244.37 131.178 245.135 131.998C245.9 132.818 246.939 133.228 248.251 133.228C251.586 133.228 254.92 130.112 258.255 123.88L259.075 124.29C256.56 128.882 254.1 132.299 251.695 134.54C249.29 136.781 246.611 137.902 243.659 137.902ZM274.659 137.902C271.325 137.902 268.701 136.781 266.787 134.54C264.929 132.299 263.999 129.237 263.999 125.356C263.999 121.147 264.983 116.719 266.951 112.072C268.919 107.425 271.598 103.544 274.987 100.428C278.431 97.312 282.176 95.754 286.221 95.754C289.556 95.754 292.153 96.8747 294.011 99.116C295.925 101.357 296.881 104.419 296.881 108.3C296.881 112.509 295.897 116.937 293.929 121.584C291.961 126.231 289.255 130.112 285.811 133.228C282.422 136.344 278.705 137.902 274.659 137.902ZM274.495 136.918C276.901 136.918 279.306 134.813 281.711 130.604C284.171 126.34 286.221 121.42 287.861 115.844C289.501 110.213 290.321 105.731 290.321 102.396C290.321 100.537 289.993 99.1433 289.337 98.214C288.736 97.23 287.752 96.738 286.385 96.738C283.98 96.738 281.547 98.87 279.087 103.134C276.682 107.343 274.659 112.263 273.019 117.894C271.379 123.47 270.559 127.925 270.559 131.26C270.559 133.119 270.86 134.54 271.461 135.524C272.117 136.453 273.129 136.918 274.495 136.918ZM295.159 137.902C294.448 137.902 293.847 137.82 293.355 137.656L294.585 129.948C295.569 130.276 296.471 130.44 297.291 130.44C298.548 130.44 299.723 129.948 300.817 128.964C301.965 127.98 303.167 126.149 304.425 123.47C305.737 120.737 307.213 116.883 308.853 111.908L313.527 97.64H305.983L306.311 96.656H319.595L319.185 126.914L339.029 96.656H345.671L334.601 129.702C334.218 130.85 334.027 131.752 334.027 132.408C334.027 133.228 334.409 133.638 335.175 133.638C336.049 133.638 337.143 132.791 338.455 131.096C339.821 129.401 341.625 126.559 343.867 122.568L344.687 122.896C341.789 128.308 339.275 132.162 337.143 134.458C335.011 136.754 332.879 137.902 330.747 137.902C328.232 137.902 326.975 136.481 326.975 133.638C326.975 132.271 327.303 130.577 327.959 128.554L336.897 101.822L313.527 137.492H312.707L313.281 101.576L309.755 112.318C307.404 119.534 305.463 124.946 303.933 128.554C302.457 132.107 301.063 134.567 299.751 135.934C298.439 137.246 296.908 137.902 295.159 137.902Z" fill="#101010"/>
<path d="M2.542 65V64.016H7.954C8.39133 63.7427 8.71933 63.3873 8.938 62.95C9.21133 62.458 9.348 61.9387 9.348 61.392V11.208C9.348 10.6613 9.21133 10.1693 8.938 9.732C8.71933 9.24 8.39133 8.85733 7.954 8.584H2.542V7.6H25.748C32.8547 7.6 38.1847 8.80266 41.738 11.208C45.2913 13.5587 47.068 16.8113 47.068 20.966C47.068 24.3007 45.9473 27.116 43.706 29.412C41.5193 31.6533 38.3487 33.2113 34.194 34.086V34.66C39.278 35.2613 43.1867 36.8467 45.92 39.416C48.6533 41.9853 50.02 45.32 50.02 49.42C50.02 54.34 48.052 58.1667 44.116 60.9C40.2347 63.6333 34.604 65 27.224 65H2.542ZM24.764 34.086C28.536 34.086 31.4333 33.02 33.456 30.888C35.5333 28.7013 36.572 25.64 36.572 21.704C36.572 17.5493 35.5333 14.3513 33.456 12.11C31.4333 9.814 28.536 8.666 24.764 8.666H19.434V34.086H24.764ZM26.732 63.934C30.832 63.934 33.9753 62.7313 36.162 60.326C38.4033 57.866 39.524 54.422 39.524 49.994C39.524 45.2927 38.4033 41.6573 36.162 39.088C33.9753 36.464 30.832 35.152 26.732 35.152H19.434V63.934H26.732ZM54.1597 65V64.016H58.5057C59.4351 63.36 59.8997 62.4307 59.8997 61.228V28.182C59.8997 27.6353 59.7631 27.116 59.4897 26.624C59.2711 26.132 58.9431 25.7493 58.5057 25.476H54.1597V24.41H76.2997V25.476H70.6417C70.2591 25.6947 69.9311 26.05 69.6577 26.542C69.3844 27.034 69.2477 27.5533 69.2477 28.1V40.482H73.6757C79.6344 40.482 84.0897 41.548 87.0417 43.68C89.9937 45.7573 91.4697 48.682 91.4697 52.454C91.4697 56.39 89.9664 59.4787 86.9597 61.72C84.0077 63.9067 79.9077 65 74.6597 65H54.1597ZM92.3717 65V64.016H96.7177C97.6471 63.36 98.1117 62.4307 98.1117 61.228V28.182C98.1117 27.6353 97.9751 27.116 97.7017 26.624C97.4831 26.132 97.1551 25.7493 96.7177 25.476H92.3717V24.41H113.2V25.476H108.854C107.979 26.0227 107.542 26.9247 107.542 28.182V61.228C107.542 62.4307 107.979 63.36 108.854 64.016H113.2V65H92.3717ZM73.0197 63.934C75.6984 63.934 77.7757 62.95 79.2517 60.982C80.7824 58.9593 81.5477 56.1987 81.5477 52.7C81.5477 49.2013 80.7551 46.468 79.1697 44.5C77.6391 42.532 75.4524 41.548 72.6097 41.548H69.2477V63.934H73.0197ZM136.08 65V64.016H140.426C141.355 63.36 141.82 62.4307 141.82 61.228V28.182C141.82 27.6353 141.683 27.116 141.41 26.624C141.191 26.132 140.863 25.7493 140.426 25.476H136.08V24.41H156.334V25.476H152.48C151.605 26.0227 151.168 26.9247 151.168 28.182V59.506L169.044 24.41H182.656V25.476H178.31C177.872 25.7493 177.517 26.132 177.244 26.624C177.025 27.116 176.916 27.6353 176.916 28.182V61.228C176.916 62.4307 177.38 63.36 178.31 64.016H182.656V65H162.32V64.016H166.174C167.103 63.36 167.568 62.4307 167.568 61.228V29.986L149.692 65H136.08ZM226.255 25.476C225.818 25.7493 225.463 26.132 225.189 26.624C224.971 27.116 224.861 27.6353 224.861 28.182V61.228C224.861 62.4307 225.326 63.36 226.255 64.016H230.601V65H210.183V64.016H214.119C214.994 63.36 215.431 62.4307 215.431 61.228V44.336H200.015V61.228C200.015 62.4307 200.48 63.36 201.409 64.016H205.263V65H184.927V64.016H189.273C190.203 63.36 190.667 62.4307 190.667 61.228V28.182C190.667 27.6353 190.531 27.116 190.257 26.624C190.039 26.132 189.711 25.7493 189.273 25.476H184.927V24.41H205.263V25.476H201.409C200.972 25.7493 200.617 26.132 200.343 26.624C200.125 27.116 200.015 27.6353 200.015 28.182V43.27H215.431V28.182C215.431 26.9247 214.994 26.0227 214.119 25.476H210.183V24.41H230.601V25.476H226.255ZM240.192 65V64.016H245.85C246.233 63.7973 246.533 63.442 246.752 62.95C247.025 62.458 247.162 61.9113 247.162 61.31V25.476H241.504L234.124 37.776L233.304 37.612C233.468 34.988 233.55 32.4733 233.55 30.068L233.468 24.41H270.368C270.259 27.034 270.204 29.002 270.204 30.314C270.204 32.8287 270.313 35.2613 270.532 37.612L269.712 37.776L262.332 25.476H256.592V61.31C256.592 61.9113 256.701 62.458 256.92 62.95C257.193 63.442 257.549 63.7973 257.986 64.016H263.562V65H240.192ZM312.141 49.912C310.719 55.2147 308.423 59.2327 305.253 61.966C302.082 64.6447 298.146 65.984 293.445 65.984C289.618 65.984 286.201 65.1367 283.195 63.442C280.188 61.7473 277.837 59.342 276.143 56.226C274.448 53.0553 273.601 49.42 273.601 45.32C273.601 41.0013 274.421 37.202 276.061 33.922C277.701 30.5873 279.997 28.018 282.949 26.214C285.955 24.3553 289.399 23.426 293.281 23.426C298.857 23.426 303.285 24.9293 306.565 27.936C309.899 30.9427 311.567 35.0153 311.567 40.154H284.097V41.63C284.097 47.9713 285.327 52.946 287.787 56.554C290.301 60.162 293.691 61.966 297.955 61.966C301.125 61.966 303.831 60.9273 306.073 58.85C308.369 56.7727 310.063 53.7113 311.157 49.666L312.141 49.912ZM293.281 24.41C290.602 24.41 288.47 25.6947 286.885 28.264C285.354 30.7787 284.452 34.3867 284.179 39.088H300.989C301.043 34.332 300.415 30.6967 299.103 28.182C297.791 25.6673 295.85 24.41 293.281 24.41ZM343.188 23.426C346.359 23.426 349.174 24.2733 351.634 25.968C354.094 27.6627 356.007 30.0407 357.374 33.102C358.741 36.1087 359.424 39.5527 359.424 43.434C359.424 47.862 358.549 51.7707 356.8 55.16C355.105 58.5493 352.645 61.2007 349.42 63.114C346.249 65.0273 342.532 65.984 338.268 65.984C334.824 65.984 331.845 65.2733 329.33 63.852V80.17C329.33 80.7713 329.439 81.318 329.658 81.81C329.931 82.302 330.287 82.6573 330.724 82.876H336.3V83.86H314.078V82.876H318.424C319.353 82.22 319.818 81.2907 319.818 80.088V25.558L313.668 25.476V24.41C317.659 24.41 320.775 24.3553 323.016 24.246C325.257 24.1367 327.362 23.918 329.33 23.59V30.478C332.665 27.69 335.289 25.8313 337.202 24.902C339.115 23.918 341.111 23.426 343.188 23.426ZM338.514 64.918C341.794 64.918 344.336 63.2233 346.14 59.834C347.999 56.39 348.928 51.6067 348.928 45.484C348.928 39.9627 347.971 35.6713 346.058 32.61C344.199 29.494 341.439 27.936 337.776 27.936C336.409 27.936 335.125 28.2093 333.922 28.756C332.774 29.248 331.243 30.232 329.33 31.708V50.896C329.33 55.3787 330.123 58.85 331.708 61.31C333.348 63.7153 335.617 64.918 338.514 64.918ZM402.949 49.912C401.528 55.2147 399.232 59.2327 396.061 61.966C392.891 64.6447 388.955 65.984 384.253 65.984C380.427 65.984 377.01 65.1367 374.003 63.442C370.997 61.7473 368.646 59.342 366.951 56.226C365.257 53.0553 364.409 49.42 364.409 45.32C364.409 41.0013 365.229 37.202 366.869 33.922C368.509 30.5873 370.805 28.018 373.757 26.214C376.764 24.3553 380.208 23.426 384.089 23.426C389.665 23.426 394.093 24.9293 397.373 27.936C400.708 30.9427 402.375 35.0153 402.375 40.154H374.905V41.63C374.905 47.9713 376.135 52.946 378.595 56.554C381.11 60.162 384.499 61.966 388.763 61.966C391.934 61.966 394.64 60.9273 396.881 58.85C399.177 56.7727 400.872 53.7113 401.965 49.666L402.949 49.912ZM384.089 24.41C381.411 24.41 379.279 25.6947 377.693 28.264C376.163 30.7787 375.261 34.3867 374.987 39.088H391.797C391.852 34.332 391.223 30.6967 389.911 28.182C388.599 25.6673 386.659 24.41 384.089 24.41ZM426.207 65.984C422.435 65.984 419.073 65.1367 416.121 63.442C413.169 61.6927 410.845 59.26 409.151 56.144C407.511 52.9733 406.691 49.2833 406.691 45.074C406.691 40.8647 407.538 37.12 409.233 33.84C410.927 30.56 413.305 28.018 416.367 26.214C419.428 24.3553 422.954 23.426 426.945 23.426C432.193 23.426 436.375 24.7927 439.491 27.526C442.661 30.2593 444.274 34.086 444.329 39.006L435.063 39.908C435.281 34.8787 434.68 31.052 433.259 28.428C431.892 25.804 429.815 24.492 427.027 24.492C423.911 24.492 421.478 26.05 419.729 29.166C418.034 32.282 417.187 36.6553 417.187 42.286C417.187 48.7367 418.362 53.766 420.713 57.374C423.118 60.982 426.371 62.786 430.471 62.786C433.86 62.786 436.73 61.556 439.081 59.096C441.486 56.5813 443.181 53.028 444.165 48.436L445.149 48.6C443.891 54.2853 441.65 58.604 438.425 61.556C435.199 64.508 431.127 65.984 426.207 65.984ZM472.695 24.41H486.471V25.476H483.027L467.201 67.05C465.451 71.642 464.003 75.0587 462.855 77.3C461.707 79.5413 460.285 81.2087 458.591 82.302C456.951 83.3953 454.791 83.9147 452.113 83.86L451.211 75.086C452.632 75.25 453.862 75.332 454.901 75.332C457.853 75.332 460.149 74.7033 461.789 73.446C463.483 72.1887 464.932 70.002 466.135 66.886L466.627 65.492L448.177 25.476H444.979V24.41H468.185V25.476H461.707C460.723 25.804 460.231 26.5967 460.231 27.854C460.231 28.51 460.395 29.2207 460.723 29.986L471.137 53.766L480.157 29.986C480.43 29.166 480.567 28.4827 480.567 27.936C480.567 26.624 480.102 25.804 479.173 25.476H472.695V24.41ZM525.068 49.912C523.647 55.2147 521.351 59.2327 518.18 61.966C515.01 64.6447 511.074 65.984 506.372 65.984C502.546 65.984 499.129 65.1367 496.122 63.442C493.116 61.7473 490.765 59.342 489.07 56.226C487.376 53.0553 486.528 49.42 486.528 45.32C486.528 41.0013 487.348 37.202 488.988 33.922C490.628 30.5873 492.924 28.018 495.876 26.214C498.883 24.3553 502.327 23.426 506.208 23.426C511.784 23.426 516.212 24.9293 519.492 27.936C522.827 30.9427 524.494 35.0153 524.494 40.154H497.024V41.63C497.024 47.9713 498.254 52.946 500.714 56.554C503.229 60.162 506.618 61.966 510.882 61.966C514.053 61.966 516.759 60.9273 519 58.85C521.296 56.7727 522.991 53.7113 524.084 49.666L525.068 49.912ZM506.208 24.41C503.53 24.41 501.398 25.6947 499.812 28.264C498.282 30.7787 497.38 34.3867 497.106 39.088H513.916C513.971 34.332 513.342 30.6967 512.03 28.182C510.718 25.6673 508.778 24.41 506.208 24.41ZM534.96 65V64.016H540.618C541 63.7973 541.301 63.442 541.52 62.95C541.793 62.458 541.93 61.9113 541.93 61.31V25.476H536.272L528.892 37.776L528.072 37.612C528.236 34.988 528.318 32.4733 528.318 30.068L528.236 24.41H565.136C565.026 27.034 564.972 29.002 564.972 30.314C564.972 32.8287 565.081 35.2613 565.3 37.612L564.48 37.776L557.1 25.476H551.36V61.31C551.36 61.9113 551.469 62.458 551.688 62.95C551.961 63.442 552.316 63.7973 552.754 64.016H558.33V65H534.96ZM606.908 49.912C605.487 55.2147 603.191 59.2327 600.02 61.966C596.85 64.6447 592.914 65.984 588.212 65.984C584.386 65.984 580.969 65.1367 577.962 63.442C574.956 61.7473 572.605 59.342 570.91 56.226C569.216 53.0553 568.368 49.42 568.368 45.32C568.368 41.0013 569.188 37.202 570.828 33.922C572.468 30.5873 574.764 28.018 577.716 26.214C580.723 24.3553 584.167 23.426 588.048 23.426C593.624 23.426 598.052 24.9293 601.332 27.936C604.667 30.9427 606.334 35.0153 606.334 40.154H578.864V41.63C578.864 47.9713 580.094 52.946 582.554 56.554C585.069 60.162 588.458 61.966 592.722 61.966C595.893 61.966 598.599 60.9273 600.84 58.85C603.136 56.7727 604.831 53.7113 605.924 49.666L606.908 49.912ZM588.048 24.41C585.37 24.41 583.238 25.6947 581.652 28.264C580.122 30.7787 579.22 34.3867 578.946 39.088H595.756C595.811 34.332 595.182 30.6967 593.87 28.182C592.558 25.6673 590.618 24.41 588.048 24.41ZM630.166 65.984C626.394 65.984 623.032 65.1367 620.08 63.442C617.128 61.6927 614.804 59.26 613.11 56.144C611.47 52.9733 610.65 49.2833 610.65 45.074C610.65 40.8647 611.497 37.12 613.192 33.84C614.886 30.56 617.264 28.018 620.326 26.214C623.387 24.3553 626.913 23.426 630.904 23.426C636.152 23.426 640.334 24.7927 643.45 27.526C646.62 30.2593 648.233 34.086 648.288 39.006L639.022 39.908C639.24 34.8787 638.639 31.052 637.218 28.428C635.851 25.804 633.774 24.492 630.986 24.492C627.87 24.492 625.437 26.05 623.688 29.166C621.993 32.282 621.146 36.6553 621.146 42.286C621.146 48.7367 622.321 53.766 624.672 57.374C627.077 60.982 630.33 62.786 634.43 62.786C637.819 62.786 640.689 61.556 643.04 59.096C645.445 56.5813 647.14 53.028 648.124 48.436L649.108 48.6C647.85 54.2853 645.609 58.604 642.384 61.556C639.158 64.508 635.086 65.984 630.166 65.984ZM651.543 65V64.016H655.889C656.818 63.36 657.283 62.4307 657.283 61.228V28.182C657.283 27.6353 657.146 27.116 656.873 26.624C656.654 26.132 656.326 25.7493 655.889 25.476H651.543V24.41H673.683V25.476H668.025C667.642 25.6947 667.314 26.05 667.041 26.542C666.767 27.034 666.631 27.5533 666.631 28.1V40.482H671.633C677.482 40.482 681.91 41.5207 684.917 43.598C687.923 45.6753 689.427 48.6273 689.427 52.454C689.427 56.39 687.923 59.4787 684.917 61.72C681.965 63.9067 677.865 65 672.617 65H651.543ZM670.977 63.934C673.655 63.934 675.76 62.9227 677.291 60.9C678.821 58.8773 679.587 56.144 679.587 52.7C679.587 49.256 678.794 46.55 677.209 44.582C675.623 42.5593 673.409 41.548 670.567 41.548H666.631V63.934H670.977Z" fill="#101010"/>
<path d="M368.316 103.973L358 99.6122L358.467 98.5069L368.783 102.867L368.316 103.973Z" fill="#303030"/>
<path d="M369.569 100.745L363.194 96.4627L363.818 95.5329L364.748 96.1574C364.645 95.9085 364.581 95.6213 364.556 95.2958C364.522 94.5798 364.693 93.9428 365.068 93.385C365.585 92.6146 366.253 92.1568 367.07 92.0117C367.887 91.8666 368.707 92.0706 369.53 92.6236L373.316 95.1661L372.691 96.0958L368.906 93.5534C368.348 93.1787 367.794 93.0378 367.243 93.1306C366.684 93.2174 366.232 93.5176 365.887 94.0312C365.5 94.6068 365.378 95.2188 365.521 95.8671C365.661 96.5007 366.045 97.0286 366.674 97.4509L370.194 99.8149L369.569 100.745Z" fill="#303030"/>
<path d="M373.754 91.7286L370.57 88.4642L369.539 89.4697L368.813 88.7252L369.443 88.1107C369.748 87.8128 369.715 87.4729 369.342 87.0912L368.114 85.8312L368.858 85.1051L370.646 86.9377L371.848 85.7646L372.574 86.5091L371.372 87.6822L374.556 90.9465C375.114 91.5192 375.642 91.5635 376.138 91.0794C376.329 90.8932 376.479 90.6952 376.587 90.4853C376.587 90.4703 376.606 90.429 376.645 90.3616C376.684 90.2791 376.707 90.2191 376.715 90.1814L377.441 90.9259C377.433 90.9636 377.414 91.0199 377.382 91.0949C377.344 91.1623 377.317 91.211 377.301 91.241C377.193 91.4509 377.036 91.6563 376.83 91.8574C376.349 92.3267 375.841 92.5541 375.305 92.5399C374.777 92.5183 374.26 92.2478 373.754 91.7286Z" fill="#303030"/>
<path d="M381.905 85.2831L382.901 85.4926C382.883 85.8356 382.801 86.2075 382.655 86.6085C382.321 87.4632 381.801 88.1208 381.096 88.5813C380.211 89.1584 379.239 89.3279 378.179 89.0896C377.129 88.8456 376.3 88.2591 375.694 87.33C375.087 86.401 374.884 85.4064 375.084 84.3463C375.284 83.2861 375.808 82.4791 376.657 81.9254C377.541 81.3483 378.472 81.174 379.449 81.4025C380.435 81.6252 381.231 82.201 381.837 83.1301C381.866 83.1747 381.929 83.2996 382.024 83.5047L382.085 83.6562L376.85 87.0529C377.265 87.6103 377.831 87.9605 378.549 88.1036C379.269 88.232 379.929 88.1009 380.527 87.7103C381.072 87.3548 381.469 86.8409 381.718 86.1688C381.828 85.8296 381.89 85.5344 381.905 85.2831ZM376.326 86.249L380.68 83.4072C380.23 82.8732 379.681 82.5497 379.035 82.4369C378.391 82.3093 377.788 82.4291 377.225 82.7963C376.662 83.1636 376.299 83.6807 376.136 84.3477C375.972 85.0148 376.036 85.6485 376.326 86.249Z" fill="#303030"/>
<path d="M384.978 86.1927L382.065 79.0867L383.101 78.6619L383.495 79.6242C383.594 79.3302 383.712 79.0687 383.848 78.8397C384.227 78.2462 384.748 77.8139 385.409 77.5428L385.705 77.4214L386.13 78.4577L385.686 78.6397C385.074 78.8906 384.638 79.3172 384.378 79.9197C384.117 80.5221 384.127 81.1638 384.406 81.8448L386.014 85.7679L384.978 86.1927Z" fill="#303030"/>
<path d="M389.41 84.3188L388.002 76.769L389.103 76.5637L389.309 77.6647C389.414 77.4171 389.575 77.1702 389.789 76.9241C390.277 76.3991 390.851 76.075 391.512 75.9518C392.424 75.7816 393.218 75.9374 393.894 76.419C394.57 76.9006 394.999 77.629 395.18 78.6042L396.016 83.0869L394.915 83.2923L394.079 78.8095C393.956 78.1489 393.669 77.6546 393.217 77.3265C392.763 76.988 392.232 76.8754 391.624 76.9888C390.942 77.1159 390.42 77.4574 390.057 78.0134C389.703 78.5569 389.595 79.2009 389.734 79.9454L390.511 84.1135L389.41 84.3188Z" fill="#303030"/>
<path d="M402.48 83.2446L402.545 82.2066C402.371 82.4202 402.157 82.6099 401.9 82.7756C401.312 83.1344 400.677 83.2926 399.995 83.2502C399.218 83.2018 398.583 82.9378 398.089 82.4582C397.606 81.9686 397.383 81.4311 397.42 80.8455C397.5 79.5467 398.294 78.8213 399.799 78.6692L402.784 78.374C402.819 77.8098 402.666 77.3407 402.326 76.9669C401.997 76.583 401.551 76.3735 400.987 76.3384C400.433 76.304 399.894 76.4575 399.371 76.7989C399.124 76.9866 398.921 77.161 398.761 77.3221L398.087 76.5587C398.306 76.3052 398.571 76.0812 398.883 75.8868C399.562 75.4482 400.285 75.2527 401.051 75.3004C401.924 75.3548 402.63 75.682 403.17 76.282C403.71 76.882 403.954 77.6025 403.901 78.4436L403.598 83.3141L402.48 83.2446ZM402.694 79.8112L402.724 79.3321L400.059 79.6472C399.09 79.7579 398.583 80.1805 398.537 80.9151C398.516 81.2558 398.637 81.5519 398.899 81.8033C399.173 82.0448 399.559 82.1811 400.06 82.2122C400.794 82.2579 401.405 82.0608 401.892 81.6209C402.379 81.181 402.646 80.5777 402.694 79.8112Z" fill="#303030"/>
<path d="M406.802 81.8795L407.945 77.4651L406.551 77.1042L406.811 76.0973L407.663 76.3179C408.076 76.4248 408.35 76.2201 408.483 75.7038L408.924 74L409.931 74.2606L409.289 76.7389L410.916 77.16L410.655 78.1668L409.029 77.7458L407.886 82.1602C407.685 82.9347 407.921 83.4088 408.592 83.5826C408.85 83.6494 409.097 83.6747 409.333 83.6586C409.346 83.651 409.391 83.6462 409.469 83.6442C409.559 83.6346 409.623 83.6235 409.659 83.6109L409.398 84.6177C409.362 84.6303 409.304 84.6428 409.223 84.655C409.146 84.657 409.09 84.6591 409.056 84.6614C408.821 84.6775 408.564 84.6495 408.285 84.5773C407.634 84.4089 407.177 84.0921 406.911 83.6268C406.656 83.1641 406.62 82.5817 406.802 81.8795Z" fill="#303030"/>
<path d="M414.493 76.2711C414.416 76.0905 414.416 75.9063 414.492 75.7184C414.568 75.5306 414.696 75.3984 414.877 75.3218C415.057 75.2453 415.242 75.245 415.43 75.321C415.617 75.3971 415.75 75.5253 415.826 75.7059C415.903 75.8865 415.903 76.0707 415.827 76.2585C415.751 76.4464 415.623 76.5786 415.442 76.6551C415.262 76.7317 415.077 76.7319 414.889 76.6559C414.702 76.5799 414.569 76.4516 414.493 76.2711ZM410.8 85.2708L413.68 78.1515L414.718 78.5716L411.838 85.6909L410.8 85.2708Z" fill="#303030"/>
<path d="M419.287 88.6954C418.236 88.9388 417.252 88.7693 416.332 88.1869C415.413 87.6046 414.835 86.7835 414.597 85.7237C414.375 84.6606 414.563 83.656 415.162 82.71C415.762 81.7639 416.587 81.1692 417.638 80.9259C418.703 80.6792 419.695 80.847 420.614 81.4294C421.534 82.0117 422.104 82.8345 422.327 83.8976C422.565 84.9574 422.384 85.9603 421.785 86.9063C421.185 87.8524 420.353 88.4488 419.287 88.6954ZM415.676 85.5167C415.836 86.3001 416.24 86.8974 416.889 87.3085C417.538 87.7195 418.243 87.8319 419.005 87.6455C419.782 87.4559 420.393 87.0097 420.839 86.3069C421.284 85.6041 421.424 84.8655 421.258 84.0911C421.107 83.3133 420.707 82.7189 420.058 82.3079C419.409 81.8968 418.696 81.7861 417.919 81.9758C417.157 82.1621 416.554 82.6067 416.108 83.3095C415.669 84.0032 415.525 84.739 415.676 85.5167Z" fill="#303030"/>
<path d="M420.665 90.9198L426.281 85.6809L427.045 86.4998L426.226 87.2639C426.491 87.2202 426.786 87.2229 427.108 87.2719C427.813 87.402 428.395 87.7127 428.853 88.2041C429.486 88.8827 429.781 89.6363 429.737 90.4649C429.693 91.2936 429.309 92.0462 428.583 92.7229L425.249 95.8336L424.485 95.0146L427.819 91.904C428.311 91.4456 428.574 90.9377 428.608 90.3804C428.65 89.8159 428.46 89.3074 428.038 88.855C427.565 88.3481 426.997 88.0906 426.333 88.0827C425.684 88.0752 425.083 88.3298 424.529 88.8464L421.429 91.7388L420.665 90.9198Z" fill="#303030"/>
<path d="M428.584 101.377L429.494 100.874C429.22 100.842 428.945 100.763 428.668 100.636C428.049 100.332 427.574 99.882 427.243 99.2847C426.866 98.6034 426.747 97.9256 426.886 97.2514C427.04 96.5813 427.373 96.1043 427.886 95.8202C429.025 95.1902 430.063 95.4692 431.001 96.657L432.854 99.0147C433.349 98.741 433.662 98.3602 433.795 97.8725C433.941 97.3889 433.878 96.8998 433.604 96.4051C433.336 95.9198 432.917 95.5482 432.347 95.2903C432.057 95.183 431.8 95.1054 431.579 95.0574L431.86 94.0788C432.192 94.127 432.523 94.2302 432.854 94.3882C433.589 94.7252 434.143 95.2296 434.514 95.9016C434.938 96.667 435.042 97.4385 434.826 98.2162C434.61 98.9939 434.133 99.5867 433.396 99.9946L429.126 102.357L428.584 101.377ZM431.594 99.7118L432.014 99.4794L430.316 97.4018C429.702 96.6444 429.073 96.4439 428.429 96.8002C428.13 96.9655 427.945 97.2262 427.874 97.5825C427.817 97.943 427.911 98.3425 428.153 98.7812C428.51 99.4252 429.004 99.8342 429.637 100.008C430.27 100.182 430.922 100.084 431.594 99.7118Z" fill="#303030"/>
<path d="M429.927 104.529L440.479 100.775L440.854 101.83L430.302 105.584L429.927 104.529Z" fill="#303030"/>
<path d="M436.317 110.391L443.115 110.25L443.14 111.449L436.342 111.591C435.35 111.611 434.535 111.948 433.898 112.602C433.261 113.255 432.952 114.062 432.972 115.022C432.992 115.981 433.334 116.774 433.998 117.401C434.662 118.027 435.49 118.33 436.481 118.309L443.28 118.168L443.305 119.368L436.506 119.509C435.227 119.536 434.135 119.116 433.231 118.249C432.339 117.393 431.879 116.325 431.853 115.045C431.826 113.765 432.241 112.674 433.097 111.77C433.964 110.877 435.037 110.418 436.317 110.391Z" fill="#303030"/>
<path d="M431.791 121.499L439.179 123.595L438.873 124.673L437.796 124.367C437.971 124.572 438.12 124.825 438.246 125.127C438.499 125.797 438.534 126.456 438.35 127.102C438.097 127.995 437.604 128.637 436.873 129.028C436.141 129.419 435.298 129.48 434.343 129.209L429.956 127.964L430.262 126.887L434.649 128.131C435.295 128.315 435.866 128.277 436.361 128.018C436.866 127.762 437.203 127.337 437.372 126.742C437.561 126.075 437.487 125.455 437.151 124.883C436.821 124.324 436.292 123.941 435.564 123.734L431.485 122.577L431.791 121.499Z" fill="#303030"/>
<path d="M437.631 134.418C437.816 134.355 438 134.369 438.182 134.458C438.364 134.548 438.486 134.685 438.549 134.871C438.612 135.057 438.599 135.24 438.51 135.422C438.42 135.604 438.282 135.726 438.097 135.79C437.911 135.853 437.727 135.839 437.546 135.75C437.364 135.66 437.241 135.523 437.178 135.337C437.115 135.151 437.128 134.968 437.218 134.786C437.307 134.604 437.445 134.482 437.631 134.418ZM428.925 130.077L435.815 133.471L435.32 134.475L428.43 131.082L428.925 130.077Z" fill="#303030"/>
<path d="M426.441 134.489L434.522 136.334L433.835 137.318L427.365 135.819L430.992 141.382L430.304 142.365L425.799 135.407L426.441 134.489Z" fill="#303030"/>
<path d="M420.894 143.749L419.877 143.702C419.839 143.361 419.861 142.98 419.94 142.561C420.132 141.664 420.54 140.931 421.162 140.363C421.942 139.652 422.874 139.328 423.959 139.393C425.035 139.465 425.947 139.911 426.695 140.73C427.443 141.55 427.803 142.499 427.776 143.577C427.749 144.655 427.362 145.536 426.613 146.219C425.833 146.931 424.943 147.253 423.941 147.184C422.933 147.123 422.054 146.682 421.307 145.863C421.271 145.823 421.189 145.71 421.062 145.523L420.977 145.383L425.598 141.189C425.099 140.706 424.484 140.451 423.753 140.425C423.021 140.414 422.391 140.65 421.863 141.132C421.382 141.57 421.073 142.141 420.935 142.844C420.881 143.197 420.867 143.498 420.894 143.749ZM426.245 141.899L422.403 145.403C422.934 145.858 423.527 146.089 424.184 146.097C424.84 146.119 425.416 145.904 425.912 145.451C426.409 144.998 426.684 144.429 426.738 143.745C426.792 143.06 426.628 142.445 426.245 141.899Z" fill="#303030"/>
<path d="M417.795 143.303L421.802 149.854L420.847 150.438L420.304 149.551C420.254 149.857 420.179 150.134 420.081 150.382C419.801 151.028 419.356 151.538 418.747 151.911L418.474 152.078L417.889 151.122L418.299 150.872C418.863 150.527 419.225 150.036 419.386 149.4C419.547 148.764 419.436 148.132 419.052 147.504L416.839 143.887L417.795 143.303Z" fill="#303030"/>
<path d="M414.521 146.733L414.076 147.773C413.858 147.631 413.63 147.521 413.393 147.444C412.867 147.253 412.338 147.265 411.803 147.479C411.298 147.682 410.956 147.946 410.776 148.271C410.6 148.606 410.582 148.946 410.721 149.293C410.84 149.59 411.069 149.774 411.408 149.845C411.751 149.925 412.132 149.945 412.552 149.903C412.972 149.86 413.396 149.828 413.823 149.806C414.255 149.793 414.662 149.877 415.045 150.057C415.427 150.237 415.71 150.554 415.893 151.009C416.108 151.544 416.072 152.099 415.785 152.673C415.503 153.258 415.015 153.69 414.322 153.968C413.738 154.202 413.103 154.267 412.418 154.163C412.125 154.12 411.863 154.041 411.633 153.927L412.077 152.886C412.256 152.987 412.434 153.059 412.613 153.102C413.108 153.191 413.549 153.158 413.935 153.003C414.331 152.844 414.611 152.611 414.775 152.303C414.939 151.996 414.965 151.704 414.854 151.427C414.738 151.14 414.511 150.961 414.173 150.89C413.838 150.829 413.46 150.82 413.04 150.862C412.625 150.914 412.201 150.946 411.769 150.958C411.341 150.981 410.932 150.892 410.542 150.693C410.155 150.503 409.868 150.175 409.682 149.71C409.435 149.097 409.466 148.486 409.774 147.88C410.077 147.287 410.624 146.832 411.416 146.514C412.158 146.216 412.9 146.16 413.641 146.345C413.97 146.42 414.263 146.549 414.521 146.733Z" fill="#303030"/>
<path d="M410.035 157.397C410.203 157.499 410.311 157.648 410.36 157.844C410.409 158.041 410.383 158.223 410.281 158.391C410.18 158.559 410.031 158.668 409.835 158.717C409.638 158.765 409.456 158.739 409.288 158.638C409.12 158.537 409.011 158.388 408.962 158.191C408.914 157.994 408.94 157.812 409.041 157.644C409.142 157.476 409.291 157.368 409.488 157.319C409.685 157.27 409.867 157.296 410.035 157.397ZM407.739 147.944L409.588 155.398L408.501 155.668L406.652 148.214L407.739 147.944Z" fill="#303030"/>
<path d="M404.157 150.833L404.676 155.363L406.107 155.199L406.225 156.232L405.351 156.332C404.927 156.381 404.746 156.67 404.806 157.2L405.007 158.949L403.974 159.067L403.682 156.524L402.013 156.715L401.895 155.682L403.564 155.49L403.045 150.96C402.953 150.165 402.564 149.807 401.875 149.886C401.61 149.917 401.37 149.982 401.156 150.081C401.147 150.093 401.106 150.114 401.035 150.144C400.953 150.185 400.898 150.218 400.869 150.243L400.75 149.21C400.78 149.185 400.83 149.152 400.9 149.112C400.972 149.082 401.023 149.061 401.054 149.046C401.268 148.947 401.518 148.88 401.804 148.848C402.472 148.771 403.013 148.902 403.427 149.241C403.831 149.582 404.075 150.112 404.157 150.833Z" fill="#303030"/>
<path d="M400.479 146.075L400.41 147.113C400.317 147.064 400.234 147.032 400.16 147.016C399.982 146.951 399.803 146.912 399.622 146.9C398.962 146.857 398.457 147.224 398.106 148.003L397.633 149.094L400.24 156.963L399.043 156.884L396.98 150.494L394.094 156.557L392.896 156.478L396.989 147.929C397.361 147.141 397.745 146.589 398.14 146.273C398.525 145.957 398.988 145.816 399.531 145.852C399.776 145.868 400.003 145.91 400.212 145.977C400.286 145.993 400.375 146.025 400.479 146.075Z" fill="#303030"/>
</svg>
