<svg width="237" height="740" viewBox="0 0 237 740" fill="none" xmlns="http://www.w3.org/2000/svg">
<rect x="74" y="286" width="53" height="454" rx="26.5" fill="#FF9700"/>
<path d="M218 688.852H217.016V685.162C215.813 683.795 213.818 683.112 211.03 683.112H181.182C180.635 683.112 180.116 683.249 179.624 683.522C179.132 683.741 178.749 684.069 178.476 684.506V688.852H177.41V674.748L206.766 661.546L177.41 649.246V634.814H178.476V639.16C178.749 639.597 179.132 639.953 179.624 640.226C180.116 640.445 180.635 640.554 181.182 640.554H214.228C215.431 640.554 216.36 640.089 217.016 639.16V634.814H218V655.56H217.016V651.296C216.415 650.367 215.485 649.902 214.228 649.902H181.756L218 664.99V665.974L181.674 682.128H211.03C213.818 682.128 215.813 681.445 217.016 680.078V676.224H218V688.852ZM202.912 592.869C208.215 594.29 212.233 596.586 214.966 599.757C217.645 602.928 218.984 606.864 218.984 611.565C218.984 615.392 218.137 618.808 216.442 621.815C214.747 624.822 212.342 627.172 209.226 628.867C206.055 630.562 202.42 631.409 198.32 631.409C194.001 631.409 190.202 630.589 186.922 628.949C183.587 627.309 181.018 625.013 179.214 622.061C177.355 619.054 176.426 615.61 176.426 611.729C176.426 606.153 177.929 601.725 180.936 598.445C183.943 595.11 188.015 593.443 193.154 593.443V620.913H194.63C200.971 620.913 205.946 619.683 209.554 617.223C213.162 614.708 214.966 611.319 214.966 607.055C214.966 603.884 213.927 601.178 211.85 598.937C209.773 596.641 206.711 594.946 202.666 593.853L202.912 592.869ZM177.41 611.729C177.41 614.408 178.695 616.54 181.264 618.125C183.779 619.656 187.387 620.558 192.088 620.831V604.021C187.332 603.966 183.697 604.595 181.182 605.907C178.667 607.219 177.41 609.16 177.41 611.729ZM178.476 548.948C178.749 549.385 179.132 549.74 179.624 550.014C180.116 550.232 180.635 550.342 181.182 550.342H214.228C215.431 550.342 216.36 549.877 217.016 548.948V544.602H218V565.02H217.016V561.084C216.36 560.209 215.431 559.772 214.228 559.772H197.336V575.188H214.228C215.431 575.188 216.36 574.723 217.016 573.794V569.94H218V590.276H217.016V585.93C216.36 585 215.431 584.536 214.228 584.536H181.182C180.635 584.536 180.116 584.672 179.624 584.946C179.132 585.164 178.749 585.492 178.476 585.93V590.276H177.41V569.94H178.476V573.794C178.749 574.231 179.132 574.586 179.624 574.86C180.116 575.078 180.635 575.188 181.182 575.188H196.27V559.772H181.182C179.925 559.772 179.023 560.209 178.476 561.084V565.02H177.41V544.602H178.476V548.948ZM218 535.011H217.016V529.353C216.797 528.97 216.442 528.67 215.95 528.451C215.458 528.178 214.911 528.041 214.31 528.041H178.476V533.699L190.776 541.079L190.612 541.899C187.988 541.735 185.473 541.653 183.068 541.653L177.41 541.735V504.835C180.034 504.944 182.002 504.999 183.314 504.999C185.829 504.999 188.261 504.89 190.612 504.671L190.776 505.491L178.476 512.871V518.611H214.31C214.911 518.611 215.458 518.502 215.95 518.283C216.442 518.01 216.797 517.654 217.016 517.217V511.641H218V535.011ZM218.984 480.938C218.984 485.038 218.137 488.646 216.442 491.762C214.693 494.878 212.233 497.311 209.062 499.06C205.891 500.755 202.174 501.602 197.91 501.602C193.591 501.602 189.819 500.728 186.594 498.978C183.369 497.229 180.881 494.769 179.132 491.598C177.328 488.428 176.426 484.765 176.426 480.61C176.426 476.51 177.301 472.902 179.05 469.786C180.799 466.67 183.259 464.265 186.43 462.57C189.601 460.821 193.318 459.946 197.582 459.946C201.846 459.946 205.618 460.821 208.898 462.57C212.123 464.32 214.611 466.78 216.36 469.95C218.109 473.121 218.984 476.784 218.984 480.938ZM217.918 480.774C217.918 477.33 216.278 474.761 212.998 473.066C209.718 471.317 204.716 470.442 197.992 470.442C191.104 470.442 185.965 471.317 182.576 473.066C179.187 474.761 177.492 477.33 177.492 480.774C177.492 484.218 179.159 486.815 182.494 488.564C185.774 490.259 190.776 491.106 197.5 491.106C204.388 491.106 209.527 490.259 212.916 488.564C216.251 486.815 217.918 484.218 217.918 480.774ZM176.426 428.812C176.426 425.641 177.273 422.826 178.968 420.366C180.663 417.906 183.041 415.993 186.102 414.626C189.109 413.259 192.553 412.576 196.434 412.576C200.862 412.576 204.771 413.451 208.16 415.2C211.549 416.895 214.201 419.355 216.114 422.58C218.027 425.751 218.984 429.468 218.984 433.732C218.984 437.176 218.273 440.155 216.852 442.67H233.17C233.771 442.67 234.318 442.561 234.81 442.342C235.302 442.069 235.657 441.713 235.876 441.276V435.7H236.86V457.922H235.876V453.576C235.22 452.647 234.291 452.182 233.088 452.182H178.558L178.476 458.332H177.41C177.41 454.341 177.355 451.225 177.246 448.984C177.137 446.743 176.918 444.638 176.59 442.67H183.478C180.69 439.335 178.831 436.711 177.902 434.798C176.918 432.885 176.426 430.889 176.426 428.812ZM217.918 433.486C217.918 430.206 216.223 427.664 212.834 425.86C209.39 424.001 204.607 423.072 198.484 423.072C192.963 423.072 188.671 424.029 185.61 425.942C182.494 427.801 180.936 430.561 180.936 434.224C180.936 435.591 181.209 436.875 181.756 438.078C182.248 439.226 183.232 440.757 184.708 442.67H203.896C208.379 442.67 211.85 441.877 214.31 440.292C216.715 438.652 217.918 436.383 217.918 433.486ZM218 408.739H217.016V404.393C216.36 403.463 215.431 402.999 214.228 402.999H181.182C180.635 402.999 180.116 403.135 179.624 403.409C179.132 403.627 178.749 403.955 178.476 404.393V408.739H177.41L177.41 388.485H178.476V392.339C179.023 393.213 179.925 393.651 181.182 393.651H212.506L177.41 375.775V362.163H178.476V366.509C178.749 366.946 179.132 367.301 179.624 367.575C180.116 367.793 180.635 367.903 181.182 367.903H214.228C215.431 367.903 216.36 367.438 217.016 366.509V362.163H218V382.499H217.016V378.645C216.36 377.715 215.431 377.251 214.228 377.251H182.986L218 395.127V408.739ZM178.476 318.563C178.749 319 179.132 319.356 179.624 319.629C180.116 319.848 180.635 319.957 181.182 319.957H214.228C215.431 319.957 216.36 319.492 217.016 318.563V314.217H218V334.635H217.016V330.699C216.36 329.824 215.431 329.387 214.228 329.387H197.336V344.803H214.228C215.431 344.803 216.36 344.338 217.016 343.409V339.555H218V359.891H217.016V355.545C216.36 354.616 215.431 354.151 214.228 354.151H181.182C180.635 354.151 180.116 354.288 179.624 354.561C179.132 354.78 178.749 355.108 178.476 355.545V359.891H177.41V339.555H178.476V343.409C178.749 343.846 179.132 344.202 179.624 344.475C180.116 344.694 180.635 344.803 181.182 344.803H196.27V329.387H181.182C179.925 329.387 179.023 329.824 178.476 330.699V334.635H177.41V314.217H178.476V318.563ZM218 311.924H217.016V307.578C216.36 306.649 215.431 306.184 214.228 306.184H181.182C180.635 306.184 180.116 306.321 179.624 306.594C179.132 306.813 178.749 307.141 178.476 307.578V311.924H177.41V279.288C181.674 279.398 186.075 279.206 190.612 278.714L190.776 279.534L178.476 287.324V296.836H214.31C214.857 296.836 215.376 296.727 215.868 296.508C216.36 296.235 216.743 295.88 217.016 295.442V289.784H218L218 311.924ZM218.984 255.118C218.984 259.218 218.137 262.826 216.442 265.942C214.693 269.058 212.233 271.491 209.062 273.24C205.891 274.935 202.174 275.782 197.91 275.782C193.591 275.782 189.819 274.907 186.594 273.158C183.369 271.409 180.881 268.949 179.132 265.778C177.328 262.607 176.426 258.945 176.426 254.79C176.426 250.69 177.301 247.082 179.05 243.966C180.799 240.85 183.259 238.445 186.43 236.75C189.601 235.001 193.318 234.126 197.582 234.126C201.846 234.126 205.618 235.001 208.898 236.75C212.123 238.499 214.611 240.959 216.36 244.13C218.109 247.301 218.984 250.963 218.984 255.118ZM217.918 254.954C217.918 251.51 216.278 248.941 212.998 247.246C209.718 245.497 204.716 244.622 197.992 244.622C191.104 244.622 185.965 245.497 182.576 247.246C179.187 248.941 177.492 251.51 177.492 254.954C177.492 258.398 179.159 260.995 182.494 262.744C185.774 264.439 190.776 265.286 197.5 265.286C204.388 265.286 209.527 264.439 212.916 262.744C216.251 260.995 217.918 258.398 217.918 254.954ZM218 230.645H217.016V226.955C215.813 225.588 213.818 224.905 211.03 224.905H181.182C180.635 224.905 180.116 225.042 179.624 225.315C179.132 225.534 178.749 225.862 178.476 226.299V230.645H177.41V216.541L206.766 203.339L177.41 191.039V176.607H178.476V180.953C178.749 181.39 179.132 181.746 179.624 182.019C180.116 182.238 180.635 182.347 181.182 182.347H214.228C215.431 182.347 216.36 181.882 217.016 180.953V176.607H218V197.353H217.016V193.089C216.415 192.16 215.485 191.695 214.228 191.695H181.756L218 206.783V207.767L181.674 223.921H211.03C213.818 223.921 215.813 223.238 217.016 221.871V218.017H218V230.645ZM191.268 154.916C188.753 151.144 185.965 148.356 182.904 146.552C179.843 144.693 176.399 143.764 172.572 143.764C168.909 143.764 166.012 144.584 163.88 146.224C161.748 147.809 160.682 149.996 160.682 152.784C160.682 155.955 162.076 158.469 164.864 160.328C167.652 162.187 171.506 163.171 176.426 163.28L175.442 172.956C170.303 172.355 166.395 170.332 163.716 166.888C160.983 163.444 159.616 158.661 159.616 152.538C159.616 146.525 160.846 141.796 163.306 138.352C165.711 134.853 169.019 133.104 173.228 133.104C177.164 133.104 180.635 134.635 183.642 137.696C186.594 140.757 189.382 145.623 192.006 152.292L202.174 153.112V154.014L191.268 154.916ZM218.574 153.522C218.574 155.217 218.027 156.611 216.934 157.704C215.786 158.797 214.392 159.344 212.752 159.344C211.112 159.344 209.745 158.797 208.652 157.704C207.504 156.611 206.93 155.217 206.93 153.522C206.93 151.882 207.504 150.515 208.652 149.422C209.745 148.274 211.112 147.7 212.752 147.7C214.392 147.7 215.786 148.274 216.934 149.422C218.027 150.515 218.574 151.882 218.574 153.522Z" fill="#101010"/>
<path d="M140 243.852H139.016V239.506C138.36 238.577 137.431 238.112 136.228 238.112H103.182C102.635 238.112 102.116 238.249 101.624 238.522C101.132 238.741 100.749 239.069 100.476 239.506V243.852H99.41V223.598H100.476V227.452C101.023 228.327 101.925 228.764 103.182 228.764H134.506L99.41 210.888V197.276H100.476V201.622C100.749 202.059 101.132 202.415 101.624 202.688C102.116 202.907 102.635 203.016 103.182 203.016H136.228C137.431 203.016 138.36 202.551 139.016 201.622V197.276H140V217.612H139.016V213.758C138.36 212.829 137.431 212.364 136.228 212.364H104.986L140 230.24V243.852ZM140.738 192.544C140.738 192.982 140.683 193.583 140.574 194.348L131.39 194.758C131.499 193.774 131.554 193.036 131.554 192.544C131.554 190.248 130.816 188.417 129.34 187.05C127.864 185.629 125.459 184.563 122.124 183.852C118.735 183.087 114.143 182.54 108.348 182.212C106.435 182.103 104.767 182.349 103.346 182.95C101.87 183.497 100.913 184.262 100.476 185.246V190.002H99.41V153.676H100.476V158.022C101.023 158.897 101.925 159.334 103.182 159.334H136.228C137.431 159.334 138.36 158.897 139.016 158.022V153.676H140V174.504H139.016V170.158C138.36 169.229 137.431 168.764 136.228 168.764H100.476V180.736L104.986 180.9C113.842 181.338 120.867 182.021 126.06 182.95C131.253 183.825 134.998 185.055 137.294 186.64C139.59 188.171 140.738 190.139 140.738 192.544ZM140 151.362H139.016V147.016C138.36 146.086 137.431 145.622 136.228 145.622H103.182C102.635 145.622 102.116 145.758 101.624 146.032C101.132 146.25 100.749 146.578 100.476 147.016V151.362H99.41V131.108H100.476V134.962C101.023 135.836 101.925 136.274 103.182 136.274H134.506L99.41 118.398V104.786H100.476V109.132C100.749 109.569 101.132 109.924 101.624 110.198C102.116 110.416 102.635 110.526 103.182 110.526H136.228C137.431 110.526 138.36 110.061 139.016 109.132V104.786H140V125.122H139.016V121.268C138.36 120.338 137.431 119.874 136.228 119.874H104.986L140 137.75V151.362Z" fill="#101010"/>
<path d="M105.396 652.626C105.396 653.774 105.669 654.867 106.216 655.906C106.763 656.89 107.692 657.956 109.004 659.104L113.842 663.204L134.178 659.022C135.818 658.639 136.638 658.011 136.638 657.136C136.638 655.824 134.096 653.965 129.012 651.56L129.422 650.658C133.905 652.845 136.939 654.649 138.524 656.07C140.109 657.437 140.902 658.913 140.902 660.498C140.902 663.286 138.743 665.035 134.424 665.746L119.172 668.616V670.83L140 677.8V684.852L106.954 673.864C105.642 673.427 104.713 673.208 104.166 673.208C103.401 673.208 103.018 673.591 103.018 674.356C103.018 675.231 103.893 676.379 105.642 677.8C107.391 679.167 110.207 680.916 114.088 683.048L113.76 683.868C108.403 680.971 104.576 678.456 102.28 676.324C99.9293 674.192 98.754 672.06 98.754 669.928C98.754 668.725 99.1367 667.796 99.902 667.14C100.613 666.484 101.679 666.156 103.1 666.156C104.467 666.156 106.134 666.484 108.102 667.14L118.188 670.502V668.37L107.61 659.432C104.767 656.972 102.772 655.195 101.624 654.102C100.476 653.009 99.7107 652.134 99.328 651.478C98.9453 650.767 98.754 649.975 98.754 649.1C98.754 648.444 98.836 647.843 99 647.296L106.216 648.854C105.669 650.111 105.396 651.369 105.396 652.626ZM140.902 637.03C140.902 640.365 139.781 642.989 137.54 644.902C135.299 646.761 132.237 647.69 128.356 647.69C124.147 647.69 119.719 646.706 115.072 644.738C110.425 642.77 106.544 640.091 103.428 636.702C100.312 633.258 98.754 629.513 98.754 625.468C98.754 622.133 99.8747 619.537 102.116 617.678C104.357 615.765 107.419 614.808 111.3 614.808C115.509 614.808 119.937 615.792 124.584 617.76C129.231 619.728 133.112 622.434 136.228 625.878C139.344 629.267 140.902 632.985 140.902 637.03ZM139.918 637.194C139.918 634.789 137.813 632.383 133.604 629.978C129.34 627.518 124.42 625.468 118.844 623.828C113.213 622.188 108.731 621.368 105.396 621.368C103.537 621.368 102.143 621.696 101.214 622.352C100.23 622.953 99.738 623.937 99.738 625.304C99.738 627.709 101.87 630.142 106.134 632.602C110.343 635.007 115.263 637.03 120.894 638.67C126.47 640.31 130.925 641.13 134.26 641.13C136.119 641.13 137.54 640.829 138.524 640.228C139.453 639.572 139.918 638.561 139.918 637.194ZM99.656 588.647V576.839L100.64 577.085V579.791L133.932 597.995C140.601 601.657 145.658 604.609 149.102 606.851C152.601 609.037 155.088 610.951 156.564 612.591C158.095 614.231 158.86 615.843 158.86 617.429C158.86 618.303 158.751 619.069 158.532 619.725C158.313 620.381 157.876 620.982 157.22 621.529L150.168 619.397C151.097 618.194 151.562 616.636 151.562 614.723C151.562 613.301 151.343 612.126 150.906 611.197C150.523 610.213 149.703 609.174 148.446 608.081C147.189 606.987 145.248 605.648 142.624 604.063L100.64 607.671V610.623L99.656 610.377V592.583L100.64 592.829V597.831C100.859 598.651 101.323 599.279 102.034 599.717C102.745 600.154 103.619 600.318 104.658 600.209L132.456 598.323L104.904 583.399C104.248 583.071 103.565 582.907 102.854 582.907C101.761 582.907 101.023 583.235 100.64 583.891V588.893L99.656 588.647ZM140.902 561.141C140.902 562.398 140.547 563.355 139.836 564.011C139.071 564.667 138.005 564.995 136.638 564.995C135.217 564.995 133.577 564.667 131.718 564.011L115.318 558.271L115.154 558.599C122.097 562.59 125.568 566.717 125.568 570.981C125.568 572.621 125.103 573.96 124.174 574.999C123.19 576.038 121.714 576.557 119.746 576.557C118.161 576.557 116.466 576.229 114.662 575.573L106.872 572.785C105.56 572.348 104.658 572.129 104.166 572.129C103.401 572.129 103.018 572.512 103.018 573.277C103.018 574.042 103.674 574.944 104.986 575.983C106.298 577.022 108.649 578.552 112.038 580.575L111.628 581.395C106.981 578.771 103.674 576.53 101.706 574.671C99.738 572.758 98.754 570.79 98.754 568.767C98.754 567.564 99.1093 566.635 99.82 565.979C100.531 565.323 101.542 564.995 102.854 564.995C104.221 564.995 105.97 565.378 108.102 566.143L117.04 569.259C118.024 569.642 118.926 569.833 119.746 569.833C120.675 569.833 121.359 569.614 121.796 569.177C122.179 568.74 122.37 568.166 122.37 567.455C122.37 565.542 120.375 563.246 116.384 560.567C112.393 557.888 106.817 555.264 99.656 552.695V545.561L132.702 557.287C134.014 557.724 134.916 557.943 135.408 557.943C136.228 557.943 136.638 557.56 136.638 556.795C136.638 555.92 135.791 554.8 134.096 553.433C132.347 552.066 129.504 550.29 125.568 548.103L125.896 547.201C131.308 550.098 135.162 552.64 137.458 554.827C139.754 556.959 140.902 559.064 140.902 561.141ZM140.902 536.451C140.902 538.091 140.437 539.457 139.508 540.551C138.524 541.589 137.021 542.109 134.998 542.109C133.413 542.109 131.472 541.699 129.176 540.879L106.954 533.007C105.861 532.569 104.959 532.351 104.248 532.351C103.811 532.351 103.51 532.433 103.346 532.597C103.127 532.761 103.018 533.061 103.018 533.499C103.018 534.373 103.893 535.521 105.642 536.943C107.391 538.309 110.207 540.059 114.088 542.191L113.76 543.011C108.239 540.004 104.357 537.489 102.116 535.467C99.8747 533.389 98.754 531.285 98.754 529.153C98.754 526.529 100.203 525.217 103.1 525.217C104.412 525.217 106.025 525.545 107.938 526.201L131.554 534.647C132.921 535.139 134.069 535.385 134.998 535.385C135.873 535.385 136.556 535.166 137.048 534.729C137.485 534.291 137.704 533.717 137.704 533.007C137.704 531.257 136.119 529.153 132.948 526.693C129.777 524.233 125.322 521.609 119.582 518.821C113.842 516.033 107.2 513.327 99.656 510.703V503.897L132.702 514.885C134.014 515.322 134.943 515.541 135.49 515.541C136.255 515.541 136.638 515.158 136.638 514.393C136.638 513.518 135.763 512.397 134.014 511.031C132.265 509.609 129.449 507.833 125.568 505.701L125.896 504.881C131.308 507.723 135.162 510.238 137.458 512.425C139.754 514.557 140.902 516.689 140.902 518.821C140.902 521.39 139.481 522.675 136.638 522.675C135.381 522.675 133.686 522.319 131.554 521.609L121.386 518.165L121.304 518.575C127.973 521.745 132.921 524.779 136.146 527.677C139.317 530.574 140.902 533.499 140.902 536.451ZM136.638 472.844C136.638 471.914 135.791 470.794 134.096 469.482C132.401 468.115 129.559 466.338 125.568 464.152L125.896 463.25C131.308 466.147 135.162 468.689 137.458 470.876C139.754 473.008 140.902 475.112 140.902 477.19C140.902 478.392 140.547 479.322 139.836 479.978C139.071 480.634 137.977 480.962 136.556 480.962C135.189 480.962 133.522 480.634 131.554 479.978L119.664 476.042V488.096L140 494.902V501.954L106.954 490.966C105.642 490.528 104.713 490.31 104.166 490.31C103.401 490.31 103.018 490.692 103.018 491.458C103.018 492.332 103.893 493.453 105.642 494.82C107.337 496.186 110.152 497.963 114.088 500.15L113.76 500.97C108.348 498.127 104.494 495.64 102.198 493.508C99.902 491.321 98.754 489.189 98.754 487.112C98.754 485.854 99.1367 484.898 99.902 484.242C100.613 483.586 101.679 483.258 103.1 483.258C104.467 483.258 106.134 483.586 108.102 484.242L118.68 487.768V475.714L99.656 469.4V462.266L132.702 473.336C133.85 473.718 134.752 473.91 135.408 473.91C136.228 473.91 136.638 473.554 136.638 472.844ZM140.902 453.341C140.902 455.637 140.273 457.523 139.016 458.999C137.759 460.42 136.119 461.131 134.096 461.131C131.8 461.131 129.695 460.338 127.782 458.753C125.869 457.168 123.627 454.844 121.058 451.783C119.145 449.542 117.559 447.792 116.302 446.535C115.045 445.278 113.623 444.212 112.038 443.337C110.398 442.408 108.676 441.943 106.872 441.943C105.615 441.943 104.631 442.298 103.92 443.009C103.155 443.72 102.772 444.704 102.772 445.961C102.772 447.382 103.346 448.831 104.494 450.307C105.642 451.783 107.501 453.478 110.07 455.391L109.578 456.129C105.97 453.56 103.264 451.1 101.46 448.749C99.656 446.398 98.754 444.02 98.754 441.615C98.754 439.483 99.3553 437.734 100.558 436.367C101.761 434.946 103.319 434.235 105.232 434.235C107.364 434.235 109.305 434.973 111.054 436.449C112.803 437.925 114.853 440.112 117.204 443.009C119.008 445.196 120.566 446.945 121.878 448.257C123.135 449.569 124.584 450.69 126.224 451.619C127.864 452.548 129.641 453.013 131.554 453.013C133.03 453.013 134.178 452.63 134.998 451.865C135.818 451.1 136.228 450.061 136.228 448.749C136.228 445.414 133.112 442.08 126.88 438.745L127.29 437.925C131.882 440.44 135.299 442.9 137.54 445.305C139.781 447.71 140.902 450.389 140.902 453.341ZM140.902 422.341C140.902 425.675 139.781 428.299 137.54 430.213C135.299 432.071 132.237 433.001 128.356 433.001C124.147 433.001 119.719 432.017 115.072 430.049C110.425 428.081 106.544 425.402 103.428 422.013C100.312 418.569 98.754 414.824 98.754 410.779C98.754 407.444 99.8747 404.847 102.116 402.989C104.357 401.075 107.419 400.119 111.3 400.119C115.509 400.119 119.937 401.103 124.584 403.071C129.231 405.039 133.112 407.745 136.228 411.189C139.344 414.578 140.902 418.295 140.902 422.341ZM139.918 422.505C139.918 420.099 137.813 417.694 133.604 415.289C129.34 412.829 124.42 410.779 118.844 409.139C113.213 407.499 108.731 406.679 105.396 406.679C103.537 406.679 102.143 407.007 101.214 407.663C100.23 408.264 99.738 409.248 99.738 410.615C99.738 413.02 101.87 415.453 106.134 417.913C110.343 420.318 115.263 422.341 120.894 423.981C126.47 425.621 130.925 426.441 134.26 426.441C136.119 426.441 137.54 426.14 138.524 425.539C139.453 424.883 139.918 423.871 139.918 422.505ZM140.902 401.841C140.902 402.552 140.82 403.153 140.656 403.645L132.948 402.415C133.276 401.431 133.44 400.529 133.44 399.709C133.44 398.452 132.948 397.277 131.964 396.183C130.98 395.035 129.149 393.833 126.47 392.575C123.737 391.263 119.883 389.787 114.908 388.147L100.64 383.473V391.017L99.656 390.689V377.405L129.914 377.815L99.656 357.971V351.329L132.702 362.399C133.85 362.782 134.752 362.973 135.408 362.973C136.228 362.973 136.638 362.591 136.638 361.825C136.638 360.951 135.791 359.857 134.096 358.545C132.401 357.179 129.559 355.375 125.568 353.133L125.896 352.313C131.308 355.211 135.162 357.725 137.458 359.857C139.754 361.989 140.902 364.121 140.902 366.253C140.902 368.768 139.481 370.025 136.638 370.025C135.271 370.025 133.577 369.697 131.554 369.041L104.822 360.103L140.492 383.473V384.293L104.576 383.719L115.318 387.245C122.534 389.596 127.946 391.537 131.554 393.067C135.107 394.543 137.567 395.937 138.934 397.249C140.246 398.561 140.902 400.092 140.902 401.841Z" fill="#101010"/>
<path d="M62 687.458H61.016V682.046C60.7427 681.609 60.3873 681.281 59.95 681.062C59.458 680.789 58.9387 680.652 58.392 680.652H8.208C7.66133 680.652 7.16933 680.789 6.732 681.062C6.24 681.281 5.85733 681.609 5.584 682.046V687.458H4.6L4.6 664.252C4.6 657.145 5.80266 651.815 8.208 648.262C10.5587 644.709 13.8113 642.932 17.966 642.932C21.3007 642.932 24.116 644.053 26.412 646.294C28.6533 648.481 30.2113 651.651 31.086 655.806H31.66C32.2613 650.722 33.8467 646.813 36.416 644.08C38.9853 641.347 42.32 639.98 46.42 639.98C51.34 639.98 55.1667 641.948 57.9 645.884C60.6333 649.765 62 655.396 62 662.776V687.458ZM31.086 665.236C31.086 661.464 30.02 658.567 27.888 656.544C25.7013 654.467 22.64 653.428 18.704 653.428C14.5493 653.428 11.3513 654.467 9.11 656.544C6.814 658.567 5.666 661.464 5.666 665.236V670.566H31.086V665.236ZM60.934 663.268C60.934 659.168 59.7313 656.025 57.326 653.838C54.866 651.597 51.422 650.476 46.994 650.476C42.2927 650.476 38.6573 651.597 36.088 653.838C33.464 656.025 32.152 659.168 32.152 663.268V670.566H60.934V663.268ZM62 635.84H61.016V631.494C60.36 630.565 59.4307 630.1 58.228 630.1H25.182C24.6353 630.1 24.116 630.237 23.624 630.51C23.132 630.729 22.7493 631.057 22.476 631.494V635.84H21.41V613.7H22.476V619.358C22.6947 619.741 23.05 620.069 23.542 620.342C24.034 620.616 24.5533 620.752 25.1 620.752H37.482V616.324C37.482 610.366 38.548 605.91 40.68 602.958C42.7573 600.006 45.682 598.53 49.454 598.53C53.39 598.53 56.4787 600.034 58.72 603.04C60.9067 605.992 62 610.092 62 615.34V635.84ZM62 597.628H61.016V593.282C60.36 592.353 59.4307 591.888 58.228 591.888H25.182C24.6353 591.888 24.116 592.025 23.624 592.298C23.132 592.517 22.7493 592.845 22.476 593.282L22.476 597.628H21.41L21.41 576.8H22.476V581.146C23.0227 582.021 23.9247 582.458 25.182 582.458H58.228C59.4307 582.458 60.36 582.021 61.016 581.146V576.8H62V597.628ZM60.934 616.98C60.934 614.302 59.95 612.224 57.982 610.748C55.9593 609.218 53.1987 608.452 49.7 608.452C46.2013 608.452 43.468 609.245 41.5 610.83C39.532 612.361 38.548 614.548 38.548 617.39V620.752H60.934V616.98ZM62 553.92H61.016V549.574C60.36 548.645 59.4307 548.18 58.228 548.18H25.182C24.6353 548.18 24.116 548.317 23.624 548.59C23.132 548.809 22.7493 549.137 22.476 549.574V553.92H21.41V533.666H22.476V537.52C23.0227 538.395 23.9247 538.832 25.182 538.832H56.506L21.41 520.956V507.344H22.476V511.69C22.7493 512.128 23.132 512.483 23.624 512.756C24.116 512.975 24.6353 513.084 25.182 513.084H58.228C59.4307 513.084 60.36 512.62 61.016 511.69V507.344H62V527.68H61.016V523.826C60.36 522.897 59.4307 522.432 58.228 522.432H26.986L62 540.308V553.92ZM22.476 463.745C22.7493 464.182 23.132 464.537 23.624 464.811C24.116 465.029 24.6353 465.139 25.182 465.139H58.228C59.4307 465.139 60.36 464.674 61.016 463.745V459.399H62V479.817H61.016V475.881C60.36 475.006 59.4307 474.569 58.228 474.569H41.336V489.985H58.228C59.4307 489.985 60.36 489.52 61.016 488.591V484.737H62V505.073H61.016V500.727C60.36 499.797 59.4307 499.333 58.228 499.333H25.182C24.6353 499.333 24.116 499.469 23.624 499.743C23.132 499.961 22.7493 500.289 22.476 500.727V505.073H21.41V484.737H22.476V488.591C22.7493 489.028 23.132 489.383 23.624 489.657C24.116 489.875 24.6353 489.985 25.182 489.985H40.27V474.569H25.182C23.9247 474.569 23.0227 475.006 22.476 475.881V479.817H21.41L21.41 459.399H22.476V463.745ZM62 449.808H61.016V444.15C60.7973 443.767 60.442 443.467 59.95 443.248C59.458 442.975 58.9113 442.838 58.31 442.838H22.476V448.496L34.776 455.876L34.612 456.696C31.988 456.532 29.4733 456.45 27.068 456.45L21.41 456.532V419.632C24.034 419.741 26.002 419.796 27.314 419.796C29.8287 419.796 32.2613 419.687 34.612 419.468L34.776 420.288L22.476 427.668V433.408H58.31C58.9113 433.408 59.458 433.299 59.95 433.08C60.442 432.807 60.7973 432.451 61.016 432.014V426.438H62V449.808ZM46.912 377.859C52.2147 379.281 56.2327 381.577 58.966 384.747C61.6447 387.918 62.984 391.854 62.984 396.555C62.984 400.382 62.1367 403.799 60.442 406.805C58.7473 409.812 56.342 412.163 53.226 413.857C50.0553 415.552 46.42 416.399 42.32 416.399C38.0013 416.399 34.202 415.579 30.922 413.939C27.5873 412.299 25.018 410.003 23.214 407.051C21.3553 404.045 20.426 400.601 20.426 396.719C20.426 391.143 21.9293 386.715 24.936 383.435C27.9427 380.101 32.0153 378.433 37.154 378.433V405.903H38.63C44.9713 405.903 49.946 404.673 53.554 402.213C57.162 399.699 58.966 396.309 58.966 392.045C58.966 388.875 57.9273 386.169 55.85 383.927C53.7727 381.631 50.7113 379.937 46.666 378.843L46.912 377.859ZM21.41 396.719C21.41 399.398 22.6947 401.53 25.264 403.115C27.7787 404.646 31.3867 405.548 36.088 405.821V389.011C31.332 388.957 27.6967 389.585 25.182 390.897C22.6673 392.209 21.41 394.15 21.41 396.719ZM20.426 346.812C20.426 343.641 21.2733 340.826 22.968 338.366C24.6627 335.906 27.0407 333.993 30.102 332.626C33.1087 331.259 36.5527 330.576 40.434 330.576C44.862 330.576 48.7707 331.451 52.16 333.2C55.5493 334.895 58.2007 337.355 60.114 340.58C62.0273 343.751 62.984 347.468 62.984 351.732C62.984 355.176 62.2733 358.155 60.852 360.67H77.17C77.7713 360.67 78.318 360.561 78.81 360.342C79.302 360.069 79.6573 359.713 79.876 359.276V353.7H80.86V375.922H79.876V371.576C79.22 370.647 78.2907 370.182 77.088 370.182H22.558L22.476 376.332H21.41C21.41 372.341 21.3553 369.225 21.246 366.984C21.1367 364.743 20.918 362.638 20.59 360.67H27.478C24.69 357.335 22.8313 354.711 21.902 352.798C20.918 350.885 20.426 348.889 20.426 346.812ZM61.918 351.486C61.918 348.206 60.2233 345.664 56.834 343.86C53.39 342.001 48.6067 341.072 42.484 341.072C36.9627 341.072 32.6713 342.029 29.61 343.942C26.494 345.801 24.936 348.561 24.936 352.224C24.936 353.591 25.2093 354.875 25.756 356.078C26.248 357.226 27.232 358.757 28.708 360.67H47.896C52.3787 360.67 55.85 359.877 58.31 358.292C60.7153 356.652 61.918 354.383 61.918 351.486ZM46.912 287.051C52.2147 288.472 56.2327 290.768 58.966 293.939C61.6447 297.109 62.984 301.045 62.984 305.747C62.984 309.573 62.1367 312.99 60.442 315.997C58.7473 319.003 56.342 321.354 53.226 323.049C50.0553 324.743 46.42 325.591 42.32 325.591C38.0013 325.591 34.202 324.771 30.922 323.131C27.5873 321.491 25.018 319.195 23.214 316.243C21.3553 313.236 20.426 309.792 20.426 305.911C20.426 300.335 21.9293 295.907 24.936 292.627C27.9427 289.292 32.0153 287.625 37.154 287.625V315.095H38.63C44.9713 315.095 49.946 313.865 53.554 311.405C57.162 308.89 58.966 305.501 58.966 301.237C58.966 298.066 57.9273 295.36 55.85 293.119C53.7727 290.823 50.7113 289.128 46.666 288.035L46.912 287.051ZM21.41 305.911C21.41 308.589 22.6947 310.721 25.264 312.307C27.7787 313.837 31.3867 314.739 36.088 315.013V298.203C31.332 298.148 27.6967 298.777 25.182 300.089C22.6673 301.401 21.41 303.341 21.41 305.911ZM62.984 263.793C62.984 267.565 62.1367 270.927 60.442 273.879C58.6927 276.831 56.26 279.155 53.144 280.849C49.9733 282.489 46.2833 283.309 42.074 283.309C37.8647 283.309 34.12 282.462 30.84 280.767C27.56 279.073 25.018 276.695 23.214 273.633C21.3553 270.572 20.426 267.046 20.426 263.055C20.426 257.807 21.7927 253.625 24.526 250.509C27.2593 247.339 31.086 245.726 36.006 245.671L36.908 254.937C31.8787 254.719 28.052 255.32 25.428 256.741C22.804 258.108 21.492 260.185 21.492 262.973C21.492 266.089 23.05 268.522 26.166 270.271C29.282 271.966 33.6553 272.813 39.286 272.813C45.7367 272.813 50.766 271.638 54.374 269.287C57.982 266.882 59.786 263.629 59.786 259.529C59.786 256.14 58.556 253.27 56.096 250.919C53.5813 248.514 50.028 246.819 45.436 245.835L45.6 244.851C51.2853 246.109 55.604 248.35 58.556 251.575C61.508 254.801 62.984 258.873 62.984 263.793ZM21.41 217.305L21.41 203.529H22.476V206.973L64.05 222.799C68.642 224.549 72.0587 225.997 74.3 227.145C76.5413 228.293 78.2087 229.715 79.302 231.409C80.3953 233.049 80.9147 235.209 80.86 237.887L72.086 238.789C72.25 237.368 72.332 236.138 72.332 235.099C72.332 232.147 71.7033 229.851 70.446 228.211C69.1887 226.517 67.002 225.068 63.886 223.865L62.492 223.373L22.476 241.823V245.021H21.41V221.815H22.476V228.293C22.804 229.277 23.5967 229.769 24.854 229.769C25.51 229.769 26.2207 229.605 26.986 229.277L50.766 218.863L26.986 209.843C26.166 209.57 25.4827 209.433 24.936 209.433C23.624 209.433 22.804 209.898 22.476 210.827V217.305H21.41ZM46.912 164.932C52.2147 166.353 56.2327 168.649 58.966 171.82C61.6447 174.99 62.984 178.926 62.984 183.628C62.984 187.454 62.1367 190.871 60.442 193.878C58.7473 196.884 56.342 199.235 53.226 200.93C50.0553 202.624 46.42 203.472 42.32 203.472C38.0013 203.472 34.202 202.652 30.922 201.012C27.5873 199.372 25.018 197.076 23.214 194.124C21.3553 191.117 20.426 187.673 20.426 183.792C20.426 178.216 21.9293 173.788 24.936 170.508C27.9427 167.173 32.0153 165.506 37.154 165.506V192.976H38.63C44.9713 192.976 49.946 191.746 53.554 189.286C57.162 186.771 58.966 183.382 58.966 179.118C58.966 175.947 57.9273 173.241 55.85 171C53.7727 168.704 50.7113 167.009 46.666 165.916L46.912 164.932ZM21.41 183.792C21.41 186.47 22.6947 188.602 25.264 190.188C27.7787 191.718 31.3867 192.62 36.088 192.894V176.084C31.332 176.029 27.6967 176.658 25.182 177.97C22.6673 179.282 21.41 181.222 21.41 183.792ZM62 155.04H61.016V149.382C60.7973 149 60.442 148.699 59.95 148.48C59.458 148.207 58.9113 148.07 58.31 148.07H22.476V153.728L34.776 161.108L34.612 161.928C31.988 161.764 29.4733 161.682 27.068 161.682L21.41 161.764L21.41 124.864C24.034 124.974 26.002 125.028 27.314 125.028C29.8287 125.028 32.2613 124.919 34.612 124.7L34.776 125.52L22.476 132.9V138.64H58.31C58.9113 138.64 59.458 138.531 59.95 138.312C60.442 138.039 60.7973 137.684 61.016 137.246V131.67H62V155.04ZM46.912 83.0917C52.2147 84.5131 56.2327 86.8091 58.966 89.9797C61.6447 93.1504 62.984 97.0864 62.984 101.788C62.984 105.614 62.1367 109.031 60.442 112.038C58.7473 115.044 56.342 117.395 53.226 119.09C50.0553 120.784 46.42 121.632 42.32 121.632C38.0013 121.632 34.202 120.812 30.922 119.172C27.5873 117.532 25.018 115.236 23.214 112.284C21.3553 109.277 20.426 105.833 20.426 101.952C20.426 96.3757 21.9293 91.9477 24.936 88.6677C27.9427 85.3331 32.0153 83.6657 37.154 83.6657V111.136H38.63C44.9713 111.136 49.946 109.906 53.554 107.446C57.162 104.931 58.966 101.542 58.966 97.2777C58.966 94.1071 57.9273 91.4011 55.85 89.1597C53.7727 86.8637 50.7113 85.1691 46.666 84.0757L46.912 83.0917ZM21.41 101.952C21.41 104.63 22.6947 106.762 25.264 108.348C27.7787 109.878 31.3867 110.78 36.088 111.054V94.2437C31.332 94.1891 27.6967 94.8177 25.182 96.1297C22.6673 97.4417 21.41 99.3824 21.41 101.952ZM62.984 59.8345C62.984 63.6065 62.1367 66.9685 60.442 69.9205C58.6927 72.8725 56.26 75.1958 53.144 76.8905C49.9733 78.5305 46.2833 79.3505 42.074 79.3505C37.8647 79.3505 34.12 78.5032 30.84 76.8085C27.56 75.1138 25.018 72.7358 23.214 69.6745C21.3553 66.6132 20.426 63.0872 20.426 59.0965C20.426 53.8485 21.7927 49.6665 24.526 46.5505C27.2593 43.3798 31.086 41.7671 36.006 41.7125L36.908 50.9785C31.8787 50.7598 28.052 51.3611 25.428 52.7825C22.804 54.1491 21.492 56.2265 21.492 59.0145C21.492 62.1305 23.05 64.5632 26.166 66.3125C29.282 68.0072 33.6553 68.8545 39.286 68.8545C45.7367 68.8545 50.766 67.6792 54.374 65.3285C57.982 62.9231 59.786 59.6705 59.786 55.5705C59.786 52.1811 58.556 49.3111 56.096 46.9605C53.5813 44.5552 50.028 42.8605 45.436 41.8765L45.6 40.8925C51.2853 42.1498 55.604 44.3911 58.556 47.6165C61.508 50.8418 62.984 54.9145 62.984 59.8345ZM62 38.4575H61.016V34.1115C60.36 33.1821 59.4307 32.7175 58.228 32.7175H25.182C24.6353 32.7175 24.116 32.8541 23.624 33.1275C23.132 33.3461 22.7493 33.6741 22.476 34.1115V38.4575H21.41L21.41 16.3175H22.476L22.476 21.9755C22.6947 22.3581 23.05 22.6861 23.542 22.9595C24.034 23.2328 24.5533 23.3695 25.1 23.3695H37.482V18.3675C37.482 12.5181 38.5207 8.09013 40.598 5.08347C42.6753 2.0768 45.6273 0.573468 49.454 0.573468C53.39 0.573468 56.4787 2.0768 58.72 5.08347C60.9067 8.03547 62 12.1355 62 17.3835V38.4575ZM60.934 19.0235C60.934 16.3448 59.9227 14.2401 57.9 12.7095C55.8773 11.1788 53.144 10.4135 49.7 10.4135C46.256 10.4135 43.55 11.2061 41.582 12.7915C39.5593 14.3768 38.548 16.5908 38.548 19.4335V23.3695H60.934V19.0235Z" fill="#101010"/>
<path d="M82.3163 283.973L72 279.612L72.4672 278.507L82.7835 282.867L82.3163 283.973Z" fill="#303030"/>
<path d="M83.5692 280.745L77.1936 276.463L77.8181 275.533L78.7478 276.157C78.6451 275.909 78.581 275.621 78.5555 275.296C78.5225 274.58 78.6933 273.943 79.068 273.385C79.5854 272.615 80.2526 272.157 81.0696 272.012C81.8866 271.867 82.7069 272.071 83.5304 272.624L87.3159 275.166L86.6914 276.096L82.9059 273.553C82.3481 273.179 81.7939 273.038 81.2433 273.131C80.6838 273.217 80.2316 273.518 79.8867 274.031C79.5001 274.607 79.3782 275.219 79.521 275.867C79.6608 276.501 80.0451 277.029 80.6738 277.451L84.1936 279.815L83.5692 280.745Z" fill="#303030"/>
<path d="M87.7539 271.729L84.57 268.464L83.5391 269.47L82.813 268.725L83.4429 268.111C83.7484 267.813 83.7149 267.473 83.3425 267.091L82.1136 265.831L82.8581 265.105L84.6456 266.938L85.8482 265.765L86.5744 266.509L85.3717 267.682L88.5557 270.947C89.1143 271.519 89.6417 271.564 90.1381 271.079C90.329 270.893 90.4785 270.695 90.5868 270.485C90.5869 270.47 90.6063 270.429 90.6449 270.362C90.6836 270.279 90.707 270.219 90.715 270.181L91.4412 270.926C91.4332 270.964 91.4136 271.02 91.3825 271.095C91.3439 271.162 91.3169 271.211 91.3015 271.241C91.1932 271.451 91.0361 271.656 90.8299 271.857C90.3488 272.327 89.8406 272.554 89.3052 272.54C88.7775 272.518 88.2604 272.248 87.7539 271.729Z" fill="#303030"/>
<path d="M95.9046 265.283L96.9011 265.493C96.8829 265.836 96.8008 266.208 96.6549 266.608C96.3211 267.463 95.8013 268.121 95.0956 268.581C94.2112 269.158 93.2392 269.328 92.1794 269.09C91.1285 268.846 90.3 268.259 89.6937 267.33C89.0875 266.401 88.8842 265.406 89.084 264.346C89.2838 263.286 89.8079 262.479 90.6566 261.925C91.5409 261.348 92.4716 261.174 93.4487 261.402C94.4346 261.625 95.2307 262.201 95.837 263.13C95.8661 263.175 95.9285 263.3 96.0241 263.505L96.0848 263.656L90.8503 267.053C91.2649 267.61 91.831 267.96 92.5485 268.104C93.2692 268.232 93.9287 268.101 94.5272 267.71C95.0721 267.355 95.4692 266.841 95.7184 266.169C95.8282 265.83 95.8903 265.534 95.9046 265.283ZM90.3257 266.249L94.6804 263.407C94.2301 262.873 93.6815 262.55 93.0347 262.437C92.3909 262.309 91.7877 262.429 91.2249 262.796C90.6622 263.164 90.2991 263.681 90.1357 264.348C89.9724 265.015 90.0357 265.649 90.3257 266.249Z" fill="#303030"/>
<path d="M98.978 266.193L96.0647 259.087L97.101 258.662L97.4955 259.624C97.594 259.33 97.7116 259.069 97.8483 258.84C98.2275 258.246 98.7477 257.814 99.4089 257.543L99.705 257.421L100.13 258.458L99.6858 258.64C99.0739 258.891 98.6378 259.317 98.3775 259.92C98.1172 260.522 98.1267 261.164 98.4059 261.845L100.014 265.768L98.978 266.193Z" fill="#303030"/>
<path d="M103.41 264.319L102.002 256.769L103.103 256.564L103.309 257.665C103.414 257.417 103.575 257.17 103.789 256.924C104.277 256.399 104.851 256.075 105.512 255.952C106.424 255.782 107.218 255.937 107.894 256.419C108.57 256.901 108.999 257.629 109.18 258.604L110.016 263.087L108.915 263.292L108.079 258.81C107.956 258.149 107.669 257.655 107.217 257.327C106.763 256.988 106.232 256.875 105.624 256.989C104.942 257.116 104.42 257.457 104.057 258.013C103.703 258.557 103.595 259.201 103.734 259.945L104.511 264.114L103.41 264.319Z" fill="#303030"/>
<path d="M116.48 263.245L116.545 262.207C116.371 262.42 116.157 262.61 115.9 262.776C115.312 263.134 114.677 263.293 113.995 263.25C113.218 263.202 112.583 262.938 112.089 262.458C111.606 261.969 111.383 261.431 111.42 260.846C111.5 259.547 112.294 258.821 113.799 258.669L116.784 258.374C116.819 257.81 116.666 257.341 116.326 256.967C115.997 256.583 115.551 256.374 114.987 256.338C114.433 256.304 113.894 256.457 113.371 256.799C113.124 256.987 112.921 257.161 112.761 257.322L112.087 256.559C112.306 256.305 112.571 256.081 112.883 255.887C113.562 255.448 114.285 255.253 115.051 255.3C115.924 255.355 116.63 255.682 117.17 256.282C117.71 256.882 117.954 257.603 117.901 258.444L117.598 263.314L116.48 263.245ZM116.694 259.811L116.724 259.332L114.059 259.647C113.09 259.758 112.583 260.181 112.537 260.915C112.516 261.256 112.637 261.552 112.899 261.803C113.173 262.045 113.559 262.181 114.06 262.212C114.794 262.258 115.405 262.061 115.892 261.621C116.379 261.181 116.646 260.578 116.694 259.811Z" fill="#303030"/>
<path d="M120.802 261.88L121.945 257.465L120.551 257.104L120.811 256.097L121.663 256.318C122.076 256.425 122.35 256.22 122.483 255.704L122.924 254L123.931 254.261L123.289 256.739L124.916 257.16L124.655 258.167L123.029 257.746L121.886 262.16C121.685 262.935 121.921 263.409 122.592 263.583C122.85 263.649 123.097 263.675 123.333 263.659C123.346 263.651 123.391 263.646 123.469 263.644C123.559 263.635 123.623 263.624 123.659 263.611L123.398 264.618C123.362 264.63 123.304 264.643 123.223 264.655C123.146 264.657 123.09 264.659 123.056 264.661C122.821 264.678 122.564 264.65 122.285 264.577C121.634 264.409 121.177 264.092 120.911 263.627C120.656 263.164 120.62 262.582 120.802 261.88Z" fill="#303030"/>
<path d="M128.493 256.271C128.416 256.091 128.416 255.906 128.492 255.718C128.568 255.531 128.696 255.398 128.877 255.322C129.057 255.245 129.242 255.245 129.43 255.321C129.617 255.397 129.75 255.525 129.826 255.706C129.903 255.886 129.903 256.071 129.827 256.259C129.751 256.446 129.623 256.579 129.442 256.655C129.262 256.732 129.077 256.732 128.889 256.656C128.702 256.58 128.569 256.452 128.493 256.271ZM124.8 265.271L127.68 258.152L128.718 258.572L125.838 265.691L124.8 265.271Z" fill="#303030"/>
<path d="M133.287 268.695C132.236 268.939 131.252 268.769 130.332 268.187C129.413 267.605 128.835 266.784 128.597 265.724C128.375 264.661 128.563 263.656 129.162 262.71C129.762 261.764 130.587 261.169 131.638 260.926C132.703 260.679 133.695 260.847 134.614 261.429C135.534 262.012 136.104 262.834 136.327 263.898C136.565 264.957 136.384 265.96 135.785 266.906C135.185 267.852 134.353 268.449 133.287 268.695ZM129.676 265.517C129.836 266.3 130.24 266.897 130.889 267.308C131.538 267.72 132.243 267.832 133.005 267.646C133.782 267.456 134.393 267.01 134.839 266.307C135.284 265.604 135.424 264.865 135.258 264.091C135.107 263.313 134.707 262.719 134.058 262.308C133.409 261.897 132.696 261.786 131.919 261.976C131.157 262.162 130.554 262.607 130.108 263.309C129.669 264.003 129.525 264.739 129.676 265.517Z" fill="#303030"/>
<path d="M134.665 270.92L140.281 265.681L141.045 266.5L140.226 267.264C140.491 267.22 140.786 267.223 141.108 267.272C141.813 267.402 142.395 267.713 142.853 268.204C143.486 268.883 143.781 269.636 143.737 270.465C143.693 271.294 143.309 272.046 142.583 272.723L139.249 275.834L138.485 275.015L141.819 271.904C142.311 271.446 142.574 270.938 142.608 270.38C142.65 269.816 142.46 269.307 142.038 268.855C141.565 268.348 140.997 268.091 140.333 268.083C139.684 268.075 139.083 268.33 138.529 268.846L135.429 271.739L134.665 270.92Z" fill="#303030"/>
<path d="M142.584 281.377L143.494 280.874C143.22 280.842 142.945 280.763 142.668 280.636C142.049 280.332 141.574 279.882 141.243 279.285C140.866 278.603 140.747 277.926 140.886 277.251C141.04 276.581 141.373 276.104 141.886 275.82C143.025 275.19 144.063 275.469 145.001 276.657L146.854 279.015C147.349 278.741 147.662 278.36 147.795 277.872C147.941 277.389 147.878 276.9 147.604 276.405C147.336 275.92 146.917 275.548 146.347 275.29C146.057 275.183 145.8 275.105 145.579 275.057L145.86 274.079C146.192 274.127 146.523 274.23 146.854 274.388C147.589 274.725 148.143 275.23 148.514 275.902C148.938 276.667 149.042 277.438 148.826 278.216C148.61 278.994 148.133 279.587 147.396 279.995L143.126 282.357L142.584 281.377ZM145.594 279.712L146.014 279.479L144.316 277.402C143.702 276.644 143.073 276.444 142.429 276.8C142.13 276.965 141.945 277.226 141.874 277.583C141.817 277.943 141.911 278.343 142.153 278.781C142.51 279.425 143.004 279.834 143.637 280.008C144.27 280.182 144.922 280.084 145.594 279.712Z" fill="#303030"/>
<path d="M143.927 284.529L154.479 280.775L154.854 281.83L144.302 285.584L143.927 284.529Z" fill="#303030"/>
<path d="M150.317 290.391L157.115 290.25L157.14 291.449L150.342 291.591C149.35 291.611 148.535 291.948 147.898 292.602C147.261 293.255 146.952 294.062 146.972 295.022C146.992 295.981 147.334 296.774 147.998 297.401C148.662 298.027 149.49 298.33 150.481 298.309L157.28 298.168L157.305 299.368L150.506 299.509C149.227 299.536 148.135 299.116 147.231 298.249C146.339 297.393 145.879 296.325 145.853 295.045C145.826 293.765 146.241 292.674 147.097 291.77C147.964 290.877 149.037 290.418 150.317 290.391Z" fill="#303030"/>
<path d="M145.791 301.499L153.179 303.595L152.873 304.673L151.796 304.367C151.971 304.572 152.12 304.825 152.246 305.127C152.499 305.797 152.534 306.456 152.35 307.102C152.097 307.995 151.604 308.637 150.873 309.028C150.141 309.419 149.298 309.48 148.343 309.209L143.956 307.964L144.262 306.887L148.649 308.131C149.295 308.315 149.866 308.277 150.361 308.018C150.866 307.762 151.203 307.337 151.372 306.742C151.561 306.075 151.487 305.455 151.151 304.883C150.821 304.324 150.292 303.941 149.564 303.734L145.485 302.577L145.791 301.499Z" fill="#303030"/>
<path d="M151.631 314.418C151.816 314.355 152 314.369 152.182 314.458C152.364 314.548 152.486 314.685 152.549 314.871C152.612 315.057 152.599 315.24 152.51 315.422C152.42 315.604 152.282 315.726 152.097 315.79C151.911 315.853 151.727 315.839 151.546 315.75C151.364 315.66 151.241 315.523 151.178 315.337C151.115 315.151 151.128 314.968 151.218 314.786C151.307 314.604 151.445 314.482 151.631 314.418ZM142.925 310.077L149.815 313.471L149.32 314.475L142.43 311.082L142.925 310.077Z" fill="#303030"/>
<path d="M140.441 314.489L148.522 316.334L147.835 317.318L141.365 315.819L144.992 321.382L144.304 322.365L139.799 315.407L140.441 314.489Z" fill="#303030"/>
<path d="M134.894 323.749L133.877 323.702C133.839 323.361 133.861 322.98 133.94 322.561C134.132 321.664 134.54 320.931 135.162 320.363C135.942 319.652 136.874 319.328 137.959 319.393C139.035 319.465 139.947 319.911 140.695 320.73C141.443 321.55 141.803 322.499 141.776 323.577C141.749 324.655 141.362 325.536 140.613 326.219C139.833 326.931 138.943 327.253 137.941 327.184C136.933 327.123 136.054 326.682 135.307 325.863C135.271 325.823 135.189 325.71 135.062 325.523L134.977 325.383L139.598 321.189C139.099 320.706 138.484 320.451 137.753 320.425C137.021 320.414 136.391 320.65 135.863 321.132C135.382 321.57 135.073 322.141 134.935 322.844C134.881 323.197 134.867 323.498 134.894 323.749ZM140.245 321.899L136.403 325.403C136.934 325.858 137.527 326.089 138.184 326.097C138.84 326.119 139.416 325.904 139.912 325.451C140.409 324.998 140.684 324.429 140.738 323.745C140.792 323.06 140.628 322.445 140.245 321.899Z" fill="#303030"/>
<path d="M131.795 323.303L135.802 329.854L134.847 330.438L134.304 329.551C134.254 329.857 134.179 330.134 134.081 330.382C133.801 331.028 133.356 331.538 132.747 331.911L132.474 332.078L131.889 331.122L132.299 330.872C132.863 330.527 133.225 330.036 133.386 329.4C133.547 328.764 133.436 328.132 133.052 327.504L130.839 323.887L131.795 323.303Z" fill="#303030"/>
<path d="M128.521 326.733L128.076 327.773C127.858 327.631 127.63 327.521 127.393 327.444C126.867 327.253 126.338 327.265 125.803 327.479C125.298 327.682 124.956 327.946 124.776 328.271C124.6 328.606 124.582 328.946 124.721 329.293C124.84 329.59 125.069 329.774 125.408 329.845C125.751 329.925 126.132 329.945 126.552 329.903C126.972 329.86 127.396 329.828 127.823 329.806C128.255 329.793 128.662 329.877 129.045 330.057C129.427 330.237 129.71 330.554 129.893 331.009C130.108 331.544 130.072 332.099 129.785 332.673C129.503 333.258 129.015 333.69 128.322 333.968C127.738 334.202 127.103 334.267 126.418 334.163C126.125 334.12 125.863 334.041 125.633 333.927L126.077 332.886C126.256 332.987 126.434 333.059 126.613 333.102C127.108 333.191 127.549 333.158 127.935 333.003C128.331 332.844 128.611 332.611 128.775 332.303C128.939 331.996 128.965 331.704 128.854 331.427C128.738 331.14 128.511 330.961 128.173 330.89C127.838 330.829 127.46 330.82 127.04 330.862C126.625 330.914 126.201 330.946 125.769 330.958C125.341 330.981 124.932 330.892 124.542 330.693C124.155 330.503 123.868 330.175 123.682 329.71C123.435 329.097 123.466 328.486 123.774 327.88C124.077 327.287 124.624 326.832 125.416 326.514C126.158 326.216 126.9 326.16 127.641 326.345C127.97 326.42 128.263 326.549 128.521 326.733Z" fill="#303030"/>
<path d="M124.035 337.397C124.203 337.499 124.311 337.648 124.36 337.844C124.409 338.041 124.383 338.223 124.281 338.391C124.18 338.559 124.031 338.668 123.835 338.717C123.638 338.765 123.456 338.739 123.288 338.638C123.12 338.537 123.011 338.388 122.962 338.191C122.914 337.994 122.94 337.812 123.041 337.644C123.142 337.476 123.291 337.368 123.488 337.319C123.685 337.27 123.867 337.296 124.035 337.397ZM121.739 327.944L123.588 335.398L122.501 335.668L120.652 328.214L121.739 327.944Z" fill="#303030"/>
<path d="M118.157 330.833L118.676 335.363L120.107 335.199L120.225 336.232L119.351 336.332C118.927 336.381 118.746 336.67 118.806 337.2L119.007 338.949L117.974 339.067L117.682 336.524L116.013 336.715L115.895 335.682L117.564 335.49L117.045 330.96C116.953 330.165 116.564 329.807 115.875 329.886C115.61 329.917 115.37 329.982 115.156 330.081C115.147 330.093 115.106 330.114 115.035 330.144C114.953 330.185 114.898 330.218 114.869 330.243L114.75 329.21C114.78 329.185 114.83 329.152 114.9 329.112C114.972 329.082 115.023 329.061 115.054 329.046C115.268 328.947 115.518 328.88 115.804 328.848C116.472 328.771 117.013 328.902 117.427 329.241C117.831 329.582 118.075 330.112 118.157 330.833Z" fill="#303030"/>
<path d="M114.479 326.075L114.41 327.113C114.317 327.064 114.234 327.032 114.16 327.016C113.982 326.951 113.803 326.912 113.622 326.9C112.962 326.857 112.457 327.224 112.106 328.003L111.633 329.094L114.24 336.963L113.043 336.884L110.98 330.494L108.094 336.557L106.896 336.478L110.989 327.929C111.361 327.141 111.745 326.589 112.14 326.273C112.525 325.957 112.988 325.816 113.531 325.852C113.776 325.868 114.003 325.91 114.212 325.977C114.286 325.993 114.375 326.025 114.479 326.075Z" fill="#303030"/>
</svg>
