<svg width="282" height="79" viewBox="0 0 282 79" fill="none" xmlns="http://www.w3.org/2000/svg">
<path d="M220.28 46V38.32H221.4V42.4L225.24 38.32H226.6L223.64 41.44L226.92 46H225.64L222.92 42.24L221.4 43.84V46H220.28ZM234.33 45.008C233.573 45.776 232.65 46.16 231.562 46.16C230.474 46.16 229.546 45.776 228.778 45.008C228.021 44.2293 227.642 43.28 227.642 42.16C227.642 41.04 228.021 40.096 228.778 39.328C229.546 38.5493 230.474 38.16 231.562 38.16C232.65 38.16 233.573 38.5493 234.33 39.328C235.098 40.096 235.482 41.04 235.482 42.16C235.482 43.28 235.098 44.2293 234.33 45.008ZM229.578 44.256C230.133 44.832 230.794 45.12 231.562 45.12C232.33 45.12 232.986 44.8373 233.53 44.272C234.085 43.696 234.362 42.992 234.362 42.16C234.362 41.328 234.085 40.6293 233.53 40.064C232.986 39.488 232.33 39.2 231.562 39.2C230.794 39.2 230.133 39.488 229.578 40.064C229.034 40.6293 228.762 41.328 228.762 42.16C228.762 42.9813 229.034 43.68 229.578 44.256ZM237.483 46V38.32H238.363L241.403 42.16L244.443 38.32H245.323V46H244.203V40.32L241.403 43.84L238.603 40.32V46H237.483ZM252.529 46V44.96C252.369 45.184 252.167 45.3867 251.921 45.568C251.356 45.9627 250.732 46.16 250.049 46.16C249.271 46.16 248.62 45.936 248.097 45.488C247.585 45.0293 247.329 44.5067 247.329 43.92C247.329 42.6187 248.076 41.8453 249.569 41.6L252.529 41.12C252.529 40.5547 252.348 40.096 251.985 39.744C251.633 39.3813 251.175 39.2 250.609 39.2C250.055 39.2 249.527 39.3867 249.025 39.76C248.791 39.9627 248.599 40.1493 248.449 40.32L247.729 39.6C247.932 39.3333 248.183 39.0933 248.481 38.88C249.132 38.4 249.841 38.16 250.609 38.16C251.484 38.16 252.209 38.4427 252.785 39.008C253.361 39.5733 253.649 40.2773 253.649 41.12V46H252.529ZM252.529 42.56V42.08L249.889 42.56C248.929 42.7307 248.449 43.184 248.449 43.92C248.449 44.2613 248.588 44.5493 248.865 44.784C249.153 45.008 249.548 45.12 250.049 45.12C250.785 45.12 251.383 44.8853 251.841 44.416C252.3 43.9467 252.529 43.328 252.529 42.56ZM256.202 46V38.32H257.322V41.6H261.722V38.32H262.842V46H261.722V42.64H257.322V46H256.202ZM264.125 47.92V44.96H264.685C264.941 44.6933 265.165 44.3413 265.357 43.904C265.816 42.9227 266.045 41.808 266.045 40.56V38.32H271.325V44.96H272.525V47.92H271.405V46H265.245V47.92H264.125ZM265.885 44.96H270.205V39.36H267.165V40.56C267.165 41.7653 266.952 42.8693 266.525 43.872C266.333 44.2987 266.12 44.6613 265.885 44.96ZM278.92 46V44.96C278.76 45.184 278.557 45.3867 278.312 45.568C277.747 45.9627 277.123 46.16 276.44 46.16C275.661 46.16 275.011 45.936 274.488 45.488C273.976 45.0293 273.72 44.5067 273.72 43.92C273.72 42.6187 274.467 41.8453 275.96 41.6L278.92 41.12C278.92 40.5547 278.739 40.096 278.376 39.744C278.024 39.3813 277.565 39.2 277 39.2C276.445 39.2 275.917 39.3867 275.416 39.76C275.181 39.9627 274.989 40.1493 274.84 40.32L274.12 39.6C274.323 39.3333 274.573 39.0933 274.872 38.88C275.523 38.4 276.232 38.16 277 38.16C277.875 38.16 278.6 38.4427 279.176 39.008C279.752 39.5733 280.04 40.2773 280.04 41.12V46H278.92ZM278.92 42.56V42.08L276.28 42.56C275.32 42.7307 274.84 43.184 274.84 43.92C274.84 44.2613 274.979 44.5493 275.256 44.784C275.544 45.008 275.939 45.12 276.44 45.12C277.176 45.12 277.773 44.8853 278.232 44.416C278.691 43.9467 278.92 43.328 278.92 42.56Z" fill="#101010"/>
<path d="M93 40.5H203.5M192.5 29C192.606 35.1497 192.435 39 201.935 40.5M192.768 52C192.874 45.8503 192.703 42 202.203 40.5" stroke="#101010"/>
<path d="M9.9475 16.6219L10.9186 16.5225C11.0068 17.0598 11.0282 17.5628 10.9828 18.0313C10.8626 19.203 10.4192 20.2124 9.65285 21.0595C8.67862 22.1363 7.4741 22.7101 6.03927 22.7811C4.60444 22.8521 3.34927 22.3999 2.27374 21.4246C1.19822 20.4492 0.625 19.2432 0.554091 17.8067C0.483183 16.3702 0.934842 15.1136 1.90907 14.0368C2.66897 13.1969 3.62563 12.6661 4.77905 12.4444C5.28128 12.351 5.76997 12.3303 6.24513 12.3822L6.242 13.3595C5.82867 13.3114 5.42522 13.3245 5.03163 13.3988C4.11431 13.5471 3.32441 13.9873 2.66194 14.7195C1.88256 15.581 1.52447 16.5827 1.5877 17.7247C1.65024 18.8531 2.12248 19.8172 3.00441 20.617C3.88634 21.4168 4.89474 21.7955 6.02962 21.753C7.16381 21.6969 8.1206 21.2381 8.89998 20.3767C9.56895 19.6373 9.93839 18.7962 10.0083 17.8532C10.0427 17.4401 10.0224 17.0297 9.9475 16.6219Z" fill="#101010"/>
<path d="M16.095 11.7803L16.997 11.9787C16.9777 12.29 16.9003 12.6271 16.7646 12.9899C16.4549 13.7633 15.9781 14.3562 15.3343 14.7685C14.5276 15.2853 13.6446 15.4312 12.6854 15.2063C11.7343 14.9761 10.9877 14.4367 10.4454 13.5882C9.90316 12.7397 9.72695 11.8349 9.91677 10.874C10.1066 9.91295 10.5886 9.1845 11.3628 8.68859C12.1695 8.17181 13.0151 8.02116 13.8993 8.23665C14.7917 8.44693 15.509 8.97632 16.0513 9.82483C16.0773 9.86563 16.1329 9.97952 16.2179 10.1665L16.2717 10.3046L11.4966 13.3461C11.8681 13.8555 12.3786 14.1781 13.0282 14.314C13.6807 14.4364 14.28 14.3228 14.826 13.9731C15.3231 13.6546 15.6874 13.1913 15.9189 12.5831C16.0213 12.276 16.08 12.0084 16.095 11.7803ZM11.0273 12.6118L15.0001 10.067C14.596 9.57843 14.1011 9.28026 13.5154 9.1725C12.9326 9.05135 12.3845 9.15521 11.8711 9.48408C11.3577 9.81294 11.0242 10.2795 10.8706 10.8839C10.717 11.4882 10.7693 12.0642 11.0273 12.6118Z" fill="#101010"/>
<path d="M20.5279 14.8586L16.9603 5.49169L17.9094 5.12932L18.2714 6.07959C18.3458 5.81277 18.4621 5.56102 18.6205 5.32434C18.9707 4.77597 19.4622 4.381 20.095 4.13943C20.9899 3.79777 21.8671 3.83089 22.7265 4.23877C23.5859 4.64666 24.2018 5.33931 24.5741 6.31673C24.9463 7.29414 24.9475 8.22147 24.5776 9.0987C24.2076 9.97594 23.5752 10.5854 22.6803 10.927C22.0475 11.1686 21.4181 11.2016 20.7921 11.0259C20.5165 10.9549 20.2623 10.8447 20.0293 10.6952L21.4771 14.4962L20.5279 14.8586ZM22.3442 10.0447C22.9679 9.80653 23.4071 9.36934 23.6617 8.73308C23.9164 8.09682 23.9041 7.41215 23.6249 6.67909C23.3457 5.94603 22.8995 5.42702 22.2864 5.12206C21.6732 4.81711 21.0548 4.78369 20.4311 5.02182C19.8435 5.24614 19.4168 5.68893 19.151 6.35019C18.8851 7.01145 18.8849 7.69052 19.1504 8.38738C19.4158 9.08424 19.8675 9.59075 20.5057 9.9069C21.1438 10.2231 21.7566 10.269 22.3442 10.0447Z" fill="#101010"/>
<path d="M29.2095 8.79482L28.2838 2.83706L25.8461 3.21674L25.7011 2.2836L31.5802 1.3679L31.7252 2.30104L29.2875 2.68072L30.2133 8.63848L29.2095 8.79482Z" fill="#101010"/>
<path d="M33.7484 8.27671L33.8276 1.30337L34.8434 1.31494L34.7839 6.54495L39.0515 1.36289L39.9221 1.37281L39.8428 8.34615L38.8271 8.33458L38.8866 3.10457L34.619 8.28663L33.7484 8.27671Z" fill="#101010"/>
<path d="M44.2424 13.7599L44.9382 10.9389C43.8017 10.6579 42.9542 10.0942 42.3957 9.24776C41.8395 8.39192 41.6855 7.46092 41.9336 6.45476C42.1818 5.4486 42.7498 4.70111 43.6377 4.21227C44.5279 3.71403 45.5412 3.6054 46.6777 3.88637L47.4083 0.924316L48.3945 1.16814L47.6639 4.13019C48.8004 4.41117 49.6467 4.97958 50.2029 5.83542C50.7614 6.68186 50.9166 7.60816 50.6684 8.61432C50.4203 9.62048 49.8511 10.3727 48.9609 10.8709C48.073 11.3598 47.0608 11.4637 45.9244 11.1827L45.2286 14.0037L44.2424 13.7599ZM45.1643 10.0221L46.4516 4.8032C45.5875 4.58957 44.8263 4.66576 44.168 5.03178C43.5214 5.39071 43.1054 5.94631 42.9198 6.69858C42.732 7.46025 42.8407 8.1506 43.2461 8.76961C43.6514 9.38862 44.2908 9.8061 45.1643 10.0221ZM47.4378 5.04702L46.1505 10.2659C47.024 10.4818 47.784 10.4103 48.4306 10.0514C49.0772 9.69247 49.4944 9.13217 49.6823 8.3705C49.8678 7.61823 49.7532 6.93143 49.3385 6.31009C48.9354 5.68168 48.3018 5.26065 47.4378 5.04702Z" fill="#101010"/>
<path d="M50.5891 11.5533L54.9005 6.07588L55.6984 6.70537L52.4648 10.8134L59.0037 9.31325L59.6876 9.85282L55.3762 15.3302L54.5783 14.7007L57.8119 10.5927L51.273 12.0928L50.5891 11.5533Z" fill="#101010"/>
<path d="M57.0583 16.9L62.5693 12.635L63.1906 13.4396L58.4258 17.1271L60.7777 20.1733L65.5424 16.4858L66.1637 17.2904L61.399 20.9779L62.0646 21.84L59.9405 23.4838L59.3193 22.6792L60.697 21.6129L57.0583 16.9Z" fill="#101010"/>
<path d="M62.2649 23.6822L68.6585 20.9147L69.0616 21.8482L64.2664 23.9238L70.7317 25.7155L71.0772 26.5157L64.6836 29.2832L64.2805 28.3497L69.0757 26.2741L62.6104 24.4824L62.2649 23.6822Z" fill="#101010"/>
<path d="M62.8457 31.1558L72.7238 29.5153L72.89 30.5186L71.8879 30.685C72.1343 30.811 72.3576 30.9752 72.5579 31.1776C73.0251 31.6302 73.3142 32.1909 73.425 32.8598C73.5817 33.8057 73.3751 34.6599 72.8051 35.4222C72.2351 36.1845 71.4348 36.6512 70.404 36.8224C69.3733 36.9935 68.4652 36.8105 67.68 36.2733C66.8947 35.7361 66.4237 34.9945 66.267 34.0485C66.1562 33.3796 66.2489 32.7555 66.5452 32.1761C66.6694 31.9198 66.8278 31.6923 67.0204 31.4934L63.012 32.1591L62.8457 31.1558ZM67.1975 33.894C67.3067 34.5533 67.6475 35.071 68.2198 35.4473C68.7921 35.8235 69.4647 35.9474 70.2378 35.8191C71.0109 35.6907 71.6075 35.356 72.0278 34.8149C72.4481 34.2738 72.6037 33.6736 72.4944 33.0143C72.3915 32.3932 72.0428 31.8866 71.4483 31.4944C70.8538 31.1022 70.189 30.9672 69.4542 31.0892C68.7193 31.2112 68.1337 31.5539 67.6975 32.1173C67.2613 32.6806 67.0946 33.2729 67.1975 33.894Z" fill="#101010"/>
<path d="M67.1888 43.9022C66.5513 43.1593 66.2733 42.2955 66.3547 41.3109C66.4361 40.3263 66.8527 39.5153 67.6044 38.8779C68.3649 38.2509 69.2513 37.9794 70.2637 38.0633C71.276 38.1472 72.1009 38.5606 72.7384 39.3035C73.3848 40.0569 73.6672 40.9259 73.5858 41.9104C73.5043 42.895 73.0834 43.7008 72.3228 44.3278C71.5712 44.9653 70.6892 45.242 69.6768 45.1581C68.6645 45.0742 67.8351 44.6555 67.1888 43.9022ZM68.2242 39.6582C67.662 40.117 67.3522 40.6939 67.2947 41.3889C67.2373 42.0839 67.4436 42.6987 67.9139 43.2334C68.393 43.7785 69.0086 44.0822 69.7607 44.1445C70.5127 44.2069 71.165 44.0083 71.7175 43.5487C72.2788 43.0996 72.5882 42.5275 72.6457 41.8325C72.7032 41.1375 72.4924 40.5175 72.0133 39.9723C71.543 39.4377 70.9319 39.1392 70.1798 39.0768C69.4374 39.0153 68.7856 39.2091 68.2242 39.6582Z" fill="#101010"/>
<path d="M66.327 46.5318L72.9532 48.6819L71.9689 51.7225C71.769 52.3399 71.4499 52.7759 71.0115 53.0308C70.573 53.2856 70.1007 53.3309 69.5946 53.1666C69.1896 53.0352 68.8846 52.7835 68.6796 52.4116C68.5988 52.253 68.5331 52.0789 68.4825 51.8894C68.3403 52.0775 68.1794 52.2289 67.9999 52.3437C67.5676 52.6107 67.08 52.6562 66.5371 52.48C65.9389 52.2859 65.526 51.9432 65.2986 51.4519C65.0774 50.9729 65.0772 50.3924 65.2979 49.7106L66.327 46.5318ZM69.9481 48.7759L69.277 50.849C69.0533 51.5401 69.2405 51.9827 69.8387 52.1768C70.4369 52.3709 70.8479 52.1224 71.0716 51.4314L71.7427 49.3582L69.9481 48.7759ZM66.9111 47.7904L66.1952 50.0018C65.9417 50.7849 66.183 51.296 66.9193 51.5349C67.6555 51.7738 68.1504 51.5017 68.404 50.7185L69.1198 48.5071L66.9111 47.7904Z" fill="#101010"/>
<path d="M61.719 56.9553L62.5296 57.4383C62.4293 57.2094 62.3653 56.9571 62.3377 56.6815C62.2923 56.0571 62.428 55.4785 62.7446 54.9458C63.1057 54.3382 63.5821 53.9345 64.1737 53.7346C64.7687 53.5481 65.2948 53.591 65.752 53.8635C66.7663 54.4677 67.0228 55.4095 66.5213 56.6887L65.5226 59.2214C65.9632 59.4839 66.4048 59.5554 66.8474 59.4359C67.2933 59.3296 67.6474 59.0559 67.9096 58.6147C68.1668 58.1819 68.2662 57.6832 68.2078 57.1186C68.1587 56.8414 68.1022 56.6049 68.0385 56.4091L68.9336 56.1816C69.0474 56.4636 69.1182 56.7706 69.146 57.1028C69.2183 57.8334 69.0764 58.4984 68.7202 59.0976C68.3145 59.7802 67.7578 60.2149 67.05 60.4019C66.3422 60.5888 65.6599 60.4867 65.0031 60.0954L61.1996 57.8293L61.719 56.9553ZM64.4002 58.5527L64.7743 58.7756L65.6247 56.4926C65.9369 55.6643 65.8062 55.0792 65.2326 54.7374C64.9665 54.5789 64.6777 54.5534 64.3662 54.6609C64.058 54.7816 63.7877 55.0375 63.5552 55.4287C63.2138 56.0031 63.1197 56.5782 63.2727 57.154C63.4258 57.7299 63.8016 58.1961 64.4002 58.5527Z" fill="#101010"/>
<path d="M59.9976 59.1307L64.9608 64.0238L64.248 64.7484L62.1283 62.6587L59.3283 65.5055L61.448 67.5953L60.7352 68.3199L55.7721 63.4268L56.4848 62.7022L58.6562 64.8429L61.4562 61.9961L59.2849 59.8553L59.9976 59.1307Z" fill="#101010"/>
<path d="M50.5922 64.2605L55.6193 73.0979L54.6735 73.6372L49.6464 64.7997L50.5922 64.2605Z" fill="#101010"/>
<path d="M39.6315 71.1279L38.7711 70.6663C38.9984 70.1715 39.2618 69.7427 39.5613 69.3798C40.3158 68.4762 41.2474 67.888 42.3561 67.6154C43.7654 67.2689 45.0844 67.4681 46.3132 68.2132C47.542 68.9583 48.3294 70.0363 48.6756 71.4472C49.0217 72.8582 48.8227 74.1787 48.0785 75.409C47.3343 76.6392 46.2576 77.4276 44.8483 77.7742C43.7491 78.0445 42.6595 77.9484 41.5798 77.4858C41.1113 77.2818 40.6947 77.0252 40.3299 76.716L40.8788 75.9078C41.1945 76.1792 41.5362 76.3944 41.9039 76.5534C42.747 76.9445 43.6477 77.0222 44.606 76.7865C45.7334 76.5093 46.5901 75.8797 47.1761 74.8978C47.7549 73.9277 47.9025 72.8641 47.6186 71.7071C47.3348 70.5502 46.7107 69.6713 45.7465 69.0707C44.7752 68.4817 43.7258 68.3258 42.5984 68.6031C41.6307 68.841 40.8543 69.3312 40.2694 70.0734C40.0099 70.3965 39.7973 70.748 39.6315 71.1279Z" fill="#101010"/>
<path d="M35.8795 68.3693L35.6451 78.5367L28.7539 78.3775L28.7773 77.3607L34.5805 77.4948L34.6608 74.0089L30.0183 73.9016L30.0418 72.8848L34.6843 72.9921L34.7914 68.3442L35.8795 68.3693Z" fill="#101010"/>
</svg>
