<svg width="48" height="48" viewBox="0 0 48 48" fill="none" xmlns="http://www.w3.org/2000/svg">
<circle cx="24" cy="24" r="24" fill="#F3FBFE"/>
<path fill-rule="evenodd" clip-rule="evenodd" d="M10.7186 24.0404C17.4295 21.0768 21.9045 19.123 24.1435 18.179C30.5365 15.4838 31.8649 15.0156 32.7307 15.0002C32.9212 14.9968 33.347 15.0446 33.6228 15.2714C33.8557 15.463 33.9197 15.7217 33.9504 15.9033C33.9811 16.0849 34.0192 16.4986 33.9889 16.8219C33.6424 20.5115 32.1434 29.465 31.3808 33.5974C31.0581 35.3459 30.4227 35.9322 29.8076 35.9896C28.4707 36.1143 27.4556 35.0941 26.1608 34.2338C24.1348 32.8876 22.9901 32.0496 21.0235 30.736C18.7507 29.2179 20.224 28.3835 21.5193 27.0199C21.8583 26.663 27.7484 21.2326 27.8624 20.74C27.8767 20.6784 27.8899 20.4488 27.7553 20.3275C27.6207 20.2062 27.422 20.2477 27.2787 20.2807C27.0754 20.3274 23.8388 22.4958 17.5686 26.786C16.6499 27.4254 15.8177 27.737 15.0721 27.7206C14.2502 27.7026 12.6691 27.2496 11.4937 26.8623C10.0521 26.3873 8.90628 26.1362 9.00606 25.3295C9.05802 24.9093 9.62888 24.4796 10.7186 24.0404Z" fill="#C4C5C5"/>
</svg>
