<svg width="48" height="48" viewBox="0 0 48 48" fill="none" xmlns="http://www.w3.org/2000/svg">
<circle cx="24" cy="24" r="24" fill="#F3FBFE"/>
<g clip-path="url(#clip0_94_940)">
<path d="M35.5216 18.1854C35.3859 17.6748 35.1185 17.2088 34.7462 16.8341C34.3738 16.4593 33.9095 16.1889 33.3998 16.05C31.5234 15.5454 24.0234 15.5454 24.0234 15.5454C24.0234 15.5454 16.5234 15.5454 14.6471 16.05C14.1374 16.1889 13.6731 16.4593 13.3007 16.8341C12.9284 17.2088 12.6609 17.6748 12.5253 18.1854C12.0234 20.07 12.0234 24 12.0234 24C12.0234 24 12.0234 27.93 12.5253 29.8145C12.6609 30.3251 12.9284 30.7911 13.3007 31.1658C13.6731 31.5406 14.1374 31.811 14.6471 31.95C16.5234 32.4545 24.0234 32.4545 24.0234 32.4545C24.0234 32.4545 31.5234 32.4545 33.3998 31.95C33.9095 31.811 34.3738 31.5406 34.7462 31.1658C35.1185 30.7911 35.3859 30.3251 35.5216 29.8145C36.0234 27.93 36.0234 24 36.0234 24C36.0234 24 36.0234 20.07 35.5216 18.1854Z" fill="#C4C5C5"/>
<path d="M21.5703 27.5689V20.4316L27.843 24.0003L21.5703 27.5689Z" fill="#F3FBFE"/>
</g>
<defs>
<clipPath id="clip0_94_940">
<rect width="24" height="24" fill="white" transform="translate(12 12)"/>
</clipPath>
</defs>
</svg>
