<svg width="86" height="86" viewBox="0 0 86 86" fill="none" xmlns="http://www.w3.org/2000/svg">
<path d="M10.3163 29.9727L0 25.6122L0.467199 24.5069L10.7835 28.8674L10.3163 29.9727Z" fill="#101010"/>
<path d="M11.5692 26.7446L5.19363 22.4627L5.81808 21.5329L6.74784 22.1574C6.64515 21.9085 6.58105 21.6213 6.55553 21.2958C6.52248 20.5798 6.6933 19.9428 7.06797 19.385C7.58537 18.6146 8.25258 18.1568 9.0696 18.0117C9.88662 17.8666 10.7069 18.0706 11.5304 18.6236L15.3159 21.1661L14.6914 22.0958L10.9059 19.5534C10.3481 19.1787 9.79386 19.0378 9.24327 19.1306C8.68384 19.2174 8.23165 19.5176 7.88671 20.0312C7.50015 20.6068 7.37824 21.2188 7.52098 21.8671C7.66082 22.5007 8.04508 23.0286 8.67378 23.4509L12.1936 25.8149L11.5692 26.7446Z" fill="#101010"/>
<path d="M15.7539 17.7286L12.57 14.4642L11.5391 15.4697L10.813 14.7252L11.4429 14.1107C11.7484 13.8128 11.7149 13.4729 11.3425 13.0912L10.1136 11.8312L10.8581 11.1051L12.6456 12.9377L13.8482 11.7646L14.5744 12.5091L13.3717 13.6822L16.5557 16.9465C17.1143 17.5192 17.6417 17.5635 18.1381 17.0794C18.329 16.8932 18.4785 16.6952 18.5868 16.4853C18.5869 16.4703 18.6063 16.429 18.6449 16.3616C18.6836 16.2791 18.707 16.2191 18.715 16.1814L19.4412 16.9259C19.4332 16.9636 19.4136 17.0199 19.3825 17.0949C19.3439 17.1623 19.3169 17.211 19.3015 17.241C19.1932 17.4509 19.0361 17.6563 18.8299 17.8574C18.3488 18.3267 17.8406 18.5541 17.3052 18.5399C16.7775 18.5183 16.2604 18.2478 15.7539 17.7286Z" fill="#101010"/>
<path d="M23.9046 11.2831L24.9011 11.4926C24.8829 11.8356 24.8008 12.2075 24.6549 12.6085C24.3211 13.4632 23.8013 14.1208 23.0956 14.5813C22.2112 15.1584 21.2392 15.3279 20.1794 15.0896C19.1285 14.8456 18.3 14.2591 17.6937 13.33C17.0875 12.401 16.8842 11.4064 17.084 10.3463C17.2838 9.28612 17.8079 8.47915 18.6566 7.92536C19.5409 7.34825 20.4716 7.17396 21.4487 7.40249C22.4346 7.62519 23.2307 8.20105 23.837 9.13006C23.8661 9.17473 23.9285 9.2996 24.0241 9.50468L24.0848 9.65616L18.8503 13.0529C19.2649 13.6103 19.831 13.9605 20.5485 14.1036C21.2692 14.232 21.9287 14.1009 22.5272 13.7103C23.0721 13.3548 23.4692 12.8409 23.7184 12.1688C23.8282 11.8296 23.8903 11.5344 23.9046 11.2831ZM18.3257 12.249L22.6804 9.40717C22.2301 8.87316 21.6815 8.54973 21.0347 8.43687C20.3909 8.30925 19.7877 8.42907 19.2249 8.79632C18.6622 9.16357 18.2991 9.6807 18.1357 10.3477C17.9724 11.0148 18.0357 11.6485 18.3257 12.249Z" fill="#101010"/>
<path d="M26.978 12.1927L24.0647 5.08675L25.101 4.66189L25.4955 5.62416C25.594 5.33016 25.7116 5.06867 25.8483 4.8397C26.2275 4.24617 26.7477 3.81385 27.4089 3.54275L27.705 3.42137L28.1299 4.45766L27.6858 4.63974C27.0739 4.8906 26.6378 5.31725 26.3775 5.91967C26.1172 6.52209 26.1267 7.16379 26.4059 7.84478L28.0143 11.7679L26.978 12.1927Z" fill="#101010"/>
<path d="M31.4102 10.3188L30.0023 2.769L31.1033 2.56368L31.3087 3.6647C31.4144 3.41712 31.5745 3.17025 31.789 2.92409C32.2771 2.39906 32.8514 2.07495 33.512 1.95176C34.4243 1.78164 35.2183 1.93739 35.894 2.41901C36.5697 2.90063 36.9985 3.62903 37.1804 4.60422L38.0163 9.08695L36.9153 9.29226L36.0794 4.80954C35.9562 4.14893 35.6687 3.65459 35.2169 3.32652C34.7631 2.98796 34.2322 2.87539 33.624 2.9888C32.9424 3.1159 32.4202 3.45743 32.0573 4.01337C31.7029 4.55688 31.5951 5.20088 31.734 5.94538L32.5112 10.1135L31.4102 10.3188Z" fill="#101010"/>
<path d="M44.4804 9.24457L44.545 8.20658C44.3714 8.42021 44.1565 8.60989 43.9004 8.77563C43.3116 9.13442 42.6766 9.2926 41.9952 9.25019C41.2181 9.20182 40.5826 8.93783 40.0887 8.45823C39.6062 7.96864 39.3832 7.43108 39.4196 6.84554C39.5005 5.54672 40.2938 4.82127 41.7994 4.66918L44.7835 4.374C44.8187 3.80975 44.6662 3.34071 44.3261 2.96686C43.9973 2.58302 43.5508 2.37355 42.9865 2.33843C42.4329 2.30397 41.8944 2.45747 41.3708 2.79894C41.124 2.98664 40.9208 3.16102 40.7611 3.32208L40.0872 2.55874C40.3061 2.30518 40.5712 2.08121 40.8825 1.88685C41.5618 1.44819 42.2846 1.25272 43.0511 1.30044C43.9241 1.35477 44.6305 1.68195 45.1703 2.28198C45.71 2.882 45.9537 3.60254 45.9014 4.44357L45.5982 9.31415L44.4804 9.24457ZM44.6941 5.81121L44.7239 5.33214L42.0592 5.64721C41.0904 5.75791 40.5832 6.18054 40.5375 6.91512C40.5163 7.2558 40.6368 7.55186 40.899 7.8033C41.1725 8.04476 41.5595 8.18106 42.0598 8.2122C42.7944 8.25793 43.4052 8.06082 43.8921 7.62089C44.3791 7.18096 44.6464 6.57773 44.6941 5.81121Z" fill="#101010"/>
<path d="M48.8017 7.87952L49.9446 3.46505L48.5505 3.10416L48.8112 2.09735L49.6631 2.3179C50.0762 2.42483 50.3495 2.22014 50.4832 1.70383L50.9243 0L51.9311 0.260649L51.2895 2.73895L52.9159 3.15999L52.6552 4.1668L51.0288 3.74575L49.886 8.16022C49.6855 8.93469 49.9208 9.4088 50.5921 9.58257C50.8502 9.6494 51.0971 9.67475 51.3326 9.6586C51.3456 9.65095 51.3909 9.64615 51.4686 9.64422C51.5592 9.63462 51.6227 9.62351 51.659 9.61088L51.3984 10.6177C51.362 10.6303 51.3037 10.6428 51.2234 10.655C51.1458 10.657 51.0901 10.6591 51.0565 10.6614C50.8209 10.6775 50.5637 10.6495 50.2849 10.5773C49.6344 10.4089 49.1765 10.0921 48.9113 9.62675C48.6565 9.16411 48.62 8.5817 48.8017 7.87952Z" fill="#101010"/>
<path d="M56.4929 2.27106C56.4163 2.09051 56.4161 1.90629 56.4921 1.71842C56.5681 1.53055 56.6964 1.39835 56.8769 1.32182C57.0575 1.24529 57.2417 1.24503 57.4296 1.32105C57.6174 1.39706 57.7496 1.52535 57.8262 1.7059C57.9027 1.88645 57.903 2.07067 57.827 2.25854C57.7509 2.44641 57.6226 2.57861 57.4421 2.65514C57.2615 2.73167 57.0773 2.73193 56.8895 2.65592C56.7016 2.5799 56.5694 2.45161 56.4929 2.27106ZM52.7996 11.2708L55.6802 4.15154L56.7184 4.57163L53.8378 11.6909L52.7996 11.2708Z" fill="#101010"/>
<path d="M61.2872 14.6954C60.2364 14.9388 59.2515 14.7693 58.3325 14.1869C57.4135 13.6046 56.8351 12.7835 56.5975 11.7237C56.3745 10.6606 56.5628 9.65605 57.1623 8.70999C57.7618 7.76393 58.5869 7.16922 59.6377 6.92586C60.7032 6.67919 61.6955 6.84704 62.6145 7.42939C63.5335 8.01174 64.1045 8.83447 64.3274 9.89756C64.5651 10.9574 64.3842 11.9603 63.7847 12.9063C63.1852 13.8524 62.3527 14.4488 61.2872 14.6954ZM57.6757 11.5167C57.836 12.3001 58.2404 12.8974 58.8891 13.3085C59.5379 13.7195 60.2433 13.8319 61.0054 13.6455C61.7822 13.4559 62.3933 13.0097 62.8386 12.3069C63.284 11.6041 63.4237 10.8655 63.2577 10.0911C63.1065 9.31334 62.7066 8.71894 62.0578 8.30787C61.4091 7.8968 60.6963 7.78609 59.9195 7.97575C59.1574 8.16211 58.5537 8.60668 58.1083 9.30947C57.6687 10.0032 57.5245 10.739 57.6757 11.5167Z" fill="#101010"/>
<path d="M62.665 16.9198L68.2806 11.6809L69.0447 12.4998L68.2257 13.2639C68.4914 13.2202 68.7856 13.2229 69.1084 13.2719C69.8133 13.402 70.395 13.7127 70.8534 14.2041C71.4864 14.8827 71.781 15.6363 71.7372 16.4649C71.6933 17.2936 71.3087 18.0462 70.5833 18.7229L67.249 21.8336L66.485 21.0146L69.8193 17.904C70.3107 17.4456 70.5736 16.9377 70.608 16.3804C70.6503 15.8159 70.4604 15.3074 70.0384 14.855C69.5654 14.3481 68.997 14.0906 68.3331 14.0827C67.6843 14.0752 67.0831 14.3298 66.5293 14.8464L63.429 17.7388L62.665 16.9198Z" fill="#101010"/>
<path d="M70.5839 27.3772L71.4939 26.8737C71.2204 26.8422 70.945 26.7629 70.6676 26.6361C70.0485 26.3325 69.5738 25.882 69.2433 25.2847C68.8663 24.6034 68.7473 23.9256 68.8862 23.2514C69.0397 22.5813 69.3731 22.1043 69.8864 21.8202C71.0251 21.1902 72.0632 21.4692 73.0009 22.657L74.8539 25.0147C75.3486 24.741 75.6621 24.3602 75.7945 23.8725C75.9414 23.3889 75.878 22.8998 75.6043 22.4051C75.3358 21.9198 74.9169 21.5482 74.3475 21.2903C74.0565 21.183 73.8003 21.1054 73.5786 21.0574L73.8601 20.0788C74.1915 20.127 74.5229 20.2302 74.8541 20.3882C75.5891 20.7252 76.1425 21.2296 76.5143 21.9016C76.9378 22.667 77.0416 23.4385 76.8258 24.2162C76.61 24.9939 76.1334 25.5867 75.3961 25.9946L71.1261 28.3572L70.5839 27.3772ZM73.5939 25.7118L74.0139 25.4794L72.3158 23.4018C71.7017 22.6444 71.0726 22.4439 70.4286 22.8002C70.13 22.9655 69.9451 23.2262 69.874 23.5825C69.8175 23.943 69.9105 24.3425 70.1533 24.7812C70.5096 25.4252 71.0041 25.8342 71.6368 26.0084C72.2695 26.1825 72.9219 26.0836 73.5939 25.7118Z" fill="#101010"/>
<path d="M71.9267 30.5289L82.4789 26.7752L82.8543 27.8304L72.3021 31.5842L71.9267 30.5289Z" fill="#101010"/>
<path d="M78.3167 36.391L85.1153 36.2497L85.1402 37.4494L78.3417 37.5908C77.3499 37.6114 76.5354 37.9484 75.8982 38.6018C75.261 39.2552 74.9523 40.0618 74.9723 41.0216C74.9922 41.9814 75.3341 42.7744 75.998 43.4008C76.6618 44.0271 77.4896 44.33 78.4814 44.3093L85.2799 44.168L85.3049 45.3677L78.5063 45.5091C77.2266 45.5357 76.135 45.1156 75.2314 44.2489C74.3388 43.3926 73.8791 42.3246 73.8525 41.0449C73.8259 39.7651 74.2406 38.6736 75.0967 37.7703C75.9637 36.8774 77.037 36.4177 78.3167 36.391Z" fill="#101010"/>
<path d="M73.7905 47.4993L81.1789 49.5955L80.8732 50.673L79.7958 50.3673C79.9705 50.5721 80.1204 50.8253 80.2455 51.1269C80.4988 51.7974 80.5337 52.456 80.3503 53.1025C80.097 53.9952 79.6044 54.6372 78.8726 55.0283C78.1407 55.4194 77.2976 55.4795 76.3433 55.2088L71.9564 53.9642L72.2621 52.8867L76.6489 54.1313C77.2954 54.3147 77.8661 54.277 78.3608 54.0182C78.8658 53.7624 79.2028 53.3368 79.3716 52.7416C79.5608 52.0746 79.4872 51.455 79.1506 50.8827C78.8213 50.3237 78.2924 49.9408 77.5639 49.7341L73.4848 48.5768L73.7905 47.4993Z" fill="#101010"/>
<path d="M79.6306 60.4185C79.8162 60.3554 80 60.3686 80.1818 60.4581C80.3636 60.5477 80.4861 60.6853 80.5492 60.8709C80.6123 61.0566 80.5991 61.2403 80.5096 61.4221C80.42 61.604 80.2824 61.7264 80.0967 61.7896C79.9111 61.8527 79.7273 61.8395 79.5455 61.7499C79.3637 61.6604 79.2412 61.5228 79.1781 61.3371C79.115 61.1514 79.1282 60.9677 79.2177 60.7859C79.3073 60.6041 79.4449 60.4816 79.6306 60.4185ZM70.9248 56.0772L77.8145 59.4705L77.3197 60.4753L70.43 57.082L70.9248 56.0772Z" fill="#101010"/>
<path d="M68.4409 60.4888L76.5224 62.3343L75.8346 63.3176L69.3654 61.8189L72.9916 67.3819L72.3037 68.3652L67.7989 61.4065L68.4409 60.4888Z" fill="#101010"/>
<path d="M62.8937 69.7486L61.8766 69.702C61.8394 69.3606 61.8606 68.9802 61.9402 68.5611C62.1323 67.6638 62.5396 66.9312 63.1621 66.3633C63.9422 65.6515 64.8744 65.328 65.9587 65.3928C67.0351 65.4648 67.9472 65.9105 68.6948 66.73C69.4425 67.5495 69.803 68.4985 69.7762 69.577C69.7495 70.6555 69.3618 71.5362 68.6132 72.2192C67.8331 72.9309 66.9425 73.2526 65.9415 73.184C64.9325 73.1227 64.0542 72.6823 63.3065 71.8628C63.2706 71.8234 63.1889 71.7102 63.0616 71.5231L62.9774 71.3834L67.5979 67.1894C67.099 66.706 66.484 66.4513 65.7528 66.4253C65.0209 66.4145 64.391 66.6499 63.8631 67.1315C63.3824 67.5701 63.0731 68.1411 62.9352 68.8445C62.8813 69.1969 62.8675 69.4983 62.8937 69.7486ZM68.2449 67.8986L64.4035 71.4034C64.9338 71.8581 65.5273 72.0891 66.1838 72.0966C66.8397 72.1191 67.4158 71.9039 67.9122 71.4509C68.4087 70.998 68.6839 70.4292 68.7379 69.7446C68.7919 69.06 68.6276 68.4447 68.2449 67.8986Z" fill="#101010"/>
<path d="M59.7946 69.3026L63.8024 75.8539L62.847 76.4383L62.3043 75.5512C62.2539 75.8571 62.1794 76.134 62.081 76.3818C61.8011 77.0282 61.3564 77.5378 60.7468 77.9108L60.4738 78.0778L59.8893 77.1224L60.2988 76.8719C60.8629 76.5268 61.2255 76.0361 61.3865 75.3999C61.5475 74.7637 61.4359 74.1317 61.0518 73.5039L58.8392 69.8871L59.7946 69.3026Z" fill="#101010"/>
<path d="M56.5207 72.7328L56.0764 73.7733C55.8583 73.631 55.6304 73.5213 55.3926 73.4444C54.8674 73.253 54.3376 73.2645 53.8031 73.4792C53.2982 73.6818 52.9559 73.9457 52.7761 74.2708C52.6002 74.6058 52.5818 74.9465 52.721 75.2929C52.8402 75.5899 53.0692 75.7738 53.408 75.8447C53.7508 75.9255 54.1321 75.9448 54.552 75.9026C54.9718 75.8605 55.3957 75.8282 55.8235 75.8059C56.2553 75.7934 56.6624 75.8771 57.0449 76.0569C57.4275 76.2366 57.7101 76.5541 57.8929 77.0095C58.1076 77.544 58.0716 78.0987 57.7852 78.6735C57.5027 79.2581 57.015 79.6896 56.3221 79.9678C55.7381 80.2023 55.1033 80.2675 54.4178 80.1634C54.1246 80.1202 53.8631 80.0413 53.6332 79.9267L54.0775 78.8863C54.2559 78.987 54.4342 79.0591 54.6126 79.1024C55.1079 79.1909 55.5485 79.1577 55.9346 79.0027C56.3305 78.8437 56.6105 78.6106 56.7745 78.3034C56.9385 77.9961 56.9649 77.704 56.8536 77.4268C56.7383 77.1397 56.5113 76.9608 56.1725 76.8899C55.8377 76.8289 55.4603 76.8195 55.0405 76.8617C54.6246 76.9137 54.2007 76.9459 53.769 76.9584C53.3411 76.9807 52.932 76.8921 52.5415 76.6926C52.155 76.5029 51.8684 76.1755 51.6816 75.7103C51.4352 75.0965 51.4661 74.4864 51.7743 73.8799C52.0766 73.2873 52.6237 72.832 53.4156 72.514C54.1579 72.216 54.8997 72.1595 55.6407 72.3448C55.9696 72.4196 56.2629 72.549 56.5207 72.7328Z" fill="#101010"/>
<path d="M52.0349 83.3975C52.2028 83.4987 52.3112 83.6477 52.36 83.8444C52.4088 84.0411 52.3826 84.2234 52.2814 84.3914C52.1802 84.5593 52.0313 84.6677 51.8346 84.7165C51.6379 84.7653 51.4555 84.7391 51.2875 84.6379C51.1196 84.5367 51.0112 84.3878 50.9624 84.1911C50.9136 83.9944 50.9398 83.812 51.041 83.644C51.1422 83.4761 51.2911 83.3677 51.4879 83.3189C51.6846 83.2701 51.8669 83.2963 52.0349 83.3975ZM49.7393 73.9441L51.5884 81.3982L50.5013 81.6678L48.6522 74.2138L49.7393 73.9441Z" fill="#101010"/>
<path d="M46.1573 76.8326L46.6764 81.3629L48.1071 81.199L48.2255 82.2322L47.3512 82.3324C46.9273 82.381 46.7457 82.6702 46.8064 83.2001L47.0068 84.9486L45.9736 85.067L45.6821 82.5237L44.013 82.7149L43.8946 81.6817L45.5637 81.4904L45.0446 76.9601C44.9535 76.1653 44.5635 75.8073 43.8747 75.8863C43.6098 75.9166 43.3703 75.9817 43.1562 76.0813C43.1469 76.0931 43.1063 76.1139 43.0345 76.1436C42.9534 76.1851 42.8982 76.2183 42.8688 76.2431L42.7504 75.2099C42.7798 75.185 42.8297 75.1525 42.9002 75.1122C42.972 75.0825 43.0232 75.0605 43.0537 75.0463C43.2678 74.9466 43.5179 74.8804 43.804 74.8476C44.4716 74.7711 45.0128 74.9023 45.4274 75.2413C45.8314 75.5815 46.0747 76.1119 46.1573 76.8326Z" fill="#101010"/>
<path d="M42.4785 72.0749L42.41 73.1127C42.317 73.0638 42.2336 73.0315 42.1598 73.016C41.9824 72.9508 41.8032 72.9122 41.6223 72.9003C40.9624 72.8567 40.4571 73.2242 40.1063 74.0028L39.6334 75.094L42.2405 82.9629L41.0431 82.8838L38.9797 76.4939L36.0938 82.5569L34.8965 82.4779L38.9888 73.929C39.3615 73.1412 39.7454 72.5893 40.1404 72.2733C40.5248 71.9566 40.9884 71.8162 41.5312 71.852C41.776 71.8682 42.0031 71.9099 42.2124 71.9772C42.2862 71.9927 42.3749 72.0253 42.4785 72.0749Z" fill="#101010"/>
</svg>
