<svg width="850" height="1050" viewBox="0 0 850 1050" fill="none" xmlns="http://www.w3.org/2000/svg">
<path d="M242.316 490.632C199.916 490.632 162.816 481.092 131.016 462.012C99.216 442.932 74.624 416.008 57.24 381.24C40.28 346.472 31.8 305.98 31.8 259.764C31.8 214.82 40.704 174.964 58.512 140.196C76.32 105.428 101.336 78.504 133.56 59.424C165.784 39.92 202.884 30.168 244.86 30.168C277.508 30.168 307.188 36.528 333.9 49.248C360.612 61.544 382.024 79.352 398.136 102.672C414.248 125.568 423.152 151.856 424.848 181.536L372.06 185.988C370.364 142.316 357.644 108.82 333.9 85.5C310.58 61.756 279.628 49.884 241.044 49.884C209.668 49.884 182.532 57.94 159.636 74.052C136.74 89.74 119.144 112.424 106.848 142.104C94.976 171.784 89.04 206.552 89.04 246.408C89.04 292.2 95.4 331.844 108.12 365.34C120.84 398.836 139.072 424.7 162.816 442.932C186.984 460.74 215.604 469.644 248.676 469.644C274.54 469.644 297.012 464.556 316.092 454.38C335.172 444.204 352.344 428.728 367.608 407.952V315.096C367.608 310.856 366.76 306.828 365.064 303.012C363.368 299.196 360.824 296.228 357.432 294.108L300.828 290.928V276.3H469.368V290.928L428.664 294.108C425.696 296.228 423.152 299.196 421.032 303.012C419.336 306.404 418.488 310.22 418.488 314.46V484.908H403.86C400.892 461.164 397.288 442.296 393.048 428.304C373.968 446.96 351.708 462.012 326.268 473.46C300.828 484.908 272.844 490.632 242.316 490.632ZM502.44 483V468.372L549.504 465.192C552.472 463.072 554.804 460.316 556.5 456.924C558.62 453.108 559.68 449.08 559.68 444.84V75.96C559.68 71.72 558.832 67.904 557.136 64.512C555.44 60.696 552.896 57.728 549.504 55.608L502.44 52.428V37.8H677.34V52.428L620.736 55.608C617.344 57.728 614.8 60.696 613.104 64.512C611.408 68.328 610.56 72.356 610.56 76.596V463.92H782.916L835.068 360.888L848.424 363.432C840.792 407.104 836.34 446.96 835.068 483H502.44ZM1085.16 490.632C1043.6 490.632 1006.72 481.092 974.491 462.012C942.691 442.932 917.887 416.008 900.079 381.24C882.695 346.472 874.003 306.828 874.003 262.308C874.003 216.94 882.907 176.66 900.715 141.468C918.947 106.276 944.387 78.928 977.035 59.424C1009.68 39.92 1047 30.168 1088.97 30.168C1130.52 30.168 1167.2 39.708 1199 58.788C1231.22 77.868 1256.03 104.792 1273.41 139.56C1291.22 174.328 1300.12 213.972 1300.12 258.492C1300.12 303.86 1291.01 344.14 1272.78 379.332C1254.97 414.524 1229.74 441.872 1197.09 461.376C1164.44 480.88 1127.13 490.632 1085.16 490.632ZM1087.06 470.28C1135.82 470.28 1173.98 452.048 1201.54 415.584C1229.1 378.696 1242.88 327.816 1242.88 262.944C1242.88 218.424 1236.52 180.264 1223.8 148.464C1211.51 116.664 1193.7 92.496 1170.38 75.96C1147.06 59 1119.29 50.52 1087.06 50.52C1038.3 50.52 1000.14 68.964 972.583 105.852C945.023 142.316 931.243 192.984 931.243 257.856C931.243 302.376 937.391 340.536 949.687 372.336C962.407 404.136 980.427 428.516 1003.75 445.476C1027.07 462.012 1054.84 470.28 1087.06 470.28Z" fill="black" fill-opacity="0.04"/>
<path d="M234.048 1020.63C194.616 1020.63 159.424 1011.3 128.472 992.648C97.944 973.568 74.2 946.644 57.24 911.876C40.28 877.108 31.8 836.828 31.8 791.036C31.8 746.092 40.492 706.236 57.876 671.468C75.26 636.276 99.64 608.928 131.016 589.424C162.392 569.92 198.644 560.168 239.772 560.168C272.844 560.168 302.524 566.74 328.812 579.884C355.1 593.028 375.876 611.684 391.14 635.852C406.828 659.596 415.308 686.944 416.58 717.896L364.428 722.348C362.732 677.404 350.648 642.424 328.176 617.408C306.128 592.392 275.388 579.884 235.956 579.884C205.428 579.884 178.928 587.94 156.456 604.052C134.408 620.164 117.66 643.06 106.212 672.74C94.764 701.996 89.04 736.552 89.04 776.408C89.04 819.656 96.036 857.392 110.028 889.616C124.02 921.84 143.524 946.644 168.54 964.028C193.556 981.412 222.176 990.104 254.4 990.104C290.016 990.104 320.968 979.504 347.256 958.304C373.544 936.68 394.532 904.244 410.22 860.996L426.12 866.084C409.16 916.964 384.568 955.548 352.344 981.836C320.12 1007.7 280.688 1020.63 234.048 1020.63ZM688.276 1020.63C646.724 1020.63 609.836 1011.09 577.612 992.012C545.812 972.932 521.008 946.008 503.2 911.24C485.816 876.472 477.124 836.828 477.124 792.308C477.124 746.94 486.028 706.66 503.836 671.468C522.068 636.276 547.508 608.928 580.156 589.424C612.804 569.92 650.116 560.168 692.092 560.168C733.644 560.168 770.32 569.708 802.12 588.788C834.344 607.868 859.148 634.792 876.532 669.56C894.34 704.328 903.244 743.972 903.244 788.492C903.244 833.86 894.128 874.14 875.896 909.332C858.088 944.524 832.86 971.872 800.212 991.376C767.564 1010.88 730.252 1020.63 688.276 1020.63ZM690.184 1000.28C738.944 1000.28 777.104 982.048 804.664 945.584C832.224 908.696 846.004 857.816 846.004 792.944C846.004 748.424 839.644 710.264 826.924 678.464C814.628 646.664 796.82 622.496 773.5 605.96C750.18 589 722.408 580.52 690.184 580.52C641.424 580.52 603.264 598.964 575.704 635.852C548.144 672.316 534.364 722.984 534.364 787.856C534.364 832.376 540.512 870.536 552.808 902.336C565.528 934.136 583.548 958.516 606.868 975.476C630.188 992.012 657.96 1000.28 690.184 1000.28ZM917.4 1013V998.372L952.38 994.556L1122.19 564.62H1134.91L1309.81 994.556L1345.43 998.372V1013H1173.71V998.372L1237.94 995.192C1242.18 992.648 1244.73 988.832 1245.58 983.744C1246.42 978.232 1245.58 972.084 1243.03 965.3L1112.65 636.488L986.088 965.3C983.544 972.084 982.696 978.232 983.544 983.744C984.392 988.832 986.936 992.648 991.176 995.192L1055.41 998.372V1013H917.4ZM1012.8 866.72L1019.8 847.64H1223.95V866.72H1012.8ZM1561.95 1020.63C1522.51 1020.63 1487.32 1011.3 1456.37 992.648C1425.84 973.568 1402.1 946.644 1385.14 911.876C1368.18 877.108 1359.7 836.828 1359.7 791.036C1359.7 746.092 1368.39 706.236 1385.77 671.468C1403.16 636.276 1427.54 608.928 1458.91 589.424C1490.29 569.92 1526.54 560.168 1567.67 560.168C1600.74 560.168 1630.42 566.74 1656.71 579.884C1683 593.028 1703.77 611.684 1719.04 635.852C1734.73 659.596 1743.21 686.944 1744.48 717.896L1692.33 722.348C1690.63 677.404 1678.55 642.424 1656.07 617.408C1634.03 592.392 1603.29 579.884 1563.85 579.884C1533.33 579.884 1506.83 587.94 1484.35 604.052C1462.31 620.164 1445.56 643.06 1434.11 672.74C1422.66 701.996 1416.94 736.552 1416.94 776.408C1416.94 819.656 1423.93 857.392 1437.93 889.616C1451.92 921.84 1471.42 946.644 1496.44 964.028C1521.45 981.412 1550.07 990.104 1582.3 990.104C1617.91 990.104 1648.87 979.504 1675.15 958.304C1701.44 936.68 1722.43 904.244 1738.12 860.996L1754.02 866.084C1737.06 916.964 1712.47 955.548 1680.24 981.836C1648.02 1007.7 1608.59 1020.63 1561.95 1020.63Z" fill="black" fill-opacity="0.04"/>
</svg>
