<svg width="317" height="288" viewBox="0 0 317 288" fill="none" xmlns="http://www.w3.org/2000/svg">
<g filter="url(#filter0_d_94_625)">
<rect x="48" y="48" width="221" height="192" rx="28" fill="#DBF8FF" fill-opacity="0.8" shape-rendering="crispEdges"/>
<path d="M65.44 107V95.8H70.16C71.248 95.8 72.1173 96.088 72.768 96.664C73.4293 97.2293 73.76 97.928 73.76 98.76C73.76 99.4853 73.504 100.093 72.992 100.584C72.7467 100.808 72.496 100.973 72.24 101.08C72.6133 101.187 72.96 101.368 73.28 101.624C73.9733 102.211 74.32 102.936 74.32 103.8C74.32 104.696 73.968 105.453 73.264 106.072C72.5707 106.691 71.6427 107 70.48 107H65.44ZM67.84 104.92H70.32C70.7893 104.92 71.1573 104.797 71.424 104.552C71.7013 104.307 71.84 103.976 71.84 103.56C71.84 103.144 71.7013 102.813 71.424 102.568C71.1573 102.323 70.7893 102.2 70.32 102.2H67.84V104.92ZM67.84 100.12H70C70.3947 100.12 70.704 100.019 70.928 99.816C71.1627 99.6027 71.28 99.3307 71.28 99C71.28 98.6693 71.1627 98.4027 70.928 98.2C70.704 97.9867 70.3947 97.88 70 97.88H67.84V100.12ZM80.4869 107V106.04H80.4069C80.2149 106.275 80.0175 106.461 79.8149 106.6C79.3455 106.973 78.7695 107.16 78.0869 107.16C77.3722 107.16 76.7909 106.952 76.3429 106.536C75.9055 106.109 75.6869 105.571 75.6869 104.92C75.6869 104.28 75.8895 103.736 76.2949 103.288C76.7109 102.829 77.2815 102.536 78.0069 102.408L80.4869 101.96C80.4442 101.661 80.3055 101.416 80.0709 101.224C79.8362 101.021 79.5215 100.92 79.1269 100.92C78.6362 100.92 78.2042 101.069 77.8309 101.368C77.6389 101.507 77.4842 101.651 77.3669 101.8L76.0869 100.52C76.3215 100.232 76.5935 99.9813 76.9029 99.768C77.6495 99.256 78.4442 99 79.2869 99C80.2682 99 81.0735 99.2987 81.7029 99.896C82.3322 100.493 82.6469 101.235 82.6469 102.12V107H80.4869ZM80.4869 103.64V103.48L78.7269 103.8C78.1402 103.917 77.8469 104.184 77.8469 104.6C77.8469 105.133 78.1669 105.4 78.8069 105.4C79.2869 105.4 79.6869 105.235 80.0069 104.904C80.3269 104.573 80.4869 104.152 80.4869 103.64ZM84.7275 107V99.16H86.8875V105H89.0475V99.16H91.2075V105H93.3675V99.16H95.5275V107H84.7275ZM97.5244 107V99.16H99.6844V103.64L103.044 99.16H104.964V107H102.804V102.52L99.4444 107H97.5244ZM110.399 110.36V99.16H112.559V100.28H112.639C112.789 100.056 112.991 99.8427 113.247 99.64C113.823 99.2133 114.447 99 115.119 99C116.069 99 116.89 99.3893 117.583 100.168C118.287 100.947 118.639 101.917 118.639 103.08C118.639 104.253 118.287 105.229 117.583 106.008C116.89 106.776 116.069 107.16 115.119 107.16C114.447 107.16 113.823 106.947 113.247 106.52C112.991 106.317 112.789 106.104 112.639 105.88H112.559V110.36H110.399ZM113.055 104.568C113.439 104.963 113.914 105.16 114.479 105.16C115.045 105.16 115.519 104.963 115.903 104.568C116.287 104.173 116.479 103.677 116.479 103.08C116.479 102.483 116.287 101.987 115.903 101.592C115.519 101.197 115.045 101 114.479 101C113.914 101 113.439 101.197 113.055 101.592C112.671 101.987 112.479 102.483 112.479 103.08C112.479 103.677 112.671 104.173 113.055 104.568ZM126.163 104.36L127.283 105.88C127.059 106.104 126.771 106.317 126.419 106.52C125.651 106.947 124.819 107.16 123.923 107.16C122.771 107.16 121.79 106.76 120.979 105.96C120.168 105.16 119.763 104.2 119.763 103.08C119.763 101.96 120.163 101 120.963 100.2C121.763 99.4 122.723 99 123.843 99C124.92 99 125.843 99.384 126.611 100.152C127.379 100.92 127.763 101.843 127.763 102.92C127.763 103.027 127.747 103.256 127.715 103.608L127.683 103.88H122.003C122.131 104.275 122.366 104.6 122.707 104.856C123.059 105.112 123.518 105.24 124.083 105.24C124.68 105.24 125.198 105.096 125.635 104.808C125.848 104.669 126.024 104.52 126.163 104.36ZM122.003 102.28H125.523C125.395 101.896 125.176 101.576 124.867 101.32C124.558 101.053 124.19 100.92 123.763 100.92C123.336 100.92 122.968 101.053 122.659 101.32C122.35 101.576 122.131 101.896 122.003 102.28ZM128.488 105.72L129.688 104.44C129.837 104.589 130.035 104.739 130.28 104.888C130.717 105.176 131.213 105.32 131.768 105.32C132.515 105.32 132.888 105.08 132.888 104.6C132.888 104.12 132.515 103.88 131.768 103.88H130.808V102.12H131.768C132.067 102.12 132.301 102.056 132.472 101.928C132.643 101.8 132.728 101.651 132.728 101.48C132.728 101.309 132.643 101.16 132.472 101.032C132.301 100.904 132.067 100.84 131.768 100.84C131.299 100.84 130.861 100.947 130.456 101.16C130.296 101.245 130.12 101.352 129.928 101.48L128.728 100.2C128.984 99.9653 129.256 99.768 129.544 99.608C130.291 99.2027 131.085 99 131.928 99C132.877 99 133.635 99.224 134.2 99.672C134.765 100.12 135.048 100.643 135.048 101.24C135.048 101.805 134.792 102.269 134.28 102.632C134.045 102.803 133.795 102.925 133.528 103C133.859 103.085 134.136 103.203 134.36 103.352C134.925 103.704 135.208 104.2 135.208 104.84C135.208 105.48 134.915 106.029 134.328 106.488C133.752 106.936 132.952 107.16 131.928 107.16C130.968 107.16 130.115 106.92 129.368 106.44C129.005 106.216 128.712 105.976 128.488 105.72ZM136.326 110.12V108.12C136.432 108.163 136.518 108.189 136.582 108.2C136.774 108.253 136.982 108.28 137.206 108.28C137.835 108.28 138.288 107.96 138.566 107.32L138.726 106.92L135.686 99.16H138.006L139.846 104.36H139.926L141.686 99.16H144.006L140.806 107.64C140.464 108.547 140.048 109.224 139.558 109.672C139.078 110.131 138.48 110.36 137.766 110.36C137.382 110.36 137.04 110.323 136.742 110.248C136.699 110.237 136.63 110.216 136.534 110.184C136.438 110.163 136.368 110.141 136.326 110.12ZM143.766 107V105L143.958 105.048C144.107 105.069 144.23 105.08 144.326 105.08C144.624 105.08 144.854 105 145.014 104.84C145.184 104.68 145.323 104.323 145.43 103.768C145.547 103.213 145.606 102.424 145.606 101.4V99.16H152.006V107H149.846V101.16H147.766V101.4C147.766 105.293 146.806 107.24 144.886 107.24C144.555 107.24 144.278 107.203 144.054 107.128C143.883 107.053 143.787 107.011 143.766 107ZM156.247 105.08H157.687C157.964 105.08 158.178 105.011 158.327 104.872C158.487 104.723 158.567 104.525 158.567 104.28C158.567 104.035 158.487 103.843 158.327 103.704C158.178 103.555 157.964 103.48 157.687 103.48H156.247V105.08ZM154.087 107V99.16H156.247V101.56H157.847C158.711 101.56 159.42 101.821 159.975 102.344C160.53 102.856 160.807 103.501 160.807 104.28C160.807 105.059 160.53 105.709 159.975 106.232C159.42 106.744 158.711 107 157.847 107H154.087ZM162.97 107V101.16H160.49V99.16H167.61V101.16H165.13V107H162.97ZM173.128 107V106.04H173.048C172.856 106.275 172.658 106.461 172.456 106.6C171.986 106.973 171.41 107.16 170.728 107.16C170.013 107.16 169.432 106.952 168.984 106.536C168.546 106.109 168.328 105.571 168.328 104.92C168.328 104.28 168.53 103.736 168.936 103.288C169.352 102.829 169.922 102.536 170.648 102.408L173.128 101.96C173.085 101.661 172.946 101.416 172.712 101.224C172.477 101.021 172.162 100.92 171.768 100.92C171.277 100.92 170.845 101.069 170.472 101.368C170.28 101.507 170.125 101.651 170.008 101.8L168.728 100.52C168.962 100.232 169.234 99.9813 169.544 99.768C170.29 99.256 171.085 99 171.928 99C172.909 99 173.714 99.2987 174.344 99.896C174.973 100.493 175.288 101.235 175.288 102.12V107H173.128ZM173.128 103.64V103.48L171.368 103.8C170.781 103.917 170.488 104.184 170.488 104.6C170.488 105.133 170.808 105.4 171.448 105.4C171.928 105.4 172.328 105.235 172.648 104.904C172.968 104.573 173.128 104.152 173.128 103.64ZM178.892 107V101.16H176.412V99.16H183.532V101.16H181.052V107H178.892ZM192.326 107V99.16H194.486V107H192.326ZM186.966 105.08H188.246C188.523 105.08 188.736 105.011 188.886 104.872C189.046 104.723 189.126 104.525 189.126 104.28C189.126 104.035 189.046 103.843 188.886 103.704C188.736 103.555 188.523 103.48 188.246 103.48H186.966V105.08ZM184.806 107V99.16H186.966V101.56H188.406C189.27 101.56 189.979 101.821 190.534 102.344C191.088 102.856 191.366 103.501 191.366 104.28C191.366 105.059 191.088 105.709 190.534 106.232C189.979 106.744 189.27 107 188.406 107H184.806Z" fill="#4548F5"/>
<path d="M65.6 139V127.8H67.36V136.04L73.52 127.8H75.12V139H73.36V130.76L67.2 139H65.6ZM77.8388 139V131.32H79.4388V134.36H83.1988V131.32H84.7987V139H83.1988V135.8H79.4388V139H77.8388ZM85.9219 140.92V137.48H86.4819C86.7059 137.245 86.9192 136.931 87.1219 136.536C87.5485 135.683 87.7619 134.691 87.7619 133.56V131.32H93.3619V137.48H94.4819V140.92H92.8819V139H87.5219V140.92H85.9219ZM88.1619 137.48H91.7619V132.84H89.3619V133.56C89.3619 134.691 89.1592 135.683 88.7539 136.536C88.5832 136.888 88.3859 137.203 88.1619 137.48ZM95.9169 139V131.32H97.5169V136.44L101.517 131.32H102.957V139H101.357V133.88L97.3569 139H95.9169ZM105.198 139V131.32H108.798C109.566 131.32 110.185 131.523 110.654 131.928C111.123 132.333 111.358 132.824 111.358 133.4C111.358 133.869 111.198 134.264 110.878 134.584C110.739 134.733 110.579 134.845 110.398 134.92C110.633 135.016 110.846 135.144 111.038 135.304C111.465 135.709 111.678 136.195 111.678 136.76C111.678 137.379 111.427 137.907 110.926 138.344C110.425 138.781 109.769 139 108.958 139H105.198ZM106.798 137.56H108.878C109.23 137.56 109.502 137.475 109.694 137.304C109.897 137.123 109.998 136.888 109.998 136.6C109.998 136.312 109.897 136.083 109.694 135.912C109.502 135.731 109.23 135.64 108.878 135.64H106.798V137.56ZM106.798 134.36H108.718C109.358 134.36 109.678 134.093 109.678 133.56C109.678 133.027 109.358 132.76 108.718 132.76H106.798V134.36ZM113.433 139V131.32H115.033V136.44L119.033 131.32H120.473V139H118.873V133.88L114.873 139H113.433ZM121.594 140.92V137.48H122.154C122.378 137.245 122.591 136.931 122.794 136.536C123.22 135.683 123.434 134.691 123.434 133.56V131.32H129.034V137.48H130.154V140.92H128.554V139H123.194V140.92H121.594ZM123.834 137.48H127.434V132.84H125.034V133.56C125.034 134.691 124.831 135.683 124.426 136.536C124.255 136.888 124.058 137.203 123.834 137.48ZM130.953 142.12V140.6C130.995 140.621 131.086 140.664 131.225 140.728C131.427 140.803 131.657 140.84 131.913 140.84C132.542 140.84 132.995 140.493 133.273 139.8L133.593 139L130.473 131.32H132.233L134.393 137L136.553 131.32H138.312L134.953 139.88C134.302 141.533 133.369 142.36 132.153 142.36C131.822 142.36 131.534 142.323 131.289 142.248L130.953 142.12ZM143.913 139V137.88C143.763 138.104 143.561 138.317 143.305 138.52C142.729 138.947 142.105 139.16 141.433 139.16C140.686 139.16 140.073 138.941 139.593 138.504C139.113 138.067 138.873 137.539 138.873 136.92C138.873 136.291 139.07 135.763 139.465 135.336C139.87 134.909 140.419 134.637 141.113 134.52L143.913 134.04C143.913 133.624 143.763 133.283 143.465 133.016C143.166 132.739 142.782 132.6 142.312 132.6C141.843 132.6 141.358 132.776 140.857 133.128C140.675 133.256 140.494 133.427 140.312 133.64L139.273 132.6C139.486 132.323 139.742 132.083 140.041 131.88C140.713 131.4 141.47 131.16 142.312 131.16C143.262 131.16 144.03 131.443 144.617 132.008C145.214 132.563 145.513 133.267 145.513 134.12V139H143.913ZM143.913 135.56V135.32L141.673 135.72C140.873 135.859 140.473 136.205 140.473 136.76C140.473 137.048 140.585 137.293 140.809 137.496C141.043 137.699 141.358 137.8 141.753 137.8C142.361 137.8 142.873 137.587 143.289 137.16C143.705 136.733 143.913 136.2 143.913 135.56ZM146.545 139V137.48L146.737 137.528C146.886 137.549 147.009 137.56 147.105 137.56C147.436 137.56 147.692 137.475 147.873 137.304C148.065 137.123 148.225 136.728 148.353 136.12C148.481 135.512 148.545 134.659 148.545 133.56V131.32H154.465V139H152.865V132.84H150.145V133.56C150.145 134.648 150.081 135.571 149.953 136.328C149.825 137.075 149.638 137.651 149.393 138.056C149.148 138.451 148.87 138.733 148.561 138.904C148.262 139.075 147.91 139.16 147.505 139.16C147.26 139.16 147.03 139.133 146.817 139.08C146.742 139.069 146.652 139.043 146.545 139ZM158.298 137.56H160.058C160.495 137.56 160.831 137.453 161.066 137.24C161.301 137.027 161.418 136.733 161.418 136.36C161.418 135.987 161.301 135.693 161.066 135.48C160.831 135.267 160.495 135.16 160.058 135.16H158.298V137.56ZM156.698 139V131.32H158.298V133.72H160.058C160.965 133.72 161.685 133.965 162.218 134.456C162.751 134.947 163.018 135.581 163.018 136.36C163.018 137.139 162.751 137.773 162.218 138.264C161.685 138.755 160.965 139 160.058 139H156.698ZM164.698 139V131.32H166.298V134.36H170.058V131.32H171.658V139H170.058V135.8H166.298V139H164.698ZM181.181 139V131.32H182.781V139H181.181ZM175.501 137.56H177.101C177.539 137.56 177.875 137.453 178.109 137.24C178.344 137.027 178.461 136.733 178.461 136.36C178.461 135.987 178.344 135.693 178.109 135.48C177.875 135.267 177.539 135.16 177.101 135.16H175.501V137.56ZM173.901 139V131.32H175.501V133.72H177.101C178.008 133.72 178.728 133.965 179.261 134.456C179.795 134.947 180.061 135.581 180.061 136.36C180.061 137.139 179.795 137.773 179.261 138.264C178.728 138.755 178.008 139 177.101 139H173.901ZM185.026 139V131.32H186.626V136.44L190.626 131.32H192.066V139H190.466V133.88L186.466 139H185.026ZM186.226 127.8H187.426C187.426 128.12 187.533 128.387 187.746 128.6C187.96 128.813 188.226 128.92 188.546 128.92C188.866 128.92 189.133 128.813 189.346 128.6C189.56 128.387 189.666 128.12 189.666 127.8H190.866C190.866 128.44 190.648 128.973 190.21 129.4C189.773 129.827 189.218 130.04 188.546 130.04C187.874 130.04 187.32 129.827 186.882 129.4C186.445 128.973 186.226 128.44 186.226 127.8ZM197.667 139V131.32H204.627V139H203.027V132.84H199.267V139H197.667ZM207.542 138.008C206.774 137.229 206.39 136.28 206.39 135.16C206.39 134.04 206.774 133.096 207.542 132.328C208.321 131.549 209.27 131.16 210.39 131.16C211.51 131.16 212.454 131.549 213.222 132.328C214.001 133.096 214.39 134.04 214.39 135.16C214.39 136.28 214.001 137.229 213.222 138.008C212.454 138.776 211.51 139.16 210.39 139.16C209.27 139.16 208.321 138.776 207.542 138.008ZM208.678 136.952C209.137 137.411 209.707 137.64 210.39 137.64C211.073 137.64 211.643 137.411 212.102 136.952C212.561 136.483 212.79 135.885 212.79 135.16C212.79 134.435 212.561 133.843 212.102 133.384C211.643 132.915 211.073 132.68 210.39 132.68C209.707 132.68 209.137 132.915 208.678 133.384C208.219 133.843 207.99 134.435 207.99 135.16C207.99 135.885 208.219 136.483 208.678 136.952ZM215.031 140.92V137.48H215.591C215.815 137.245 216.029 136.931 216.231 136.536C216.658 135.683 216.871 134.691 216.871 133.56V131.32H222.471V137.48H223.591V140.92H221.991V139H216.631V140.92H215.031ZM217.271 137.48H220.871V132.84H218.471V133.56C218.471 134.691 218.269 135.683 217.863 136.536C217.693 136.888 217.495 137.203 217.271 137.48ZM224.066 139L226.946 135L224.306 131.32H226.146L227.906 133.8L229.666 131.32H231.506L228.866 135L231.746 139H229.906L227.906 136.2L225.906 139H224.066ZM233.542 138.008C232.774 137.229 232.39 136.28 232.39 135.16C232.39 134.04 232.774 133.096 233.542 132.328C234.321 131.549 235.27 131.16 236.39 131.16C237.51 131.16 238.454 131.549 239.222 132.328C240.001 133.096 240.39 134.04 240.39 135.16C240.39 136.28 240.001 137.229 239.222 138.008C238.454 138.776 237.51 139.16 236.39 139.16C235.27 139.16 234.321 138.776 233.542 138.008ZM234.678 136.952C235.137 137.411 235.707 137.64 236.39 137.64C237.073 137.64 237.643 137.411 238.102 136.952C238.561 136.483 238.79 135.885 238.79 135.16C238.79 134.435 238.561 133.843 238.102 133.384C237.643 132.915 237.073 132.68 236.39 132.68C235.707 132.68 235.137 132.915 234.678 133.384C234.219 133.843 233.99 134.435 233.99 135.16C233.99 135.885 234.219 136.483 234.678 136.952ZM241.031 140.92V137.48H241.591C241.815 137.245 242.029 136.931 242.231 136.536C242.658 135.683 242.871 134.691 242.871 133.56V131.32H248.471V137.48H249.591V140.92H247.991V139H242.631V140.92H241.031ZM243.271 137.48H246.871V132.84H244.471V133.56C244.471 134.691 244.269 135.683 243.863 136.536C243.693 136.888 243.495 137.203 243.271 137.48ZM65.12 161V153.32H66.72V156.84L70 153.32H72L69.04 156.44L72.24 161H70.4L68 157.56L66.72 158.92V161H65.12ZM76.7138 161V153.32H83.6737V161H82.0738V154.84H78.3138V161H76.7138ZM86.5889 160.008C85.8209 159.229 85.4369 158.28 85.4369 157.16C85.4369 156.04 85.8209 155.096 86.5889 154.328C87.3675 153.549 88.3169 153.16 89.4369 153.16C90.5569 153.16 91.5009 153.549 92.2689 154.328C93.0475 155.096 93.4369 156.04 93.4369 157.16C93.4369 158.28 93.0475 159.229 92.2689 160.008C91.5009 160.776 90.5569 161.16 89.4369 161.16C88.3169 161.16 87.3675 160.776 86.5889 160.008ZM87.7249 158.952C88.1835 159.411 88.7542 159.64 89.4369 159.64C90.1195 159.64 90.6902 159.411 91.1489 158.952C91.6075 158.483 91.8369 157.885 91.8369 157.16C91.8369 156.435 91.6075 155.843 91.1489 155.384C90.6902 154.915 90.1195 154.68 89.4369 154.68C88.7542 154.68 88.1835 154.915 87.7249 155.384C87.2662 155.843 87.0369 156.435 87.0369 157.16C87.0369 157.885 87.2662 158.483 87.7249 158.952ZM96.8819 161V154.84H94.2419V153.32H101.122V154.84H98.4819V161H96.8819ZM102.558 164.36V153.32H104.158V154.44C104.307 154.205 104.515 153.992 104.782 153.8C105.358 153.373 106.03 153.16 106.798 153.16C107.779 153.16 108.622 153.544 109.326 154.312C110.04 155.069 110.398 156.019 110.398 157.16C110.398 158.301 110.04 159.256 109.326 160.024C108.622 160.781 107.779 161.16 106.798 161.16C106.03 161.16 105.358 160.947 104.782 160.52C104.515 160.317 104.307 160.104 104.158 159.88V164.36H102.558ZM104.83 158.936C105.278 159.405 105.827 159.64 106.478 159.64C107.128 159.64 107.678 159.405 108.126 158.936C108.574 158.467 108.798 157.875 108.798 157.16C108.798 156.445 108.574 155.853 108.126 155.384C107.678 154.915 107.128 154.68 106.478 154.68C105.827 154.68 105.278 154.915 104.83 155.384C104.382 155.853 104.158 156.445 104.158 157.16C104.158 157.875 104.382 158.467 104.83 158.936ZM117.991 158.6L118.951 159.72C118.749 159.987 118.482 160.227 118.151 160.44C117.426 160.92 116.599 161.16 115.671 161.16C114.551 161.16 113.602 160.776 112.823 160.008C112.055 159.229 111.671 158.28 111.671 157.16C111.671 156.04 112.05 155.096 112.807 154.328C113.575 153.549 114.503 153.16 115.591 153.16C116.679 153.16 117.575 153.517 118.279 154.232C118.994 154.936 119.351 155.832 119.351 156.92C119.351 157.016 119.335 157.208 119.303 157.496L119.271 157.72H113.351C113.447 158.264 113.714 158.723 114.151 159.096C114.589 159.459 115.122 159.64 115.751 159.64C116.327 159.64 116.871 159.469 117.383 159.128C117.618 158.979 117.821 158.803 117.991 158.6ZM113.351 156.36H117.671C117.543 155.816 117.303 155.389 116.951 155.08C116.599 154.76 116.146 154.6 115.591 154.6C114.461 154.6 113.714 155.187 113.351 156.36ZM127.424 149.24L128.224 150.6C127.958 150.717 127.702 150.824 127.456 150.92C126.784 151.176 126.027 151.389 125.184 151.56C123.606 151.891 122.699 152.877 122.464 154.52C122.646 154.307 122.859 154.109 123.104 153.928C123.68 153.523 124.294 153.32 124.944 153.32C125.915 153.32 126.768 153.709 127.504 154.488C128.251 155.256 128.624 156.173 128.624 157.24C128.624 158.317 128.246 159.24 127.488 160.008C126.731 160.776 125.83 161.16 124.784 161.16C123.622 161.16 122.662 160.717 121.904 159.832C121.158 158.947 120.784 157.709 120.784 156.12C120.784 154.307 121.136 152.909 121.84 151.928C122.555 150.936 123.483 150.333 124.624 150.12C125.371 149.96 126.048 149.773 126.656 149.56C127.04 149.411 127.296 149.304 127.424 149.24ZM123.2 158.952C123.648 159.411 124.176 159.64 124.784 159.64C125.392 159.64 125.915 159.411 126.352 158.952C126.8 158.483 127.024 157.912 127.024 157.24C127.024 156.568 126.8 156.003 126.352 155.544C125.915 155.075 125.392 154.84 124.784 154.84C124.176 154.84 123.648 155.075 123.2 155.544C122.763 156.003 122.544 156.568 122.544 157.24C122.544 157.912 122.763 158.483 123.2 158.952ZM130.386 161V153.32H131.986V156.36H135.746V153.32H137.346V161H135.746V157.8H131.986V161H130.386ZM140.261 160.008C139.493 159.229 139.109 158.28 139.109 157.16C139.109 156.04 139.493 155.096 140.261 154.328C141.039 153.549 141.989 153.16 143.109 153.16C144.229 153.16 145.173 153.549 145.941 154.328C146.719 155.096 147.109 156.04 147.109 157.16C147.109 158.28 146.719 159.229 145.941 160.008C145.173 160.776 144.229 161.16 143.109 161.16C141.989 161.16 141.039 160.776 140.261 160.008ZM141.397 158.952C141.855 159.411 142.426 159.64 143.109 159.64C143.791 159.64 144.362 159.411 144.821 158.952C145.279 158.483 145.509 157.885 145.509 157.16C145.509 156.435 145.279 155.843 144.821 155.384C144.362 154.915 143.791 154.68 143.109 154.68C142.426 154.68 141.855 154.915 141.397 155.384C140.938 155.843 140.709 156.435 140.709 157.16C140.709 157.885 140.938 158.483 141.397 158.952ZM154.55 158.52L155.67 159.56C155.446 159.848 155.169 160.115 154.838 160.36C154.091 160.893 153.275 161.16 152.39 161.16C151.27 161.16 150.321 160.776 149.542 160.008C148.774 159.229 148.39 158.28 148.39 157.16C148.39 156.04 148.774 155.096 149.542 154.328C150.321 153.549 151.27 153.16 152.39 153.16C153.297 153.16 154.102 153.416 154.806 153.928C155.126 154.163 155.387 154.413 155.59 154.68L154.47 155.72C154.321 155.517 154.145 155.347 153.942 155.208C153.441 154.856 152.923 154.68 152.39 154.68C151.707 154.68 151.137 154.915 150.678 155.384C150.219 155.843 149.99 156.435 149.99 157.16C149.99 157.885 150.219 158.483 150.678 158.952C151.137 159.411 151.707 159.64 152.39 159.64C152.998 159.64 153.526 159.453 153.974 159.08C154.166 158.931 154.358 158.744 154.55 158.52ZM159.023 161V154.84H156.383V153.32H163.263V154.84H160.623V161H159.023ZM164.138 161L165.898 158.2C165.631 158.093 165.375 157.928 165.13 157.704C164.629 157.224 164.378 156.616 164.378 155.88C164.378 155.144 164.645 154.536 165.178 154.056C165.711 153.565 166.431 153.32 167.338 153.32H170.778V161H169.178V158.44H167.498L165.978 161H164.138ZM167.338 157H169.178V154.76H167.338C166.901 154.76 166.565 154.867 166.33 155.08C166.095 155.283 165.978 155.549 165.978 155.88C165.978 156.211 166.095 156.483 166.33 156.696C166.565 156.899 166.901 157 167.338 157ZM173.011 161V153.32H174.371L177.091 156.68L179.811 153.32H181.171V161H179.571V155.88L177.091 158.92L174.611 155.88V161H173.011ZM186.776 161V153.32H190.376C191.144 153.32 191.763 153.523 192.232 153.928C192.702 154.333 192.936 154.824 192.936 155.4C192.936 155.869 192.776 156.264 192.456 156.584C192.318 156.733 192.158 156.845 191.976 156.92C192.211 157.016 192.424 157.144 192.616 157.304C193.043 157.709 193.256 158.195 193.256 158.76C193.256 159.379 193.006 159.907 192.504 160.344C192.003 160.781 191.347 161 190.536 161H186.776ZM188.376 159.56H190.456C190.808 159.56 191.08 159.475 191.272 159.304C191.475 159.123 191.576 158.888 191.576 158.6C191.576 158.312 191.475 158.083 191.272 157.912C191.08 157.731 190.808 157.64 190.456 157.64H188.376V159.56ZM188.376 156.36H190.296C190.936 156.36 191.256 156.093 191.256 155.56C191.256 155.027 190.936 154.76 190.296 154.76H188.376V156.36ZM199.491 161V159.88C199.341 160.104 199.139 160.317 198.883 160.52C198.307 160.947 197.683 161.16 197.011 161.16C196.264 161.16 195.651 160.941 195.171 160.504C194.691 160.067 194.451 159.539 194.451 158.92C194.451 158.291 194.648 157.763 195.043 157.336C195.448 156.909 195.997 156.637 196.691 156.52L199.491 156.04C199.491 155.624 199.341 155.283 199.043 155.016C198.744 154.739 198.36 154.6 197.891 154.6C197.421 154.6 196.936 154.776 196.435 155.128C196.253 155.256 196.072 155.427 195.891 155.64L194.851 154.6C195.064 154.323 195.32 154.083 195.619 153.88C196.291 153.4 197.048 153.16 197.891 153.16C198.84 153.16 199.608 153.443 200.195 154.008C200.792 154.563 201.091 155.267 201.091 156.12V161H199.491ZM199.491 157.56V157.32L197.251 157.72C196.451 157.859 196.051 158.205 196.051 158.76C196.051 159.048 196.163 159.293 196.387 159.496C196.621 159.699 196.936 159.8 197.331 159.8C197.939 159.8 198.451 159.587 198.867 159.16C199.283 158.733 199.491 158.2 199.491 157.56ZM203.323 161V153.32H204.923V159.48H207.723V153.32H209.323V159.48H212.123V153.32H213.723V161H203.323ZM221.804 158.6L222.764 159.72C222.561 159.987 222.294 160.227 221.964 160.44C221.238 160.92 220.412 161.16 219.484 161.16C218.364 161.16 217.414 160.776 216.636 160.008C215.868 159.229 215.484 158.28 215.484 157.16C215.484 156.04 215.862 155.096 216.62 154.328C217.388 153.549 218.316 153.16 219.404 153.16C220.492 153.16 221.388 153.517 222.092 154.232C222.806 154.936 223.164 155.832 223.164 156.92C223.164 157.016 223.148 157.208 223.116 157.496L223.084 157.72H217.164C217.26 158.264 217.526 158.723 217.964 159.096C218.401 159.459 218.934 159.64 219.564 159.64C220.14 159.64 220.684 159.469 221.196 159.128C221.43 158.979 221.633 158.803 221.804 158.6ZM217.164 156.36H221.484C221.356 155.816 221.116 155.389 220.764 155.08C220.412 154.76 219.958 154.6 219.404 154.6C218.273 154.6 217.526 155.187 217.164 156.36ZM224.917 161V153.32H230.357V154.84H226.517V161H224.917ZM232.308 160.008C231.54 159.229 231.156 158.28 231.156 157.16C231.156 156.04 231.54 155.096 232.308 154.328C233.086 153.549 234.036 153.16 235.156 153.16C236.276 153.16 237.22 153.549 237.988 154.328C238.766 155.096 239.156 156.04 239.156 157.16C239.156 158.28 238.766 159.229 237.988 160.008C237.22 160.776 236.276 161.16 235.156 161.16C234.036 161.16 233.086 160.776 232.308 160.008ZM233.444 158.952C233.902 159.411 234.473 159.64 235.156 159.64C235.838 159.64 236.409 159.411 236.868 158.952C237.326 158.483 237.556 157.885 237.556 157.16C237.556 156.435 237.326 155.843 236.868 155.384C236.409 154.915 235.838 154.68 235.156 154.68C234.473 154.68 233.902 154.915 233.444 155.384C232.985 155.843 232.756 156.435 232.756 157.16C232.756 157.885 232.985 158.483 233.444 158.952ZM71.44 171.24L72.24 172.6C71.9733 172.717 71.7173 172.824 71.472 172.92C70.8 173.176 70.0427 173.389 69.2 173.56C67.6213 173.891 66.7147 174.877 66.48 176.52C66.6613 176.307 66.8747 176.109 67.12 175.928C67.696 175.523 68.3093 175.32 68.96 175.32C69.9307 175.32 70.784 175.709 71.52 176.488C72.2667 177.256 72.64 178.173 72.64 179.24C72.64 180.317 72.2613 181.24 71.504 182.008C70.7467 182.776 69.8453 183.16 68.8 183.16C67.6373 183.16 66.6773 182.717 65.92 181.832C65.1733 180.947 64.8 179.709 64.8 178.12C64.8 176.307 65.152 174.909 65.856 173.928C66.5707 172.936 67.4987 172.333 68.64 172.12C69.3867 171.96 70.064 171.773 70.672 171.56C71.056 171.411 71.312 171.304 71.44 171.24ZM67.216 180.952C67.664 181.411 68.192 181.64 68.8 181.64C69.408 181.64 69.9307 181.411 70.368 180.952C70.816 180.483 71.04 179.912 71.04 179.24C71.04 178.568 70.816 178.003 70.368 177.544C69.9307 177.075 69.408 176.84 68.8 176.84C68.192 176.84 67.664 177.075 67.216 177.544C66.7787 178.003 66.56 178.568 66.56 179.24C66.56 179.912 66.7787 180.483 67.216 180.952ZM74.4013 183V175.32H76.0013V180.44L80.0013 175.32H81.4413V183H79.8413V177.88L75.8413 183H74.4013ZM82.8025 181.8L83.8425 180.76C83.9918 180.931 84.1785 181.091 84.4025 181.24C84.8932 181.56 85.3998 181.72 85.9225 181.72C86.3492 181.72 86.6798 181.624 86.9145 181.432C87.1598 181.229 87.2825 180.979 87.2825 180.68C87.2825 180.413 87.1598 180.189 86.9145 180.008C86.6798 179.816 86.3492 179.72 85.9225 179.72H84.8825V178.28H85.8425C86.2265 178.28 86.5198 178.2 86.7225 178.04C86.9358 177.88 87.0425 177.693 87.0425 177.48C87.0425 177.224 86.9412 177.016 86.7385 176.856C86.5358 176.685 86.2372 176.6 85.8425 176.6C85.3518 176.6 84.9038 176.712 84.4985 176.936C84.3385 177.011 84.1732 177.117 84.0025 177.256L82.9625 176.216C83.1652 176.024 83.4052 175.848 83.6825 175.688C84.3652 175.336 85.0852 175.16 85.8425 175.16C86.7172 175.16 87.4158 175.373 87.9385 175.8C88.4612 176.227 88.7225 176.733 88.7225 177.32C88.7225 177.864 88.5092 178.307 88.0825 178.648C87.8585 178.819 87.6452 178.936 87.4425 179C87.7198 179.096 87.9705 179.224 88.1945 179.384C88.7065 179.789 88.9625 180.275 88.9625 180.84C88.9625 181.469 88.6852 182.013 88.1305 182.472C87.5758 182.931 86.8398 183.16 85.9225 183.16C85.0478 183.16 84.2692 182.936 83.5865 182.488C83.2558 182.275 82.9945 182.045 82.8025 181.8ZM90.7294 183V175.32H92.3294V178.36H96.0894V175.32H97.6894V183H96.0894V179.8H92.3294V183H90.7294ZM105.773 180.6L106.733 181.72C106.53 181.987 106.263 182.227 105.933 182.44C105.207 182.92 104.381 183.16 103.453 183.16C102.333 183.16 101.383 182.776 100.605 182.008C99.8365 181.229 99.4525 180.28 99.4525 179.16C99.4525 178.04 99.8312 177.096 100.589 176.328C101.357 175.549 102.285 175.16 103.373 175.16C104.461 175.16 105.357 175.517 106.061 176.232C106.775 176.936 107.133 177.832 107.133 178.92C107.133 179.016 107.117 179.208 107.085 179.496L107.053 179.72H101.133C101.229 180.264 101.495 180.723 101.933 181.096C102.37 181.459 102.903 181.64 103.533 181.64C104.109 181.64 104.653 181.469 105.165 181.128C105.399 180.979 105.602 180.803 105.773 180.6ZM101.133 178.36H105.453C105.325 177.816 105.085 177.389 104.733 177.08C104.381 176.76 103.927 176.6 103.373 176.6C102.242 176.6 101.495 177.187 101.133 178.36ZM114.566 180.52L115.686 181.56C115.462 181.848 115.184 182.115 114.854 182.36C114.107 182.893 113.291 183.16 112.406 183.16C111.286 183.16 110.336 182.776 109.558 182.008C108.79 181.229 108.406 180.28 108.406 179.16C108.406 178.04 108.79 177.096 109.558 176.328C110.336 175.549 111.286 175.16 112.406 175.16C113.312 175.16 114.118 175.416 114.822 175.928C115.142 176.163 115.403 176.413 115.606 176.68L114.486 177.72C114.336 177.517 114.16 177.347 113.958 177.208C113.456 176.856 112.939 176.68 112.406 176.68C111.723 176.68 111.152 176.915 110.694 177.384C110.235 177.843 110.006 178.435 110.006 179.16C110.006 179.885 110.235 180.483 110.694 180.952C111.152 181.411 111.723 181.64 112.406 181.64C113.014 181.64 113.542 181.453 113.99 181.08C114.182 180.931 114.374 180.744 114.566 180.52ZM121.678 183V181.88C121.529 182.104 121.326 182.317 121.07 182.52C120.494 182.947 119.87 183.16 119.198 183.16C118.451 183.16 117.838 182.941 117.358 182.504C116.878 182.067 116.638 181.539 116.638 180.92C116.638 180.291 116.835 179.763 117.23 179.336C117.635 178.909 118.185 178.637 118.878 178.52L121.678 178.04C121.678 177.624 121.529 177.283 121.23 177.016C120.931 176.739 120.547 176.6 120.078 176.6C119.609 176.6 119.123 176.776 118.622 177.128C118.441 177.256 118.259 177.427 118.078 177.64L117.038 176.6C117.251 176.323 117.507 176.083 117.806 175.88C118.478 175.4 119.235 175.16 120.078 175.16C121.027 175.16 121.795 175.443 122.382 176.008C122.979 176.563 123.278 177.267 123.278 178.12V183H121.678ZM121.678 179.56V179.32L119.438 179.72C118.638 179.859 118.238 180.205 118.238 180.76C118.238 181.048 118.35 181.293 118.574 181.496C118.809 181.699 119.123 181.8 119.518 181.8C120.126 181.8 120.638 181.587 121.054 181.16C121.47 180.733 121.678 180.2 121.678 179.56Z" fill="#4548F5"/>
</g>
<defs>
<filter id="filter0_d_94_625" x="0" y="0" width="317" height="288" filterUnits="userSpaceOnUse" color-interpolation-filters="sRGB">
<feFlood flood-opacity="0" result="BackgroundImageFix"/>
<feColorMatrix in="SourceAlpha" type="matrix" values="0 0 0 0 0 0 0 0 0 0 0 0 0 0 0 0 0 0 127 0" result="hardAlpha"/>
<feMorphology radius="16" operator="dilate" in="SourceAlpha" result="effect1_dropShadow_94_625"/>
<feOffset/>
<feGaussianBlur stdDeviation="16"/>
<feComposite in2="hardAlpha" operator="out"/>
<feColorMatrix type="matrix" values="0 0 0 0 0 0 0 0 0 0 0 0 0 0 0 0 0 0 0.25 0"/>
<feBlend mode="normal" in2="BackgroundImageFix" result="effect1_dropShadow_94_625"/>
<feBlend mode="normal" in="SourceGraphic" in2="effect1_dropShadow_94_625" result="shape"/>
</filter>
</defs>
</svg>
