<svg width="1027" height="288" viewBox="0 0 1027 288" fill="none" xmlns="http://www.w3.org/2000/svg">
<path d="M41.164 59.342L41.492 60.244L27.88 65.82H26.978V53.766H26.568C25.42 57.702 23.616 60.736 21.156 62.868C18.7507 64.9453 16.0447 65.984 13.038 65.984C9.97667 65.984 7.48933 65.0547 5.576 63.196C3.66267 61.2827 2.706 58.7953 2.706 55.734C2.706 53.11 3.444 50.896 4.92 49.092C6.45067 47.2333 8.91067 45.6207 12.3 44.254C15.744 42.8327 20.5 41.4387 26.568 40.072V38.268C26.568 33.4027 26.076 29.904 25.092 27.772C24.108 25.5853 22.5227 24.492 20.336 24.492C16.4 24.492 14.432 28.0453 14.432 35.152C14.432 35.9173 14.4867 37.1747 14.596 38.924L5.002 38.35C5.166 33.43 6.75133 29.7127 9.758 27.198C12.8193 24.6833 17.138 23.426 22.714 23.426C31.6793 23.426 36.162 27.772 36.162 36.464V58.112C36.162 59.3147 36.572 60.2167 37.392 60.818L41.164 59.342ZM18.04 60.654C20.664 60.654 22.7413 59.2327 24.272 56.39C25.8027 53.4927 26.568 49.666 26.568 44.91V41.22C21.5387 42.1493 17.958 43.5707 15.826 45.484C13.694 47.3427 12.628 49.9667 12.628 53.356C12.628 55.652 13.12 57.456 14.104 58.768C15.088 60.0253 16.4 60.654 18.04 60.654ZM83.7162 25.476C83.2789 25.7493 82.9236 26.132 82.6502 26.624C82.4316 27.116 82.3222 27.6353 82.3222 28.182V61.228C82.3222 62.4307 82.7869 63.36 83.7162 64.016H88.0622V65H67.6442V64.016H71.5802C72.4549 63.36 72.8922 62.4307 72.8922 61.228V44.336H57.4762V61.228C57.4762 62.4307 57.9409 63.36 58.8702 64.016H62.7242V65H42.3882V64.016H46.7342C47.6636 63.36 48.1282 62.4307 48.1282 61.228V28.182C48.1282 27.6353 47.9916 27.116 47.7182 26.624C47.4996 26.132 47.1716 25.7493 46.7342 25.476H42.3882V24.41H62.7242V25.476H58.8702C58.4329 25.7493 58.0776 26.132 57.8042 26.624C57.5856 27.116 57.4762 27.6353 57.4762 28.182V43.27H72.8922V28.182C72.8922 26.9247 72.4549 26.0227 71.5802 25.476H67.6442V24.41H88.0622V25.476H83.7162ZM112.167 65.984C108.067 65.984 104.459 65.1367 101.343 63.442C98.227 61.6927 95.7944 59.2327 94.045 56.062C92.3504 52.8913 91.503 49.174 91.503 44.91C91.503 40.5913 92.3777 36.8193 94.127 33.594C95.8764 30.3687 98.3364 27.8813 101.507 26.132C104.678 24.328 108.34 23.426 112.495 23.426C116.595 23.426 120.203 24.3007 123.319 26.05C126.435 27.7993 128.84 30.2593 130.535 33.43C132.284 36.6007 133.159 40.318 133.159 44.582C133.159 48.846 132.284 52.618 130.535 55.898C128.786 59.1233 126.326 61.6107 123.155 63.36C119.984 65.1093 116.322 65.984 112.167 65.984ZM112.331 64.918C115.775 64.918 118.344 63.278 120.039 59.998C121.788 56.718 122.663 51.716 122.663 44.992C122.663 38.104 121.788 32.9653 120.039 29.576C118.344 26.1867 115.775 24.492 112.331 24.492C108.887 24.492 106.29 26.1593 104.541 29.494C102.846 32.774 101.999 37.776 101.999 44.5C101.999 51.388 102.846 56.5267 104.541 59.916C106.29 63.2507 108.887 64.918 112.331 64.918ZM177.968 25.476C177.531 25.7493 177.176 26.132 176.902 26.624C176.684 27.116 176.574 27.6353 176.574 28.182V61.228C176.574 62.4307 177.039 63.36 177.968 64.016H182.314V65H161.896V64.016H165.832C166.707 63.36 167.144 62.4307 167.144 61.228V44.336H151.728V61.228C151.728 62.4307 152.193 63.36 153.122 64.016H156.976V65H136.64V64.016H140.986C141.916 63.36 142.38 62.4307 142.38 61.228V28.182C142.38 27.6353 142.244 27.116 141.97 26.624C141.752 26.132 141.424 25.7493 140.986 25.476H136.64V24.41H156.976V25.476H153.122C152.685 25.7493 152.33 26.132 152.056 26.624C151.838 27.116 151.728 27.6353 151.728 28.182V43.27H167.144V28.182C167.144 26.9247 166.707 26.0227 165.832 25.476H161.896V24.41H182.314V25.476H177.968ZM205.271 65.984C201.499 65.984 198.137 65.1367 195.185 63.442C192.233 61.6927 189.91 59.26 188.215 56.144C186.575 52.9733 185.755 49.2833 185.755 45.074C185.755 40.8647 186.602 37.12 188.297 33.84C189.992 30.56 192.37 28.018 195.431 26.214C198.492 24.3553 202.018 23.426 206.009 23.426C211.257 23.426 215.439 24.7927 218.555 27.526C221.726 30.2593 223.338 34.086 223.393 39.006L214.127 39.908C214.346 34.8787 213.744 31.052 212.323 28.428C210.956 25.804 208.879 24.492 206.091 24.492C202.975 24.492 200.542 26.05 198.793 29.166C197.098 32.282 196.251 36.6553 196.251 42.286C196.251 48.7367 197.426 53.766 199.777 57.374C202.182 60.982 205.435 62.786 209.535 62.786C212.924 62.786 215.794 61.556 218.145 59.096C220.55 56.5813 222.245 53.028 223.229 48.436L224.213 48.6C222.956 54.2853 220.714 58.604 217.489 61.556C214.264 64.508 210.191 65.984 205.271 65.984ZM226.648 65V64.016H230.994C231.923 63.36 232.388 62.4307 232.388 61.228V28.182C232.388 27.6353 232.251 27.116 231.978 26.624C231.759 26.132 231.431 25.7493 230.994 25.476H226.648V24.41H248.788V25.476H243.13C242.747 25.6947 242.419 26.05 242.146 26.542C241.873 27.034 241.736 27.5533 241.736 28.1V40.482H246.164C252.123 40.482 256.578 41.548 259.53 43.68C262.482 45.7573 263.958 48.682 263.958 52.454C263.958 56.39 262.455 59.4787 259.448 61.72C256.496 63.9067 252.396 65 247.148 65H226.648ZM264.86 65V64.016H269.206C270.135 63.36 270.6 62.4307 270.6 61.228V28.182C270.6 27.6353 270.463 27.116 270.19 26.624C269.971 26.132 269.643 25.7493 269.206 25.476H264.86V24.41H285.688V25.476H281.342C280.467 26.0227 280.03 26.9247 280.03 28.182V61.228C280.03 62.4307 280.467 63.36 281.342 64.016H285.688V65H264.86ZM245.508 63.934C248.187 63.934 250.264 62.95 251.74 60.982C253.271 58.9593 254.036 56.1987 254.036 52.7C254.036 49.2013 253.243 46.468 251.658 44.5C250.127 42.532 247.941 41.548 245.098 41.548H241.736V63.934H245.508ZM308.568 65V64.016H312.914C313.843 63.36 314.308 62.4307 314.308 61.228V28.182C314.308 27.6353 314.171 27.116 313.898 26.624C313.679 26.132 313.351 25.7493 312.914 25.476H308.568V24.41H328.904V25.476H325.05C324.613 25.7493 324.257 26.132 323.984 26.624C323.765 27.116 323.656 27.6353 323.656 28.182V43.68H326.198L339.318 30.068C340.302 29.084 340.794 28.0727 340.794 27.034C340.794 26.3233 340.521 25.804 339.974 25.476H333.906V24.41H349.158V25.476H345.304L332.266 38.924L346.452 58.85C347.819 60.818 348.939 62.1847 349.814 62.95C350.743 63.6607 351.727 64.016 352.766 64.016V65H340.056L326.28 44.828H323.656V61.228C323.656 62.4307 324.121 63.36 325.05 64.016H328.904V65H308.568ZM375.16 24.41H388.936V25.476H385.492L369.666 67.05C367.916 71.642 366.468 75.0587 365.32 77.3C364.172 79.5413 362.75 81.2087 361.056 82.302C359.416 83.3953 357.256 83.9147 354.578 83.86L353.676 75.086C355.097 75.25 356.327 75.332 357.366 75.332C360.318 75.332 362.614 74.7033 364.254 73.446C365.948 72.1887 367.397 70.002 368.6 66.886L369.092 65.492L350.642 25.476H347.444V24.41H370.65V25.476H364.172C363.188 25.804 362.696 26.5967 362.696 27.854C362.696 28.51 362.86 29.2207 363.188 29.986L373.602 53.766L382.622 29.986C382.895 29.166 383.032 28.4827 383.032 27.936C383.032 26.624 382.567 25.804 381.638 25.476H375.16V24.41ZM417.901 23.426C421.071 23.426 423.887 24.2733 426.347 25.968C428.807 27.6627 430.72 30.0407 432.087 33.102C433.453 36.1087 434.137 39.5527 434.137 43.434C434.137 47.862 433.262 51.7707 431.513 55.16C429.818 58.5493 427.358 61.2007 424.133 63.114C420.962 65.0273 417.245 65.984 412.981 65.984C409.537 65.984 406.557 65.2733 404.043 63.852V80.17C404.043 80.7713 404.152 81.318 404.371 81.81C404.644 82.302 404.999 82.6573 405.437 82.876H411.013V83.86H388.791V82.876H393.137C394.066 82.22 394.531 81.2907 394.531 80.088V25.558L388.381 25.476V24.41C392.371 24.41 395.487 24.3553 397.729 24.246C399.97 24.1367 402.075 23.918 404.043 23.59V30.478C407.377 27.69 410.001 25.8313 411.915 24.902C413.828 23.918 415.823 23.426 417.901 23.426ZM413.227 64.918C416.507 64.918 419.049 63.2233 420.853 59.834C422.711 56.39 423.641 51.6067 423.641 45.484C423.641 39.9627 422.684 35.6713 420.771 32.61C418.912 29.494 416.151 27.936 412.489 27.936C411.122 27.936 409.837 28.2093 408.635 28.756C407.487 29.248 405.956 30.232 404.043 31.708V50.896C404.043 55.3787 404.835 58.85 406.421 61.31C408.061 63.7153 410.329 64.918 413.227 64.918ZM458.638 65.984C454.866 65.984 451.504 65.1367 448.552 63.442C445.6 61.6927 443.277 59.26 441.582 56.144C439.942 52.9733 439.122 49.2833 439.122 45.074C439.122 40.8647 439.97 37.12 441.664 33.84C443.359 30.56 445.737 28.018 448.798 26.214C451.86 24.3553 455.386 23.426 459.376 23.426C464.624 23.426 468.806 24.7927 471.922 27.526C475.093 30.2593 476.706 34.086 476.76 39.006L467.494 39.908C467.713 34.8787 467.112 31.052 465.69 28.428C464.324 25.804 462.246 24.492 459.458 24.492C456.342 24.492 453.91 26.05 452.16 29.166C450.466 32.282 449.618 36.6553 449.618 42.286C449.618 48.7367 450.794 53.766 453.144 57.374C455.55 60.982 458.802 62.786 462.902 62.786C466.292 62.786 469.162 61.556 471.512 59.096C473.918 56.5813 475.612 53.028 476.596 48.436L477.58 48.6C476.323 54.2853 474.082 58.604 470.856 61.556C467.631 64.508 463.558 65.984 458.638 65.984ZM501.827 65.984C497.727 65.984 494.119 65.1367 491.003 63.442C487.887 61.6927 485.455 59.2327 483.705 56.062C482.011 52.8913 481.163 49.174 481.163 44.91C481.163 40.5913 482.038 36.8193 483.787 33.594C485.537 30.3687 487.997 27.8813 491.167 26.132C494.338 24.328 498.001 23.426 502.155 23.426C506.255 23.426 509.863 24.3007 512.979 26.05C516.095 27.7993 518.501 30.2593 520.195 33.43C521.945 36.6007 522.819 40.318 522.819 44.582C522.819 48.846 521.945 52.618 520.195 55.898C518.446 59.1233 515.986 61.6107 512.815 63.36C509.645 65.1093 505.982 65.984 501.827 65.984ZM501.991 64.918C505.435 64.918 508.005 63.278 509.699 59.998C511.449 56.718 512.323 51.716 512.323 44.992C512.323 38.104 511.449 32.9653 509.699 29.576C508.005 26.1867 505.435 24.492 501.991 24.492C498.547 24.492 495.951 26.1593 494.201 29.494C492.507 32.774 491.659 37.776 491.659 44.5C491.659 51.388 492.507 56.5267 494.201 59.916C495.951 63.2507 498.547 64.918 501.991 64.918ZM526.3 65V64.016H530.646C531.576 63.36 532.04 62.4307 532.04 61.228V28.182C532.04 27.6353 531.904 27.116 531.63 26.624C531.412 26.132 531.084 25.7493 530.646 25.476H526.3V24.41H546.636C551.884 24.41 555.82 25.23 558.444 26.87C561.123 28.51 562.462 30.888 562.462 34.004C562.462 36.2453 561.724 38.1587 560.248 39.744C558.827 41.2747 556.75 42.368 554.016 43.024V43.516C557.46 44.1173 560.057 45.2927 561.806 47.042C563.61 48.7367 564.512 50.9507 564.512 53.684C564.512 57.2373 563.064 60.0253 560.166 62.048C557.269 64.016 553.224 65 548.03 65H526.3ZM545.816 42.86C548.112 42.86 549.862 42.122 551.064 40.646C552.322 39.1153 552.95 37.0107 552.95 34.332C552.95 31.544 552.322 29.3847 551.064 27.854C549.807 26.2687 548.003 25.476 545.652 25.476H541.388V42.86H545.816ZM546.718 63.934C549.342 63.934 551.338 63.0867 552.704 61.392C554.071 59.6427 554.754 57.21 554.754 54.094C554.754 50.8687 554.044 48.3813 552.622 46.632C551.256 44.828 549.233 43.926 546.554 43.926H541.388V63.934H546.718Z" fill="#787373" fill-opacity="0.3"/>
<path d="M1.148 133V132.016H5.494C6.42333 131.36 6.888 130.431 6.888 129.228V96.182C6.888 95.6353 6.75133 95.116 6.478 94.624C6.25933 94.132 5.93133 93.7493 5.494 93.476H1.148V92.41H21.484C26.732 92.41 30.668 93.23 33.292 94.87C35.9707 96.51 37.31 98.888 37.31 102.004C37.31 104.245 36.572 106.159 35.096 107.744C33.6747 109.275 31.5973 110.368 28.864 111.024V111.516C32.308 112.117 34.9047 113.293 36.654 115.042C38.458 116.737 39.36 118.951 39.36 121.684C39.36 125.237 37.9113 128.025 35.014 130.048C32.1167 132.016 28.0713 133 22.878 133H1.148ZM20.664 110.86C22.96 110.86 24.7093 110.122 25.912 108.646C27.1693 107.115 27.798 105.011 27.798 102.332C27.798 99.544 27.1693 97.3847 25.912 95.854C24.6547 94.2687 22.8507 93.476 20.5 93.476H16.236V110.86H20.664ZM21.566 131.934C24.19 131.934 26.1853 131.087 27.552 129.392C28.9187 127.643 29.602 125.21 29.602 122.094C29.602 118.869 28.8913 116.381 27.47 114.632C26.1033 112.828 24.0807 111.926 21.402 111.926H16.236V131.934H21.566ZM43.189 133V132.016H47.535C48.4643 131.36 48.929 130.431 48.929 129.228V96.182C48.929 95.6353 48.7923 95.116 48.519 94.624C48.3003 94.132 47.9723 93.7493 47.535 93.476H43.189V92.41H65.329V93.476H59.671C59.2883 93.6947 58.9603 94.05 58.687 94.542C58.4137 95.034 58.277 95.5533 58.277 96.1V108.482H62.705C68.6637 108.482 73.119 109.548 76.071 111.68C79.023 113.757 80.499 116.682 80.499 120.454C80.499 124.39 78.9957 127.479 75.989 129.72C73.037 131.907 68.937 133 63.689 133H43.189ZM81.401 133V132.016H85.747C86.6764 131.36 87.141 130.431 87.141 129.228V96.182C87.141 95.6353 87.0044 95.116 86.731 94.624C86.5123 94.132 86.1844 93.7493 85.747 93.476H81.401V92.41H102.229V93.476H97.883C97.0084 94.0227 96.571 94.9247 96.571 96.182V129.228C96.571 130.431 97.0084 131.36 97.883 132.016H102.229V133H81.401ZM62.049 131.934C64.7277 131.934 66.805 130.95 68.281 128.982C69.8117 126.959 70.577 124.199 70.577 120.7C70.577 117.201 69.7844 114.468 68.199 112.5C66.6683 110.532 64.4817 109.548 61.639 109.548H58.277V131.934H62.049ZM104.529 133V132.016H108.875C109.804 131.36 110.269 130.431 110.269 129.228V96.182C110.269 95.6353 110.132 95.116 109.859 94.624C109.64 94.132 109.312 93.7493 108.875 93.476H104.529V92.41H137.165C137.056 96.674 137.247 101.075 137.739 105.612L136.919 105.776L129.129 93.476H119.617V129.31C119.617 129.857 119.726 130.376 119.945 130.868C120.218 131.36 120.574 131.743 121.011 132.016H126.669V133H104.529ZM161.335 133.984C157.235 133.984 153.627 133.137 150.511 131.442C147.395 129.693 144.962 127.233 143.213 124.062C141.518 120.891 140.671 117.174 140.671 112.91C140.671 108.591 141.546 104.819 143.295 101.594C145.044 98.3687 147.504 95.8813 150.675 94.132C153.846 92.328 157.508 91.426 161.663 91.426C165.763 91.426 169.371 92.3007 172.487 94.05C175.603 95.7993 178.008 98.2593 179.703 101.43C181.452 104.601 182.327 108.318 182.327 112.582C182.327 116.846 181.452 120.618 179.703 123.898C177.954 127.123 175.494 129.611 172.323 131.36C169.152 133.109 165.49 133.984 161.335 133.984ZM161.499 132.918C164.943 132.918 167.512 131.278 169.207 127.998C170.956 124.718 171.831 119.716 171.831 112.992C171.831 106.104 170.956 100.965 169.207 97.576C167.512 94.1867 164.943 92.492 161.499 92.492C158.055 92.492 155.458 94.1593 153.709 97.494C152.014 100.774 151.167 105.776 151.167 112.5C151.167 119.388 152.014 124.527 153.709 127.916C155.458 131.251 158.055 132.918 161.499 132.918ZM183.941 148.826C184.105 146.53 184.187 144.179 184.187 141.774C184.187 138.658 184.023 135.378 183.695 131.934H188.369C193.235 126.577 196.132 116.081 197.061 100.446C197.116 98.9153 196.843 97.4667 196.241 96.1C195.695 94.7333 194.957 93.8587 194.027 93.476H189.271V92.41H225.925V93.476H221.579C221.142 93.7493 220.787 94.132 220.513 94.624C220.295 95.116 220.185 95.6353 220.185 96.182V128.818C220.185 129.419 220.322 130.021 220.595 130.622C220.869 131.169 221.251 131.633 221.743 132.016H227.811C227.483 135.405 227.319 138.658 227.319 141.774C227.319 144.179 227.401 146.53 227.565 148.826L226.745 148.99L219.365 133H192.305L184.761 148.99L183.941 148.826ZM210.755 131.934V93.476H198.537L198.291 98.56C197.362 115.124 194.519 126.249 189.763 131.934H210.755ZM270.939 93.476C270.502 93.7493 270.146 94.132 269.873 94.624C269.654 95.116 269.545 95.6353 269.545 96.182V129.228C269.545 130.431 270.01 131.36 270.939 132.016H275.285V133H254.867V132.016H258.803C259.678 131.36 260.115 130.431 260.115 129.228V112.336H244.699V129.228C244.699 130.431 245.164 131.36 246.093 132.016H249.947V133H229.611V132.016H233.957C234.886 131.36 235.351 130.431 235.351 129.228V96.182C235.351 95.6353 235.214 95.116 234.941 94.624C234.722 94.132 234.394 93.7493 233.957 93.476H229.611V92.41H249.947V93.476H246.093C245.656 93.7493 245.3 94.132 245.027 94.624C244.808 95.116 244.699 95.6353 244.699 96.182V111.27H260.115V96.182C260.115 94.9247 259.678 94.0227 258.803 93.476H254.867V92.41H275.285V93.476H270.939ZM277.578 133V132.016H281.924C282.853 131.36 283.318 130.431 283.318 129.228V96.182C283.318 95.6353 283.181 95.116 282.908 94.624C282.689 94.132 282.361 93.7493 281.924 93.476H277.578V92.41H299.718V93.476H294.06C293.677 93.6947 293.349 94.05 293.076 94.542C292.802 95.034 292.666 95.5533 292.666 96.1V108.482H297.094C303.052 108.482 307.508 109.548 310.46 111.68C313.412 113.757 314.888 116.682 314.888 120.454C314.888 124.39 313.384 127.479 310.378 129.72C307.426 131.907 303.326 133 298.078 133H277.578ZM315.79 133V132.016H320.136C321.065 131.36 321.53 130.431 321.53 129.228V96.182C321.53 95.6353 321.393 95.116 321.12 94.624C320.901 94.132 320.573 93.7493 320.136 93.476H315.79V92.41H336.618V93.476H332.272C331.397 94.0227 330.96 94.9247 330.96 96.182V129.228C330.96 130.431 331.397 131.36 332.272 132.016H336.618V133H315.79ZM296.438 131.934C299.116 131.934 301.194 130.95 302.67 128.982C304.2 126.959 304.966 124.199 304.966 120.7C304.966 117.201 304.173 114.468 302.588 112.5C301.057 110.532 298.87 109.548 296.028 109.548H292.666V131.934H296.438ZM378.606 117.912C377.184 123.215 374.888 127.233 371.718 129.966C368.547 132.645 364.611 133.984 359.91 133.984C356.083 133.984 352.666 133.137 349.66 131.442C346.653 129.747 344.302 127.342 342.608 124.226C340.913 121.055 340.066 117.42 340.066 113.32C340.066 109.001 340.886 105.202 342.526 101.922C344.166 98.5873 346.462 96.018 349.414 94.214C352.42 92.3553 355.864 91.426 359.746 91.426C365.322 91.426 369.75 92.9293 373.03 95.936C376.364 98.9427 378.032 103.015 378.032 108.154H350.562V109.63C350.562 115.971 351.792 120.946 354.252 124.554C356.766 128.162 360.156 129.966 364.42 129.966C367.59 129.966 370.296 128.927 372.538 126.85C374.834 124.773 376.528 121.711 377.622 117.666L378.606 117.912ZM359.746 92.41C357.067 92.41 354.935 93.6947 353.35 96.264C351.819 98.7787 350.917 102.387 350.644 107.088H367.454C367.508 102.332 366.88 98.6967 365.568 96.182C364.256 93.6673 362.315 92.41 359.746 92.41ZM401.779 133V132.016H406.125C407.054 131.36 407.519 130.431 407.519 129.228V96.182C407.519 95.6353 407.382 95.116 407.109 94.624C406.89 94.132 406.562 93.7493 406.125 93.476H401.779V92.41H447.043V93.476H442.697C442.26 93.7493 441.904 94.132 441.631 94.624C441.412 95.116 441.303 95.6353 441.303 96.182V129.228C441.303 130.431 441.768 131.36 442.697 132.016H447.043V133H426.625V132.016H430.561C431.436 131.36 431.873 130.431 431.873 129.228V93.476H416.867V129.228C416.867 130.431 417.332 131.36 418.261 132.016H422.115V133H401.779ZM477.799 91.426C480.97 91.426 483.785 92.2733 486.245 93.968C488.705 95.6627 490.619 98.0407 491.985 101.102C493.352 104.109 494.035 107.553 494.035 111.434C494.035 115.862 493.161 119.771 491.411 123.16C489.717 126.549 487.257 129.201 484.031 131.114C480.861 133.027 477.143 133.984 472.879 133.984C469.435 133.984 466.456 133.273 463.941 131.852V148.17C463.941 148.771 464.051 149.318 464.269 149.81C464.543 150.302 464.898 150.657 465.335 150.876H470.911V151.86H448.689V150.876H453.035C453.965 150.22 454.429 149.291 454.429 148.088V93.558L448.279 93.476V92.41C452.27 92.41 455.386 92.3553 457.627 92.246C459.869 92.1367 461.973 91.918 463.941 91.59V98.478C467.276 95.69 469.9 93.8313 471.813 92.902C473.727 91.918 475.722 91.426 477.799 91.426ZM473.125 132.918C476.405 132.918 478.947 131.223 480.751 127.834C482.61 124.39 483.539 119.607 483.539 113.484C483.539 107.963 482.583 103.671 480.669 100.61C478.811 97.494 476.05 95.936 472.387 95.936C471.021 95.936 469.736 96.2093 468.533 96.756C467.385 97.248 465.855 98.232 463.941 99.708V118.896C463.941 123.379 464.734 126.85 466.319 129.31C467.959 131.715 470.228 132.918 473.125 132.918ZM537.561 117.912C536.139 123.215 533.843 127.233 530.673 129.966C527.502 132.645 523.566 133.984 518.865 133.984C515.038 133.984 511.621 133.137 508.615 131.442C505.608 129.747 503.257 127.342 501.563 124.226C499.868 121.055 499.021 117.42 499.021 113.32C499.021 109.001 499.841 105.202 501.481 101.922C503.121 98.5873 505.417 96.018 508.369 94.214C511.375 92.3553 514.819 91.426 518.701 91.426C524.277 91.426 528.705 92.9293 531.985 95.936C535.319 98.9427 536.987 103.015 536.987 108.154H509.517V109.63C509.517 115.971 510.747 120.946 513.207 124.554C515.721 128.162 519.111 129.966 523.375 129.966C526.545 129.966 529.251 128.927 531.493 126.85C533.789 124.773 535.483 121.711 536.577 117.666L537.561 117.912ZM518.701 92.41C516.022 92.41 513.89 93.6947 512.305 96.264C510.774 98.7787 509.872 102.387 509.599 107.088H526.409C526.463 102.332 525.835 98.6967 524.523 96.182C523.211 93.6673 521.27 92.41 518.701 92.41ZM537.486 148.826C537.65 146.53 537.732 144.179 537.732 141.774C537.732 138.658 537.568 135.378 537.24 131.934H541.914C546.78 126.577 549.677 116.081 550.606 100.446C550.661 98.9153 550.388 97.4667 549.786 96.1C549.24 94.7333 548.502 93.8587 547.572 93.476H542.816V92.41H579.47V93.476H575.124C574.687 93.7493 574.332 94.132 574.058 94.624C573.84 95.116 573.73 95.6353 573.73 96.182V128.818C573.73 129.419 573.867 130.021 574.14 130.622C574.414 131.169 574.796 131.633 575.288 132.016H581.356C581.028 135.405 580.864 138.658 580.864 141.774C580.864 144.179 580.946 146.53 581.11 148.826L580.29 148.99L572.91 133H545.85L538.306 148.99L537.486 148.826ZM564.3 131.934V93.476H552.082L551.836 98.56C550.907 115.124 548.064 126.249 543.308 131.934H564.3ZM585.616 133.738C585.178 133.738 584.577 133.683 583.812 133.574L583.402 124.39C584.386 124.499 585.124 124.554 585.616 124.554C587.912 124.554 589.743 123.816 591.11 122.34C592.531 120.864 593.597 118.459 594.308 115.124C595.073 111.735 595.62 107.143 595.948 101.348C596.057 99.4347 595.811 97.7673 595.21 96.346C594.663 94.87 593.898 93.9133 592.914 93.476H588.158V92.41H624.484V93.476H620.138C619.263 94.0227 618.826 94.9247 618.826 96.182V129.228C618.826 130.431 619.263 131.36 620.138 132.016H624.484V133H603.656V132.016H608.002C608.931 131.36 609.396 130.431 609.396 129.228V93.476H597.424L597.26 97.986C596.822 106.842 596.139 113.867 595.21 119.06C594.335 124.253 593.105 127.998 591.52 130.294C589.989 132.59 588.021 133.738 585.616 133.738ZM648.61 133.984C644.51 133.984 640.902 133.137 637.786 131.442C634.67 129.693 632.238 127.233 630.488 124.062C628.794 120.891 627.946 117.174 627.946 112.91C627.946 108.591 628.821 104.819 630.57 101.594C632.32 98.3687 634.78 95.8813 637.95 94.132C641.121 92.328 644.784 91.426 648.938 91.426C653.038 91.426 656.646 92.3007 659.762 94.05C662.878 95.7993 665.284 98.2593 666.978 101.43C668.728 104.601 669.602 108.318 669.602 112.582C669.602 116.846 668.728 120.618 666.978 123.898C665.229 127.123 662.769 129.611 659.598 131.36C656.428 133.109 652.765 133.984 648.61 133.984ZM648.774 132.918C652.218 132.918 654.788 131.278 656.482 127.998C658.232 124.718 659.106 119.716 659.106 112.992C659.106 106.104 658.232 100.965 656.482 97.576C654.788 94.1867 652.218 92.492 648.774 92.492C645.33 92.492 642.734 94.1593 640.984 97.494C639.29 100.774 638.442 105.776 638.442 112.5C638.442 119.388 639.29 124.527 640.984 127.916C642.734 131.251 645.33 132.918 648.774 132.918ZM669.741 132.098C670.779 132.043 671.763 131.633 672.693 130.868C673.622 130.048 674.879 128.572 676.465 126.44L690.405 106.924L677.203 93.476H673.349V92.41H688.601V93.476H682.533C681.986 93.804 681.713 94.3233 681.713 95.034C681.713 96.0727 682.205 97.084 683.189 98.068L696.473 111.68H698.523V96.182C698.523 95.6353 698.386 95.116 698.113 94.624C697.894 94.132 697.566 93.7493 697.129 93.476H693.275V92.41H712.873V93.476H709.019C708.581 93.7493 708.226 94.132 707.953 94.624C707.734 95.116 707.625 95.6353 707.625 96.182V111.68H709.675L722.959 98.068C723.943 97.084 724.435 96.0727 724.435 95.034C724.435 94.3233 724.161 93.804 723.615 93.476H717.629V92.41H732.799V93.476H728.945L715.743 106.924L729.683 126.44C731.323 128.572 732.58 130.048 733.455 130.868C734.384 131.633 735.368 132.043 736.407 132.098V133H723.697L709.757 112.828H707.625V129.228C707.625 130.431 708.089 131.36 709.019 132.016H712.873V133H693.275V132.016H697.129C698.058 131.36 698.523 130.431 698.523 129.228V112.828H696.391L682.451 133H669.741V132.098ZM775.072 117.912C773.651 123.215 771.355 127.233 768.184 129.966C765.014 132.645 761.078 133.984 756.376 133.984C752.55 133.984 749.133 133.137 746.126 131.442C743.12 129.747 740.769 127.342 739.074 124.226C737.38 121.055 736.532 117.42 736.532 113.32C736.532 109.001 737.352 105.202 738.992 101.922C740.632 98.5873 742.928 96.018 745.88 94.214C748.887 92.3553 752.331 91.426 756.212 91.426C761.788 91.426 766.216 92.9293 769.496 95.936C772.831 98.9427 774.498 103.015 774.498 108.154H747.028V109.63C747.028 115.971 748.258 120.946 750.718 124.554C753.233 128.162 756.622 129.966 760.886 129.966C764.057 129.966 766.763 128.927 769.004 126.85C771.3 124.773 772.995 121.711 774.088 117.666L775.072 117.912ZM756.212 92.41C753.534 92.41 751.402 93.6947 749.816 96.264C748.286 98.7787 747.384 102.387 747.11 107.088H763.92C763.975 102.332 763.346 98.6967 762.034 96.182C760.722 93.6673 758.782 92.41 756.212 92.41ZM818.994 93.476C818.556 93.7493 818.201 94.132 817.928 94.624C817.709 95.116 817.6 95.6353 817.6 96.182V129.228C817.6 130.431 818.064 131.36 818.994 132.016H823.34V133H802.922V132.016H806.858C807.732 131.36 808.17 130.431 808.17 129.228V112.336H792.754V129.228C792.754 130.431 793.218 131.36 794.148 132.016H798.002V133H777.666V132.016H782.012C782.941 131.36 783.406 130.431 783.406 129.228V96.182C783.406 95.6353 783.269 95.116 782.996 94.624C782.777 94.132 782.449 93.7493 782.012 93.476H777.666V92.41H798.002V93.476H794.148C793.71 93.7493 793.355 94.132 793.082 94.624C792.863 95.116 792.754 95.6353 792.754 96.182V111.27H808.17V96.182C808.17 94.9247 807.732 94.0227 806.858 93.476H802.922V92.41H823.34V93.476H818.994ZM825.632 133V132.016H829.978C830.908 131.36 831.372 130.431 831.372 129.228V96.182C831.372 95.6353 831.236 95.116 830.962 94.624C830.744 94.132 830.416 93.7493 829.978 93.476H825.632V92.41H845.886V93.476H842.032C841.158 94.0227 840.72 94.9247 840.72 96.182V127.506L858.596 92.41H872.208V93.476H867.862C867.425 93.7493 867.07 94.132 866.796 94.624C866.578 95.116 866.468 95.6353 866.468 96.182V129.228C866.468 130.431 866.933 131.36 867.862 132.016H872.208V133H851.872V132.016H855.726C856.656 131.36 857.12 130.431 857.12 129.228V97.986L839.244 133H825.632ZM912.364 93.476C911.927 93.7493 911.571 94.132 911.298 94.624C911.079 95.116 910.97 95.6353 910.97 96.182V129.228C910.97 130.431 911.435 131.36 912.364 132.016H916.71V133H895.882V132.016H900.228C901.103 131.36 901.54 130.431 901.54 129.228V114.632H897.85L885.796 133H873.332V132.098C874.48 131.934 875.464 131.524 876.284 130.868C877.159 130.212 878.143 129.091 879.236 127.506L888.748 113.976C885.468 113.265 882.981 112.035 881.286 110.286C879.591 108.537 878.744 106.323 878.744 103.644C878.744 100.091 880.22 97.33 883.172 95.362C886.124 93.394 890.279 92.41 895.636 92.41H916.71V93.476H912.364ZM901.54 113.566V93.476H897.03C894.242 93.476 892.11 94.3507 890.634 96.1C889.213 97.8493 888.502 100.282 888.502 103.398C888.502 106.623 889.24 109.138 890.716 110.942C892.192 112.691 894.351 113.566 897.194 113.566H901.54Z" fill="#787373" fill-opacity="0.3"/>
<path d="M1.148 201V200.016H5.494C6.42333 199.36 6.888 198.431 6.888 197.228V164.182C6.888 163.635 6.75133 163.116 6.478 162.624C6.25933 162.132 5.93133 161.749 5.494 161.476H1.148V160.41H46.412V161.476H42.066C41.6287 161.749 41.2733 162.132 41 162.624C40.7813 163.116 40.672 163.635 40.672 164.182V197.228C40.672 198.431 41.1367 199.36 42.066 200.016H46.412V201H25.994V200.016H29.93C30.8047 199.36 31.242 198.431 31.242 197.228V161.476H16.236V197.228C16.236 198.431 16.7007 199.36 17.63 200.016H21.484V201H1.148ZM77.1684 159.426C80.3391 159.426 83.1544 160.273 85.6144 161.968C88.0744 163.663 89.9877 166.041 91.3544 169.102C92.7211 172.109 93.4044 175.553 93.4044 179.434C93.4044 183.862 92.5297 187.771 90.7804 191.16C89.0857 194.549 86.6257 197.201 83.4004 199.114C80.2297 201.027 76.5124 201.984 72.2484 201.984C68.8044 201.984 65.8251 201.273 63.3104 199.852V216.17C63.3104 216.771 63.4197 217.318 63.6384 217.81C63.9117 218.302 64.2671 218.657 64.7044 218.876H70.2804V219.86H48.0584V218.876H52.4044C53.3337 218.22 53.7984 217.291 53.7984 216.088V161.558L47.6484 161.476V160.41C51.6391 160.41 54.7551 160.355 56.9964 160.246C59.2377 160.137 61.3424 159.918 63.3104 159.59V166.478C66.6451 163.69 69.2691 161.831 71.1824 160.902C73.0957 159.918 75.0911 159.426 77.1684 159.426ZM72.4944 200.918C75.7744 200.918 78.3164 199.223 80.1204 195.834C81.9791 192.39 82.9084 187.607 82.9084 181.484C82.9084 175.963 81.9517 171.671 80.0384 168.61C78.1797 165.494 75.4191 163.936 71.7564 163.936C70.3897 163.936 69.1051 164.209 67.9024 164.756C66.7544 165.248 65.2237 166.232 63.3104 167.708V186.896C63.3104 191.379 64.1031 194.85 65.6884 197.31C67.3284 199.715 69.5971 200.918 72.4944 200.918ZM97.2418 201V200.016H101.588C102.517 199.36 102.982 198.431 102.982 197.228V164.182C102.982 163.635 102.845 163.116 102.572 162.624C102.353 162.132 102.025 161.749 101.588 161.476H97.2418V160.41H117.496V161.476H113.642C112.767 162.023 112.33 162.925 112.33 164.182V195.506L130.206 160.41H143.818V161.476H139.472C139.034 161.749 138.679 162.132 138.406 162.624C138.187 163.116 138.078 163.635 138.078 164.182V197.228C138.078 198.431 138.542 199.36 139.472 200.016H143.818V201H123.482V200.016H127.336C128.265 199.36 128.73 198.431 128.73 197.228V165.986L110.854 201H97.2418ZM146.089 201V200.016H150.435C151.365 199.36 151.829 198.431 151.829 197.228V164.182C151.829 163.635 151.693 163.116 151.419 162.624C151.201 162.132 150.873 161.749 150.435 161.476H146.089V160.41H178.725C178.616 164.674 178.807 169.075 179.299 173.612L178.479 173.776L170.689 161.476H161.177V197.31C161.177 197.857 161.287 198.376 161.505 198.868C161.779 199.36 162.134 199.743 162.571 200.016H168.229V201H146.089ZM181.061 201.738C180.624 201.738 180.022 201.683 179.257 201.574L178.847 192.39C179.831 192.499 180.569 192.554 181.061 192.554C183.357 192.554 185.188 191.816 186.555 190.34C187.976 188.864 189.042 186.459 189.753 183.124C190.518 179.735 191.065 175.143 191.393 169.348C191.502 167.435 191.256 165.767 190.655 164.346C190.108 162.87 189.343 161.913 188.359 161.476H183.603V160.41H219.929V161.476H215.583C214.708 162.023 214.271 162.925 214.271 164.182V197.228C214.271 198.431 214.708 199.36 215.583 200.016H219.929V201H199.101V200.016H203.447C204.376 199.36 204.841 198.431 204.841 197.228V161.476H192.869L192.705 165.986C192.268 174.842 191.584 181.867 190.655 187.06C189.78 192.253 188.55 195.998 186.965 198.294C185.434 200.59 183.466 201.738 181.061 201.738ZM262.1 195.342L262.428 196.244L248.816 201.82H247.914V189.766H247.504C246.356 193.702 244.552 196.736 242.092 198.868C239.686 200.945 236.98 201.984 233.974 201.984C230.912 201.984 228.425 201.055 226.512 199.196C224.598 197.283 223.642 194.795 223.642 191.734C223.642 189.11 224.38 186.896 225.856 185.092C227.386 183.233 229.846 181.621 233.236 180.254C236.68 178.833 241.436 177.439 247.504 176.072V174.268C247.504 169.403 247.012 165.904 246.028 163.772C245.044 161.585 243.458 160.492 241.272 160.492C237.336 160.492 235.368 164.045 235.368 171.152C235.368 171.917 235.422 173.175 235.532 174.924L225.938 174.35C226.102 169.43 227.687 165.713 230.694 163.198C233.755 160.683 238.074 159.426 243.65 159.426C252.615 159.426 257.098 163.772 257.098 172.464V194.112C257.098 195.315 257.508 196.217 258.328 196.818L262.1 195.342ZM238.976 196.654C241.6 196.654 243.677 195.233 245.208 192.39C246.738 189.493 247.504 185.666 247.504 180.91V177.22C242.474 178.149 238.894 179.571 236.762 181.484C234.63 183.343 233.564 185.967 233.564 189.356C233.564 191.652 234.056 193.456 235.04 194.768C236.024 196.025 237.336 196.654 238.976 196.654ZM263.324 201V200.016H267.67C268.599 199.36 269.064 198.431 269.064 197.228V164.182C269.064 163.635 268.927 163.116 268.654 162.624C268.435 162.132 268.107 161.749 267.67 161.476H263.324V160.41H283.66V161.476H279.806C279.368 161.749 279.013 162.132 278.74 162.624C278.521 163.116 278.412 163.635 278.412 164.182V199.934H291.45V164.182C291.45 162.925 290.985 162.023 290.056 161.476H286.202V160.41H306.128V161.476H302.274C301.836 161.749 301.481 162.132 301.208 162.624C300.989 163.116 300.88 163.635 300.88 164.182V199.934H313.918V164.182C313.918 163.635 313.781 163.116 313.508 162.624C313.289 162.132 312.961 161.749 312.524 161.476H308.67V160.41H329.006V161.476H324.66C323.785 162.023 323.348 162.925 323.348 164.182V197.228C323.348 198.431 323.785 199.36 324.66 200.016H329.006V201H263.324ZM370.998 185.912C369.577 191.215 367.281 195.233 364.11 197.966C360.939 200.645 357.003 201.984 352.302 201.984C348.475 201.984 345.059 201.137 342.052 199.442C339.045 197.747 336.695 195.342 335 192.226C333.305 189.055 332.458 185.42 332.458 181.32C332.458 177.001 333.278 173.202 334.918 169.922C336.558 166.587 338.854 164.018 341.806 162.214C344.813 160.355 348.257 159.426 352.138 159.426C357.714 159.426 362.142 160.929 365.422 163.936C368.757 166.943 370.424 171.015 370.424 176.154H342.954V177.63C342.954 183.971 344.184 188.946 346.644 192.554C349.159 196.162 352.548 197.966 356.812 197.966C359.983 197.966 362.689 196.927 364.93 194.85C367.226 192.773 368.921 189.711 370.014 185.666L370.998 185.912ZM352.138 160.41C349.459 160.41 347.327 161.695 345.742 164.264C344.211 166.779 343.309 170.387 343.036 175.088H359.846C359.901 170.332 359.272 166.697 357.96 164.182C356.648 161.667 354.707 160.41 352.138 160.41ZM414.919 161.476C414.482 161.749 414.127 162.132 413.853 162.624C413.635 163.116 413.525 163.635 413.525 164.182V197.228C413.525 198.431 413.99 199.36 414.919 200.016H419.265V201H398.847V200.016H402.783C403.658 199.36 404.095 198.431 404.095 197.228V180.336H388.679V197.228C388.679 198.431 389.144 199.36 390.073 200.016H393.927V201H373.591V200.016H377.937C378.867 199.36 379.331 198.431 379.331 197.228V164.182C379.331 163.635 379.195 163.116 378.921 162.624C378.703 162.132 378.375 161.749 377.937 161.476H373.591V160.41H393.927V161.476H390.073C389.636 161.749 389.281 162.132 389.007 162.624C388.789 163.116 388.679 163.635 388.679 164.182V179.27H404.095V164.182C404.095 162.925 403.658 162.023 402.783 161.476H398.847V160.41H419.265V161.476H414.919ZM421.558 201V200.016H425.904C426.833 199.36 427.298 198.431 427.298 197.228V164.182C427.298 163.635 427.161 163.116 426.888 162.624C426.669 162.132 426.341 161.749 425.904 161.476H421.558V160.41H441.812V161.476H437.958C437.083 162.023 436.646 162.925 436.646 164.182V195.506L454.522 160.41H468.134V161.476H463.788C463.351 161.749 462.995 162.132 462.722 162.624C462.503 163.116 462.394 163.635 462.394 164.182V197.228C462.394 198.431 462.859 199.36 463.788 200.016H468.134V201H447.798V200.016H451.652C452.581 199.36 453.046 198.431 453.046 197.228V165.986L435.17 201H421.558ZM510.094 185.912C508.672 191.215 506.376 195.233 503.206 197.966C500.035 200.645 496.099 201.984 491.398 201.984C487.571 201.984 484.154 201.137 481.148 199.442C478.141 197.747 475.79 195.342 474.096 192.226C472.401 189.055 471.554 185.42 471.554 181.32C471.554 177.001 472.374 173.202 474.014 169.922C475.654 166.587 477.95 164.018 480.902 162.214C483.908 160.355 487.352 159.426 491.234 159.426C496.81 159.426 501.238 160.929 504.518 163.936C507.852 166.943 509.52 171.015 509.52 176.154H482.05V177.63C482.05 183.971 483.28 188.946 485.74 192.554C488.254 196.162 491.644 197.966 495.908 197.966C499.078 197.966 501.784 196.927 504.026 194.85C506.322 192.773 508.016 189.711 509.11 185.666L510.094 185.912ZM491.234 160.41C488.555 160.41 486.423 161.695 484.838 164.264C483.307 166.779 482.405 170.387 482.132 175.088H498.942C498.996 170.332 498.368 166.697 497.056 164.182C495.744 161.667 493.803 160.41 491.234 160.41ZM574.595 161.476C574.158 161.749 573.802 162.132 573.529 162.624C573.31 163.116 573.201 163.635 573.201 164.182V197.228C573.201 198.431 573.666 199.36 574.595 200.016H578.941V201H558.523V200.016H562.459C563.334 199.36 563.771 198.431 563.771 197.228V180.336H548.355V197.228C548.355 198.431 548.82 199.36 549.749 200.016H553.603V201H533.267V200.016H537.613C538.542 199.36 539.007 198.431 539.007 197.228V164.182C539.007 163.635 538.87 163.116 538.597 162.624C538.378 162.132 538.05 161.749 537.613 161.476H533.267V160.41H553.603V161.476H549.749C549.312 161.749 548.956 162.132 548.683 162.624C548.464 163.116 548.355 163.635 548.355 164.182V179.27H563.771V164.182C563.771 162.925 563.334 162.023 562.459 161.476H558.523V160.41H578.941V161.476H574.595ZM621.09 195.342L621.418 196.244L607.806 201.82H606.904V189.766H606.494C605.346 193.702 603.542 196.736 601.082 198.868C598.676 200.945 595.97 201.984 592.964 201.984C589.902 201.984 587.415 201.055 585.502 199.196C583.588 197.283 582.632 194.795 582.632 191.734C582.632 189.11 583.37 186.896 584.846 185.092C586.376 183.233 588.836 181.621 592.226 180.254C595.67 178.833 600.426 177.439 606.494 176.072V174.268C606.494 169.403 606.002 165.904 605.018 163.772C604.034 161.585 602.448 160.492 600.262 160.492C596.326 160.492 594.358 164.045 594.358 171.152C594.358 171.917 594.412 173.175 594.522 174.924L584.928 174.35C585.092 169.43 586.677 165.713 589.684 163.198C592.745 160.683 597.064 159.426 602.64 159.426C611.605 159.426 616.088 163.772 616.088 172.464V194.112C616.088 195.315 616.498 196.217 617.318 196.818L621.09 195.342ZM597.966 196.654C600.59 196.654 602.667 195.233 604.198 192.39C605.728 189.493 606.494 185.666 606.494 180.91V177.22C601.464 178.149 597.884 179.571 595.752 181.484C593.62 183.343 592.554 185.967 592.554 189.356C592.554 191.652 593.046 193.456 594.03 194.768C595.014 196.025 596.326 196.654 597.966 196.654ZM664.706 201.984C660.606 201.984 656.998 201.137 653.882 199.442C650.766 197.693 648.333 195.233 646.584 192.062C644.889 188.891 644.042 185.174 644.042 180.91C644.042 176.591 644.917 172.819 646.666 169.594C648.415 166.369 650.875 163.881 654.046 162.132C657.217 160.328 660.879 159.426 665.034 159.426C669.134 159.426 672.742 160.301 675.858 162.05C678.974 163.799 681.379 166.259 683.074 169.43C684.823 172.601 685.698 176.318 685.698 180.582C685.698 184.846 684.823 188.618 683.074 191.898C681.325 195.123 678.865 197.611 675.694 199.36C672.523 201.109 668.861 201.984 664.706 201.984ZM664.87 200.918C668.314 200.918 670.883 199.278 672.578 195.998C674.327 192.718 675.202 187.716 675.202 180.992C675.202 174.104 674.327 168.965 672.578 165.576C670.883 162.187 668.314 160.492 664.87 160.492C661.426 160.492 658.829 162.159 657.08 165.494C655.385 168.774 654.538 173.776 654.538 180.5C654.538 187.388 655.385 192.527 657.08 195.916C658.829 199.251 661.426 200.918 664.87 200.918ZM696.477 201V200.016H702.135C702.518 199.797 702.819 199.442 703.037 198.95C703.311 198.458 703.447 197.911 703.447 197.31V161.476H697.789L690.409 173.776L689.589 173.612C689.753 170.988 689.835 168.473 689.835 166.068L689.753 160.41H726.653C726.544 163.034 726.489 165.002 726.489 166.314C726.489 168.829 726.599 171.261 726.817 173.612L725.997 173.776L718.617 161.476H712.877V197.31C712.877 197.911 712.987 198.458 713.205 198.95C713.479 199.442 713.834 199.797 714.271 200.016H719.847V201H696.477ZM729.539 201V200.016H733.885C734.814 199.36 735.279 198.431 735.279 197.228V164.182C735.279 163.635 735.142 163.116 734.869 162.624C734.65 162.132 734.322 161.749 733.885 161.476H729.539V160.41H749.875V161.476H746.021C745.583 161.749 745.228 162.132 744.955 162.624C744.736 163.116 744.627 163.635 744.627 164.182V179.68H747.169L760.289 166.068C761.273 165.084 761.765 164.073 761.765 163.034C761.765 162.323 761.491 161.804 760.945 161.476H754.877V160.41H770.129V161.476H766.275L753.237 174.924L767.423 194.85C768.789 196.818 769.91 198.185 770.785 198.95C771.714 199.661 772.698 200.016 773.737 200.016V201H761.027L747.251 180.828H744.627V197.228C744.627 198.431 745.091 199.36 746.021 200.016H749.875V201H729.539ZM801.956 159.426C805.126 159.426 807.942 160.273 810.402 161.968C812.862 163.663 814.775 166.041 816.142 169.102C817.508 172.109 818.192 175.553 818.192 179.434C818.192 183.862 817.317 187.771 815.568 191.16C813.873 194.549 811.413 197.201 808.188 199.114C805.017 201.027 801.3 201.984 797.036 201.984C793.592 201.984 790.612 201.273 788.098 199.852V216.17C788.098 216.771 788.207 217.318 788.426 217.81C788.699 218.302 789.054 218.657 789.492 218.876H795.068V219.86H772.846V218.876H777.192C778.121 218.22 778.586 217.291 778.586 216.088V161.558L772.436 161.476V160.41C776.426 160.41 779.542 160.355 781.784 160.246C784.025 160.137 786.13 159.918 788.098 159.59V166.478C791.432 163.69 794.056 161.831 795.97 160.902C797.883 159.918 799.878 159.426 801.956 159.426ZM797.282 200.918C800.562 200.918 803.104 199.223 804.908 195.834C806.766 192.39 807.696 187.607 807.696 181.484C807.696 175.963 806.739 171.671 804.826 168.61C802.967 165.494 800.206 163.936 796.544 163.936C795.177 163.936 793.892 164.209 792.69 164.756C791.542 165.248 790.011 166.232 788.098 167.708V186.896C788.098 191.379 788.89 194.85 790.476 197.31C792.116 199.715 794.384 200.918 797.282 200.918ZM822.029 201V200.016H826.375C827.304 199.36 827.769 198.431 827.769 197.228V164.182C827.769 163.635 827.632 163.116 827.359 162.624C827.14 162.132 826.812 161.749 826.375 161.476H822.029V160.41H844.169V161.476H838.511C838.128 161.695 837.8 162.05 837.527 162.542C837.254 163.034 837.117 163.553 837.117 164.1V176.482H841.545C847.504 176.482 851.959 177.548 854.911 179.68C857.863 181.757 859.339 184.682 859.339 188.454C859.339 192.39 857.836 195.479 854.829 197.72C851.877 199.907 847.777 201 842.529 201H822.029ZM860.241 201V200.016H864.587C865.516 199.36 865.981 198.431 865.981 197.228V164.182C865.981 163.635 865.844 163.116 865.571 162.624C865.352 162.132 865.024 161.749 864.587 161.476H860.241V160.41H881.069V161.476H876.723C875.848 162.023 875.411 162.925 875.411 164.182V197.228C875.411 198.431 875.848 199.36 876.723 200.016H881.069V201H860.241ZM840.889 199.934C843.568 199.934 845.645 198.95 847.121 196.982C848.652 194.959 849.417 192.199 849.417 188.7C849.417 185.201 848.624 182.468 847.039 180.5C845.508 178.532 843.322 177.548 840.479 177.548H837.117V199.934H840.889ZM890.667 201V200.016H896.325C896.707 199.797 897.008 199.442 897.227 198.95C897.5 198.458 897.637 197.911 897.637 197.31V161.476H891.979L884.599 173.776L883.779 173.612C883.943 170.988 884.025 168.473 884.025 166.068L883.943 160.41H920.843C920.733 163.034 920.679 165.002 920.679 166.314C920.679 168.829 920.788 171.261 921.007 173.612L920.187 173.776L912.807 161.476H907.067V197.31C907.067 197.911 907.176 198.458 907.395 198.95C907.668 199.442 908.023 199.797 908.461 200.016H914.037V201H890.667ZM923.728 201V200.016H928.074C929.003 199.36 929.468 198.431 929.468 197.228V164.182C929.468 163.635 929.331 163.116 929.058 162.624C928.839 162.132 928.511 161.749 928.074 161.476H923.728V160.41H945.868V161.476H940.21C939.827 161.695 939.499 162.05 939.226 162.542C938.953 163.034 938.816 163.553 938.816 164.1V176.482H943.244C949.203 176.482 953.658 177.548 956.61 179.68C959.562 181.757 961.038 184.682 961.038 188.454C961.038 192.39 959.535 195.479 956.528 197.72C953.576 199.907 949.476 201 944.228 201H923.728ZM961.94 201V200.016H966.286C967.215 199.36 967.68 198.431 967.68 197.228V164.182C967.68 163.635 967.543 163.116 967.27 162.624C967.051 162.132 966.723 161.749 966.286 161.476H961.94V160.41H982.768V161.476H978.422C977.547 162.023 977.11 162.925 977.11 164.182V197.228C977.11 198.431 977.547 199.36 978.422 200.016H982.768V201H961.94ZM942.588 199.934C945.267 199.934 947.344 198.95 948.82 196.982C950.351 194.959 951.116 192.199 951.116 188.7C951.116 185.201 950.323 182.468 948.738 180.5C947.207 178.532 945.021 177.548 942.178 177.548H938.816V199.934H942.588ZM1024.76 185.912C1023.33 191.215 1021.04 195.233 1017.87 197.966C1014.7 200.645 1010.76 201.984 1006.06 201.984C1002.23 201.984 998.817 201.137 995.81 199.442C992.803 197.747 990.453 195.342 988.758 192.226C987.063 189.055 986.216 185.42 986.216 181.32C986.216 177.001 987.036 173.202 988.676 169.922C990.316 166.587 992.612 164.018 995.564 162.214C998.571 160.355 1002.01 159.426 1005.9 159.426C1011.47 159.426 1015.9 160.929 1019.18 163.936C1022.51 166.943 1024.18 171.015 1024.18 176.154H996.712V177.63C996.712 183.971 997.942 188.946 1000.4 192.554C1002.92 196.162 1006.31 197.966 1010.57 197.966C1013.74 197.966 1016.45 196.927 1018.69 194.85C1020.98 192.773 1022.68 189.711 1023.77 185.666L1024.76 185.912ZM1005.9 160.41C1003.22 160.41 1001.09 161.695 999.5 164.264C997.969 166.779 997.067 170.387 996.794 175.088H1013.6C1013.66 170.332 1013.03 166.697 1011.72 164.182C1010.41 161.667 1008.47 160.41 1005.9 160.41Z" fill="#787373" fill-opacity="0.3"/>
<path d="M1.148 269V268.016H5.494C6.42333 267.36 6.888 266.431 6.888 265.228V232.182C6.888 231.635 6.75133 231.116 6.478 230.624C6.25933 230.132 5.93133 229.749 5.494 229.476H1.148V228.41H21.484C26.732 228.41 30.668 229.23 33.292 230.87C35.9707 232.51 37.31 234.888 37.31 238.004C37.31 240.245 36.572 242.159 35.096 243.744C33.6747 245.275 31.5973 246.368 28.864 247.024V247.516C32.308 248.117 34.9047 249.293 36.654 251.042C38.458 252.737 39.36 254.951 39.36 257.684C39.36 261.237 37.9113 264.025 35.014 266.048C32.1167 268.016 28.0713 269 22.878 269H1.148ZM20.664 246.86C22.96 246.86 24.7093 246.122 25.912 244.646C27.1693 243.115 27.798 241.011 27.798 238.332C27.798 235.544 27.1693 233.385 25.912 231.854C24.6547 230.269 22.8507 229.476 20.5 229.476H16.236V246.86H20.664ZM21.566 267.934C24.19 267.934 26.1853 267.087 27.552 265.392C28.9187 263.643 29.602 261.21 29.602 258.094C29.602 254.869 28.8913 252.381 27.47 250.632C26.1033 248.828 24.0807 247.926 21.402 247.926H16.236V267.934H21.566ZM82.877 253.912C81.4557 259.215 79.1597 263.233 75.989 265.966C72.8184 268.645 68.8823 269.984 64.181 269.984C60.3543 269.984 56.9377 269.137 53.931 267.442C50.9243 265.747 48.5737 263.342 46.879 260.226C45.1843 257.055 44.337 253.42 44.337 249.32C44.337 245.001 45.157 241.202 46.797 237.922C48.437 234.587 50.733 232.018 53.685 230.214C56.6917 228.355 60.1357 227.426 64.017 227.426C69.593 227.426 74.021 228.929 77.301 231.936C80.6357 234.943 82.303 239.015 82.303 244.154H54.833V245.63C54.833 251.971 56.063 256.946 58.523 260.554C61.0377 264.162 64.427 265.966 68.691 265.966C71.8617 265.966 74.5677 264.927 76.809 262.85C79.105 260.773 80.7997 257.711 81.893 253.666L82.877 253.912ZM64.017 228.41C61.3383 228.41 59.2063 229.695 57.621 232.264C56.0903 234.779 55.1883 238.387 54.915 243.088H71.725C71.7797 238.332 71.151 234.697 69.839 232.182C68.527 229.667 66.5864 228.41 64.017 228.41ZM107.692 229.148C111.683 229.148 115.209 229.995 118.27 231.69C121.332 233.33 123.71 235.681 125.404 238.742C127.099 241.803 127.946 245.357 127.946 249.402C127.946 253.502 127.072 257.11 125.322 260.226C123.628 263.342 121.222 265.747 118.106 267.442C114.99 269.137 111.41 269.984 107.364 269.984C100.64 269.984 95.5563 267.961 92.1123 263.916C88.7229 259.816 87.0283 253.721 87.0283 245.63C87.0283 234.97 88.8869 226.989 92.6043 221.686C96.3216 216.383 102.034 213.349 109.742 212.584C114.772 212.092 118.27 211.709 120.238 211.436C122.206 211.163 123.518 210.862 124.174 210.534C124.83 210.206 125.35 209.687 125.732 208.976L126.552 209.14L124.42 220.21L105.15 220.456C99.9023 220.565 96.1576 221.495 93.9163 223.244C91.7296 224.939 90.6363 227.754 90.6363 231.69C90.6363 233.439 90.9096 235.052 91.4563 236.528C93.1509 234.287 95.3649 232.51 98.0983 231.198C100.832 229.831 104.03 229.148 107.692 229.148ZM107.528 268.918C114.143 268.918 117.45 262.549 117.45 249.812C117.45 236.747 114.143 230.214 107.528 230.214C100.859 230.214 97.5243 236.583 97.5243 249.32C97.5243 262.385 100.859 268.918 107.528 268.918ZM131.355 269V268.016H135.701C136.63 267.36 137.095 266.431 137.095 265.228V232.182C137.095 231.635 136.958 231.116 136.685 230.624C136.466 230.132 136.138 229.749 135.701 229.476H131.355V228.41H151.609V229.476H147.755C146.88 230.023 146.443 230.925 146.443 232.182V263.506L164.319 228.41H177.931V229.476H173.585C173.148 229.749 172.792 230.132 172.519 230.624C172.3 231.116 172.191 231.635 172.191 232.182V265.228C172.191 266.431 172.656 267.36 173.585 268.016H177.931V269H157.595V268.016H161.449C162.378 267.36 162.843 266.431 162.843 265.228V233.986L144.967 269H131.355ZM221.531 229.476C221.093 229.749 220.738 230.132 220.465 230.624C220.246 231.116 220.137 231.635 220.137 232.182V265.228C220.137 266.431 220.601 267.36 221.531 268.016H225.877V269H205.459V268.016H209.395C210.269 267.36 210.707 266.431 210.707 265.228V248.336H195.291V265.228C195.291 266.431 195.755 267.36 196.685 268.016H200.539V269H180.203V268.016H184.549C185.478 267.36 185.943 266.431 185.943 265.228V232.182C185.943 231.635 185.806 231.116 185.533 230.624C185.314 230.132 184.986 229.749 184.549 229.476H180.203V228.41H200.539V229.476H196.685C196.247 229.749 195.892 230.132 195.619 230.624C195.4 231.116 195.291 231.635 195.291 232.182V247.27H210.707V232.182C210.707 230.925 210.269 230.023 209.395 229.476H205.459V228.41H225.877V229.476H221.531ZM268.025 263.342L268.353 264.244L254.741 269.82H253.839V257.766H253.429C252.281 261.702 250.477 264.736 248.017 266.868C245.612 268.945 242.906 269.984 239.899 269.984C236.838 269.984 234.351 269.055 232.437 267.196C230.524 265.283 229.567 262.795 229.567 259.734C229.567 257.11 230.305 254.896 231.781 253.092C233.312 251.233 235.772 249.621 239.161 248.254C242.605 246.833 247.361 245.439 253.429 244.072V242.268C253.429 237.403 252.937 233.904 251.953 231.772C250.969 229.585 249.384 228.492 247.197 228.492C243.261 228.492 241.293 232.045 241.293 239.152C241.293 239.917 241.348 241.175 241.457 242.924L231.863 242.35C232.027 237.43 233.613 233.713 236.619 231.198C239.681 228.683 243.999 227.426 249.575 227.426C258.541 227.426 263.023 231.772 263.023 240.464V262.112C263.023 263.315 263.433 264.217 264.253 264.818L268.025 263.342ZM244.901 264.654C247.525 264.654 249.603 263.233 251.133 260.39C252.664 257.493 253.429 253.666 253.429 248.91V245.22C248.4 246.149 244.819 247.571 242.687 249.484C240.555 251.343 239.489 253.967 239.489 257.356C239.489 259.652 239.981 261.456 240.965 262.768C241.949 264.025 243.261 264.654 244.901 264.654ZM297.704 227.426C300.874 227.426 303.69 228.273 306.15 229.968C308.61 231.663 310.523 234.041 311.89 237.102C313.256 240.109 313.94 243.553 313.94 247.434C313.94 251.862 313.065 255.771 311.316 259.16C309.621 262.549 307.161 265.201 303.936 267.114C300.765 269.027 297.048 269.984 292.784 269.984C289.34 269.984 286.36 269.273 283.846 267.852V284.17C283.846 284.771 283.955 285.318 284.174 285.81C284.447 286.302 284.802 286.657 285.24 286.876H290.816V287.86H268.594V286.876H272.94C273.869 286.22 274.334 285.291 274.334 284.088V229.558L268.184 229.476V228.41C272.174 228.41 275.29 228.355 277.532 228.246C279.773 228.137 281.878 227.918 283.846 227.59V234.478C287.18 231.69 289.804 229.831 291.718 228.902C293.631 227.918 295.626 227.426 297.704 227.426ZM293.03 268.918C296.31 268.918 298.852 267.223 300.656 263.834C302.514 260.39 303.444 255.607 303.444 249.484C303.444 243.963 302.487 239.671 300.574 236.61C298.715 233.494 295.954 231.936 292.292 231.936C290.925 231.936 289.64 232.209 288.438 232.756C287.29 233.248 285.759 234.232 283.846 235.708V254.896C283.846 259.379 284.638 262.85 286.224 265.31C287.864 267.715 290.132 268.918 293.03 268.918ZM317.777 269V268.016H322.123C323.052 267.36 323.517 266.431 323.517 265.228V232.182C323.517 231.635 323.38 231.116 323.107 230.624C322.888 230.132 322.56 229.749 322.123 229.476H317.777V228.41H339.917V229.476H334.259C333.876 229.695 333.548 230.05 333.275 230.542C333.002 231.034 332.865 231.553 332.865 232.1V244.482H337.293C343.252 244.482 347.707 245.548 350.659 247.68C353.611 249.757 355.087 252.682 355.087 256.454C355.087 260.39 353.584 263.479 350.577 265.72C347.625 267.907 343.525 269 338.277 269H317.777ZM355.989 269V268.016H360.335C361.264 267.36 361.729 266.431 361.729 265.228V232.182C361.729 231.635 361.592 231.116 361.319 230.624C361.1 230.132 360.772 229.749 360.335 229.476H355.989V228.41H376.817V229.476H372.471C371.596 230.023 371.159 230.925 371.159 232.182V265.228C371.159 266.431 371.596 267.36 372.471 268.016H376.817V269H355.989ZM336.637 267.934C339.316 267.934 341.393 266.95 342.869 264.982C344.4 262.959 345.165 260.199 345.165 256.7C345.165 253.201 344.372 250.468 342.787 248.5C341.256 246.532 339.07 245.548 336.227 245.548H332.865V267.934H336.637Z" fill="#787373" fill-opacity="0.3"/>
</svg>
