<svg width="147" height="22" viewBox="0 0 147 22" fill="none" xmlns="http://www.w3.org/2000/svg">
<path d="M1.44 18V9.36H2.43L5.85 13.68L9.27 9.36H10.26V18H9V11.61L5.85 15.57L2.7 11.61V18H1.44ZM19.627 15.57L20.437 16.38C20.209 16.692 19.903 16.992 19.519 17.28C18.679 17.88 17.785 18.18 16.837 18.18C15.649 18.18 14.629 17.742 13.777 16.866C12.937 15.99 12.517 14.928 12.517 13.68C12.517 12.432 12.937 11.37 13.777 10.494C14.617 9.618 15.607 9.18 16.747 9.18C17.935 9.18 18.919 9.588 19.699 10.404C20.491 11.22 20.887 12.252 20.887 13.5C20.887 13.56 20.869 13.716 20.833 13.968L20.797 14.148L13.777 14.13C13.825 14.91 14.143 15.588 14.731 16.164C15.331 16.728 16.033 17.01 16.837 17.01C17.569 17.01 18.259 16.77 18.907 16.29C19.219 16.038 19.459 15.798 19.627 15.57ZM13.777 13.05H19.627C19.531 12.27 19.213 11.628 18.673 11.124C18.145 10.608 17.503 10.35 16.747 10.35C15.991 10.35 15.331 10.614 14.767 11.142C14.203 11.67 13.873 12.306 13.777 13.05ZM23.1314 18V9.36H24.3914V13.05H29.3414V9.36H30.6014V18H29.3414V14.22H24.3914V18H23.1314ZM33.4849 18V9.36H34.7449V13.05H36.6349C36.7789 11.982 37.2589 11.07 38.0749 10.314C38.8909 9.558 39.8509 9.18 40.9549 9.18C42.1429 9.18 43.1569 9.618 43.9969 10.494C44.8489 11.37 45.2749 12.432 45.2749 13.68C45.2749 14.928 44.8489 15.99 43.9969 16.866C43.1569 17.742 42.1429 18.18 40.9549 18.18C39.8509 18.18 38.8909 17.796 38.0749 17.028C37.2589 16.26 36.7789 15.324 36.6349 14.22H34.7449V18H33.4849ZM38.7949 16.056C39.4069 16.692 40.1269 17.01 40.9549 17.01C41.7829 17.01 42.4969 16.692 43.0969 16.056C43.7089 15.408 44.0149 14.616 44.0149 13.68C44.0149 12.744 43.7089 11.958 43.0969 11.322C42.4969 10.674 41.7829 10.35 40.9549 10.35C40.1269 10.35 39.4069 10.674 38.7949 11.322C38.1949 11.958 37.8949 12.744 37.8949 13.68C37.8949 14.616 38.1949 15.408 38.7949 16.056Z" fill="#101010"/>
<rect x="67" y="5" width="80" height="3" rx="1.5" fill="#101010"/>
<rect x="67" y="14" width="80" height="3" rx="1.5" fill="#101010"/>
</svg>
