<svg width="270" height="40" viewBox="0 0 270 40" fill="none" xmlns="http://www.w3.org/2000/svg">
<path d="M34.6647 19.5824C34.3106 19.5824 33.971 19.4332 33.7205 19.1676C33.4701 18.902 33.3295 18.5417 33.3295 18.1661C33.3266 15.1619 32.2003 12.2816 30.1976 10.1573C28.1949 8.03295 25.4795 6.83821 22.6473 6.83521C22.2931 6.83521 21.9535 6.68599 21.7031 6.42037C21.4527 6.15475 21.312 5.79449 21.312 5.41885C21.312 5.04321 21.4527 4.68295 21.7031 4.41733C21.9535 4.15172 22.2931 4.00249 22.6473 4.00249C26.1874 4.00662 29.5815 5.50017 32.0848 8.15546C34.5881 10.8108 35.9961 14.4109 36 18.1661C36 18.5417 35.8593 18.902 35.6089 19.1676C35.3585 19.4332 35.0189 19.5824 34.6647 19.5824ZM30.6589 18.1661C30.6589 15.9122 29.8148 13.7507 28.3124 12.157C26.8099 10.5633 24.7721 9.66792 22.6473 9.66792C22.2931 9.66792 21.9535 9.81715 21.7031 10.0828C21.4527 10.3484 21.312 10.7086 21.312 11.0843C21.312 11.4599 21.4527 11.8202 21.7031 12.0858C21.9535 12.3514 22.2931 12.5006 22.6473 12.5006C24.0638 12.5006 25.4223 13.0975 26.424 14.16C27.4256 15.2225 27.9884 16.6635 27.9884 18.1661C27.9884 18.5417 28.129 18.902 28.3795 19.1676C28.6299 19.4332 28.9695 19.5824 29.3236 19.5824C29.6778 19.5824 30.0174 19.4332 30.2678 19.1676C30.5182 18.902 30.6589 18.5417 30.6589 18.1661ZM33.5738 35.3946L34.7889 33.9089C35.5623 33.0859 35.9966 31.9712 35.9966 30.8092C35.9966 29.6472 35.5623 28.5325 34.7889 27.7095C34.7475 27.6656 31.5348 25.0439 31.5348 25.0439C30.7638 24.2654 29.7396 23.8319 28.6751 23.8335C27.6106 23.835 26.5875 24.2716 25.8185 25.0524L23.2735 27.3271C21.1961 26.4151 19.3089 25.0767 17.7205 23.3889C16.1321 21.7011 14.8736 19.6971 14.0174 17.4919L16.1538 14.8008C16.8905 13.9852 17.3026 12.8999 17.3043 11.7704C17.3061 10.6409 16.8974 9.55409 16.1632 8.73596C16.1632 8.73596 13.6889 5.33245 13.6475 5.28855C12.8857 4.4752 11.8528 4.01244 10.7719 4.00025C9.69108 3.98806 8.64911 4.42741 7.87114 5.22339L6.33558 6.63975C-2.73627 17.8035 16.7988 38.3648 27.6706 37.9951C28.7684 38.0018 29.8564 37.7752 30.8703 37.3286C31.8842 36.8819 32.8035 36.2244 33.5738 35.3946Z" fill="#4548F5"/>
<path d="M60 19.5454H269.667M259.158 10C259.259 15.1044 259.096 18.3003 268.171 19.5454M259.414 29.0907C259.515 23.9863 259.352 20.7904 268.427 19.5454" stroke="#101010"/>
</svg>
