<svg width="298" height="85" viewBox="0 0 298 85" fill="none" xmlns="http://www.w3.org/2000/svg">
<path d="M7.05902 26.5573L6.04374 26.0844L7.63121 22.676L10.8946 24.1959C11.147 24.69 11.3288 25.2218 11.44 25.7913C11.6769 27.1019 11.5318 28.3228 11.0049 29.4541C10.3294 30.9045 9.24756 31.9009 7.75942 32.4433C6.27127 32.9857 4.80199 32.9192 3.35159 32.2437C1.90118 31.5681 0.904773 30.4863 0.362355 28.9982C-0.180063 27.51 -0.113512 26.0407 0.562009 24.5903C1.08892 23.459 1.92372 22.5888 3.06642 21.9796C3.56498 21.7176 4.07296 21.5365 4.59033 21.4362L4.90525 22.4654C4.45424 22.5495 4.03356 22.6948 3.64321 22.9013C2.72528 23.3563 2.03665 24.0769 1.57729 25.0632C1.03688 26.2235 0.985886 27.3941 1.42432 28.575C1.8576 29.7416 2.6689 30.6019 3.85823 31.1559C5.04756 31.7098 6.23298 31.7795 7.41449 31.3649C8.59084 30.9361 9.44922 30.1415 9.98964 28.9812C10.422 28.053 10.5685 27.1446 10.4293 26.2561C10.3704 25.8521 10.2599 25.4829 10.0979 25.1486L8.13985 24.2366L7.05902 26.5573Z" fill="#101010"/>
<path d="M13.9432 24.0456L5.62357 16.5474L6.42695 15.656L13.9147 22.4044L17.7709 18.1257L18.6028 18.8755L13.9432 24.0456Z" fill="#101010"/>
<path d="M18.7882 16.7707C17.2572 16.3649 16.0898 15.4703 15.286 14.0868C14.4822 12.7034 14.2832 11.2461 14.6889 9.71507C15.0947 8.184 15.9893 7.01658 17.3728 6.21279C18.7562 5.40901 20.2135 5.21 21.7445 5.61576C23.2756 6.02152 24.443 6.91613 25.2468 8.29958C26.0506 9.68303 26.2496 11.1403 25.8438 12.6713C25.4381 14.2024 24.5435 15.3698 23.16 16.1736C21.7766 16.9774 20.3193 17.1764 18.7882 16.7707ZM19.1218 15.6886C20.3321 16.0094 21.4906 15.8482 22.5974 15.2052C23.7041 14.5622 24.4133 13.6382 24.7248 12.4333C25.0402 11.2138 24.8683 10.0368 24.2092 8.90242C23.5501 7.76799 22.6154 7.0404 21.4052 6.71966C20.1987 6.38433 19.0422 6.53818 17.9354 7.18121C16.8286 7.82423 16.1176 8.7555 15.8022 9.97499C15.4907 11.1799 15.6645 12.3496 16.3236 13.484C16.9827 14.6184 17.9154 15.3533 19.1218 15.6886Z" fill="#101010"/>
<path d="M29.3566 12.9721L27.2461 1.9728L31.4887 1.15874C32.3792 0.987888 33.1647 1.11955 33.8454 1.55373C34.5261 1.98791 34.9428 2.60307 35.0955 3.39921C35.2322 4.11155 35.1373 4.74886 34.8107 5.31114C34.6454 5.5818 34.4671 5.78437 34.2757 5.91885C34.641 6.01167 34.9788 6.15865 35.2889 6.35982C36.009 6.82987 36.4495 7.48392 36.6103 8.32196C36.7852 9.23334 36.6156 10.0479 36.1017 10.7656C35.5962 11.4708 34.8406 11.9199 33.8349 12.1129L29.3566 12.9721ZM29.311 6.3664L32.3751 5.77847C32.9723 5.6639 33.403 5.41832 33.6675 5.04174C33.9404 4.65268 34.0236 4.18055 33.917 3.62534C33.8165 3.10156 33.5685 2.7147 33.173 2.46475C32.7775 2.21481 32.2864 2.14611 31.6998 2.25867L28.6357 2.8466L29.311 6.3664ZM30.3241 11.6461L33.6239 11.0129C34.2839 10.8863 34.7767 10.5962 35.1024 10.1427C35.4386 9.68722 35.5484 9.15567 35.4318 8.54809C35.3152 7.94051 35.0115 7.46116 34.5205 7.11005C34.0295 6.75895 33.4593 6.6457 32.8098 6.77032L29.51 7.40348L30.3241 11.6461Z" fill="#101010"/>
<path d="M37.1353 11.3474L42.9628 0.716797L44.0762 0.838277L47.474 12.4755L46.2015 12.3366L45.2675 9.09621L40.0187 8.52352L38.4078 11.4863L37.1353 11.3474ZM40.6173 7.46219L44.9118 7.93076L43.3373 2.44763L40.6173 7.46219Z" fill="#101010"/>
<path d="M47.8882 12.9416L52.0651 2.54957L53.1786 2.99709L49.4193 12.3499L54.7638 14.498L54.3461 15.5372L47.8882 12.9416Z" fill="#101010"/>
<path d="M65.8566 21.7352L65.9253 22.8093C65.3302 22.8838 64.7758 22.8863 64.2621 22.8166C62.9778 22.6349 61.8856 22.1041 60.9857 21.2241C59.8417 20.1055 59.2608 18.7543 59.243 17.1705C59.2253 15.5867 59.7757 14.2228 60.8943 13.0788C62.0129 11.9348 63.3641 11.3539 64.9479 11.3361C66.5317 11.3183 67.8956 11.8687 69.0396 12.9873C69.9319 13.8598 70.4758 14.9362 70.6712 16.2163C70.7529 16.7735 70.7552 17.3128 70.6781 17.8341L69.6027 17.7896C69.673 17.3363 69.6756 16.8912 69.6103 16.4545C69.4858 15.4376 69.0345 14.5488 68.2566 13.7881C67.3414 12.8933 66.2541 12.4567 64.9947 12.4783C63.7503 12.4998 62.6695 12.9796 61.7523 13.9177C60.835 14.8558 60.3759 15.9509 60.3748 17.203C60.3889 18.455 60.8535 19.5284 61.7687 20.4233C62.5543 21.1914 63.4644 21.6338 64.4991 21.7504C64.9523 21.8057 65.4048 21.8006 65.8566 21.7352Z" fill="#101010"/>
<path d="M66.3433 24.8341C66.8701 23.3404 67.8551 22.2481 69.2983 21.5574C70.7415 20.8667 72.21 20.7847 73.7038 21.3115C75.1976 21.8383 76.2898 22.8233 76.9805 24.2665C77.6712 25.7097 77.7532 27.1782 77.2264 28.672C76.6997 30.1657 75.7147 31.258 74.2714 31.9487C72.8282 32.6394 71.3597 32.7214 69.8659 32.1946C68.3722 31.6678 67.2799 30.6828 66.5892 29.2396C65.8985 27.7964 65.8166 26.3279 66.3433 24.8341ZM67.3952 25.2531C66.9788 26.4338 67.0469 27.6015 67.5995 28.7561C68.1521 29.9107 69.0164 30.6914 70.1926 31.0982C71.383 31.5099 72.5699 31.4326 73.7534 30.8663C74.9368 30.2999 75.7368 29.4263 76.1532 28.2455C76.5838 27.0698 76.5228 25.9046 75.9702 24.75C75.4177 23.5954 74.5462 22.8122 73.3558 22.4004C72.1796 21.9937 70.9998 22.0735 69.8163 22.6398C68.6329 23.2062 67.8259 24.0773 67.3952 25.2531Z" fill="#101010"/>
<path d="M69.1312 34.2843L80.7645 37.6956L80.8847 38.8092L70.2473 44.6243L70.1099 43.3516L73.0745 41.7442L72.5079 36.4947L69.2686 35.5569L69.1312 34.2843ZM73.673 36.8518L74.1366 41.1468L79.1543 38.4327L73.673 36.8518Z" fill="#101010"/>
<path d="M71.1037 54.0503L70.236 54.6871C69.8524 54.2261 69.5515 53.7605 69.3333 53.2903C68.7939 52.1106 68.6523 50.9046 68.9083 49.6722C69.2337 48.1057 70.0586 46.888 71.383 46.0192C72.7074 45.1504 74.1528 44.8788 75.7194 45.2042C77.286 45.5296 78.5036 46.3545 79.3724 47.6789C80.2412 49.0033 80.5129 50.4488 80.1875 52.0153C79.9336 53.2372 79.3203 54.2755 78.3475 55.1302C77.9221 55.4994 77.4692 55.7921 76.9885 56.0081L76.4463 55.0784C76.866 54.8933 77.2422 54.6555 77.5749 54.3651C78.3643 53.712 78.8696 52.8528 79.0909 51.7875C79.3512 50.5343 79.1328 49.3831 78.4356 48.3341C77.7467 47.2976 76.7599 46.646 75.4753 46.3791C74.1908 46.1123 73.0209 46.3159 71.9657 46.99C70.9188 47.6768 70.2652 48.6468 70.0049 49.9C69.7814 50.9757 69.8994 51.9808 70.359 52.9151C70.5568 53.3266 70.805 53.705 71.1037 54.0503Z" fill="#101010"/>
<path d="M67.7779 54.7051L77.435 60.378L76.8272 61.4127L72.5505 58.9004L69.3899 64.2807L73.6665 66.793L73.0587 67.8277L63.4017 62.1548L64.0095 61.1201L68.4242 63.7135L71.5848 58.3331L67.1701 55.7398L67.7779 54.7051Z" fill="#101010"/>
<path d="M61.8674 63.5208L69.9616 71.2619L69.1322 72.1291L61.038 64.388L61.8674 63.5208Z" fill="#101010"/>
<path d="M59.6153 66.2583L65.6243 75.7099L64.7466 76.2679L54.0905 72.3303L58.9407 79.9591L57.928 80.6029L51.919 71.1514L52.7966 70.5934L63.4527 74.5309L58.6026 66.9021L59.6153 66.2583Z" fill="#101010"/>
<path d="M45.3586 77.7915L45.5981 78.8855L41.9251 79.6896L41.1552 76.1729C41.3951 75.6727 41.7078 75.2057 42.0933 74.7719C42.9919 73.789 44.0507 73.1641 45.2699 72.8972C46.8328 72.555 48.2811 72.8112 49.6147 73.6658C50.9484 74.5204 51.7862 75.7291 52.1284 77.2921C52.4706 78.8551 52.2144 80.3034 51.3598 81.637C50.5052 82.9706 49.2965 83.8085 47.7335 84.1507C46.5144 84.4176 45.3162 84.2813 44.1389 83.742C43.6283 83.5043 43.1763 83.2102 42.7828 82.8595L43.4103 81.9851C43.7507 82.2928 44.1213 82.5392 44.5222 82.7244C45.4405 83.1786 46.4311 83.2893 47.494 83.0566C48.7444 82.7829 49.7062 82.1137 50.3794 81.0491C51.0445 79.9972 51.2368 78.8304 50.9562 77.5488C50.6756 76.2671 50.0123 75.2822 48.9662 74.594C47.9121 73.9184 46.7598 73.7176 45.5094 73.9913C44.5091 74.2103 43.6978 74.6445 43.0756 75.2939C42.7901 75.5857 42.5635 75.8974 42.3959 76.2289L42.8578 78.3389L45.3586 77.7915Z" fill="#101010"/>
<path d="M98 42.7168H208M197.423 31.2168C197.525 37.3664 197.36 41.2168 206.495 42.7168M197.68 54.2168C197.782 48.0671 197.617 44.2168 206.752 42.7168" stroke="#101010"/>
<path d="M225.68 48.7168V37.5168H234.32V48.7168H233.12V38.6368H226.88V48.7168H225.68ZM243.408 47.7248C242.651 48.4928 241.728 48.8768 240.64 48.8768C239.552 48.8768 238.624 48.4928 237.856 47.7248C237.099 46.9461 236.72 45.9968 236.72 44.8768C236.72 43.7568 237.099 42.8128 237.856 42.0448C238.624 41.2661 239.552 40.8768 240.64 40.8768C241.728 40.8768 242.651 41.2661 243.408 42.0448C244.176 42.8128 244.56 43.7568 244.56 44.8768C244.56 45.9968 244.176 46.9461 243.408 47.7248ZM238.656 46.9728C239.211 47.5488 239.872 47.8368 240.64 47.8368C241.408 47.8368 242.064 47.5541 242.608 46.9888C243.163 46.4128 243.44 45.7088 243.44 44.8768C243.44 44.0448 243.163 43.3461 242.608 42.7808C242.064 42.2048 241.408 41.9168 240.64 41.9168C239.872 41.9168 239.211 42.2048 238.656 42.7808C238.112 43.3461 237.84 44.0448 237.84 44.8768C237.84 45.6981 238.112 46.3968 238.656 46.9728ZM245.125 48.7168V47.5968C245.189 47.6395 245.253 47.6661 245.317 47.6768C245.456 47.7301 245.605 47.7568 245.765 47.7568C246.096 47.7568 246.352 47.6608 246.533 47.4688C246.725 47.2768 246.885 46.8448 247.013 46.1728C247.141 45.4901 247.205 44.5248 247.205 43.2768V41.0368H252.805V48.7168H251.685V42.0768H248.325V43.2768C248.325 44.4075 248.266 45.3515 248.149 46.1088C248.042 46.8555 247.877 47.4261 247.653 47.8208C247.429 48.2155 247.178 48.4928 246.901 48.6528C246.634 48.8021 246.309 48.8768 245.925 48.8768C245.733 48.8768 245.546 48.8501 245.365 48.7968C245.312 48.7861 245.232 48.7595 245.125 48.7168ZM261.118 46.5568L261.838 47.2768C261.635 47.5541 261.363 47.8208 261.022 48.0768C260.275 48.6101 259.481 48.8768 258.638 48.8768C257.582 48.8768 256.675 48.4875 255.918 47.7088C255.171 46.9301 254.798 45.9861 254.798 44.8768C254.798 43.7675 255.171 42.8235 255.918 42.0448C256.665 41.2661 257.545 40.8768 258.558 40.8768C259.614 40.8768 260.489 41.2395 261.182 41.9648C261.886 42.6901 262.238 43.6075 262.238 44.7168C262.238 44.7701 262.222 44.9088 262.19 45.1328L262.158 45.2928L255.918 45.2768C255.961 45.9701 256.243 46.5728 256.766 47.0848C257.299 47.5861 257.923 47.8368 258.638 47.8368C259.289 47.8368 259.902 47.6235 260.478 47.1968C260.755 46.9728 260.969 46.7595 261.118 46.5568ZM255.918 44.3168H261.118C261.033 43.6235 260.75 43.0528 260.27 42.6048C259.801 42.1461 259.23 41.9168 258.558 41.9168C257.886 41.9168 257.299 42.1515 256.798 42.6208C256.297 43.0901 256.003 43.6555 255.918 44.3168ZM263.353 47.5168L264.073 46.7968C264.244 47.0101 264.436 47.1861 264.649 47.3248C265.14 47.6661 265.668 47.8368 266.233 47.8368C266.841 47.8368 267.3 47.7195 267.609 47.4848C267.918 47.2501 268.073 46.9408 268.073 46.5568C268.073 46.1728 267.918 45.8635 267.609 45.6288C267.3 45.3941 266.841 45.2768 266.233 45.2768H265.353V44.2368H266.233C266.692 44.2368 267.06 44.1195 267.337 43.8848C267.614 43.6501 267.753 43.3675 267.753 43.0368C267.753 42.7061 267.625 42.4395 267.369 42.2368C267.113 42.0235 266.734 41.9168 266.233 41.9168C265.71 41.9168 265.241 42.0661 264.825 42.3648C264.622 42.5035 264.452 42.6475 264.313 42.7968L263.513 41.9968C263.673 41.8261 263.908 41.6395 264.217 41.4368C264.857 41.0635 265.529 40.8768 266.233 40.8768C267.001 40.8768 267.63 41.0955 268.121 41.5328C268.622 41.9595 268.873 42.4608 268.873 43.0368C268.873 43.6235 268.67 44.0768 268.265 44.3968C268.084 44.5461 267.886 44.6528 267.673 44.7168C267.94 44.7808 268.19 44.8875 268.425 45.0368C268.937 45.3781 269.193 45.8848 269.193 46.5568C269.193 47.1968 268.932 47.7461 268.409 48.2048C267.897 48.6528 267.172 48.8768 266.233 48.8768C265.454 48.8768 264.734 48.6528 264.073 48.2048C263.796 48.0021 263.556 47.7728 263.353 47.5168ZM271.28 48.7168V41.0368H272.4V44.3168H276.8V41.0368H277.92V48.7168H276.8V45.3568H272.4V48.7168H271.28ZM286.611 47.7248C285.854 48.4928 284.931 48.8768 283.843 48.8768C282.755 48.8768 281.827 48.4928 281.059 47.7248C280.302 46.9461 279.923 45.9968 279.923 44.8768C279.923 43.7568 280.302 42.8128 281.059 42.0448C281.827 41.2661 282.755 40.8768 283.843 40.8768C284.931 40.8768 285.854 41.2661 286.611 42.0448C287.379 42.8128 287.763 43.7568 287.763 44.8768C287.763 45.9968 287.379 46.9461 286.611 47.7248ZM281.859 46.9728C282.414 47.5488 283.075 47.8368 283.843 47.8368C284.611 47.8368 285.267 47.5541 285.811 46.9888C286.366 46.4128 286.643 45.7088 286.643 44.8768C286.643 44.0448 286.366 43.3461 285.811 42.7808C285.267 42.2048 284.611 41.9168 283.843 41.9168C283.075 41.9168 282.414 42.2048 281.859 42.7808C281.315 43.3461 281.043 44.0448 281.043 44.8768C281.043 45.6981 281.315 46.3968 281.859 46.9728ZM295.524 46.5568L296.244 47.2768C296.042 47.5541 295.77 47.8208 295.428 48.0768C294.682 48.6101 293.887 48.8768 293.044 48.8768C291.988 48.8768 291.082 48.4875 290.324 47.7088C289.578 46.9301 289.204 45.9861 289.204 44.8768C289.204 43.7675 289.578 42.8235 290.324 42.0448C291.071 41.2661 291.951 40.8768 292.964 40.8768C294.02 40.8768 294.895 41.2395 295.588 41.9648C296.292 42.6901 296.644 43.6075 296.644 44.7168C296.644 44.7701 296.628 44.9088 296.596 45.1328L296.564 45.2928L290.324 45.2768C290.367 45.9701 290.65 46.5728 291.172 47.0848C291.706 47.5861 292.33 47.8368 293.044 47.8368C293.695 47.8368 294.308 47.6235 294.884 47.1968C295.162 46.9728 295.375 46.7595 295.524 46.5568ZM290.324 44.3168H295.524C295.439 43.6235 295.156 43.0528 294.676 42.6048C294.207 42.1461 293.636 41.9168 292.964 41.9168C292.292 41.9168 291.706 42.1515 291.204 42.6208C290.703 43.0901 290.41 43.6555 290.324 44.3168Z" fill="#101010"/>
</svg>
